<?xml version="1.0" encoding="UTF-8"?>
<svg id="Capa_1" data-name="Capa 1" xmlns="http://www.w3.org/2000/svg" xmlns:xlink="http://www.w3.org/1999/xlink" viewBox="0 0 100 50">
  <defs>
    <style>
      .cls-1 {
        clip-path: url(#clippath);
      }

      .cls-2 {
        fill: #888e99;
      }
    </style>
    <clipPath id="clippath">
      <path class="cls-2" d="M16.46,30.97c1.16,0,2.32-.19,3.43-.55,.25-.08,.5-.18,.74-.29-.27,.67-.7,1.27-1.26,1.73-1.12,.82-2.42,1.36-3.79,1.56,.4-.77,.68-1.59,.84-2.44m-5.74,1.7l-.08-.07c-.49-.23-.68-1.31-.42-2.95,.96,.43,1.97,.75,3,.97,.79,.17,1.59,.27,2.4,.32-.39,1.67-.88,2.55-1.21,2.55h-.06c-1.25,0-2.49-.29-3.62-.84m-4.49-5.34c-.07-.27-.12-.55-.14-.83,.31,.44,.66,.84,1.06,1.21,.68,.61,1.43,1.14,2.23,1.57-.18,.83-.22,1.69-.12,2.53-1.47-1.12-2.54-2.69-3.04-4.48m10.82-2.31v-1.06c1.02-.05,2.01-.33,2.9-.83,.74,1.42,1.14,2.99,1.16,4.58,0,.42-.03,.83-.11,1.24-.42,.26-.87,.46-1.34,.61-.96,.32-1.97,.49-2.98,.5,.26-1.68,.39-3.39,.38-5.09m-3.66,4.82c-1.06-.22-2.09-.56-3.07-1.01,.41-1.68,1.02-3.31,1.81-4.85l.39-.78c.65,.29,1.33,.51,2.03,.66,.53,.11,1.07,.18,1.61,.2v1.06c.01,1.7-.12,3.4-.4,5.08-.8-.03-1.6-.13-2.38-.31m-5.64-2.78c-.66-.58-1.17-1.3-1.5-2.12,.24-.87,.64-1.68,1.19-2.39,.58-.75,1.27-1.41,2.04-1.96,.25,.45,.57,.85,.95,1.2,.41,.38,.85,.7,1.33,.97-.14,.26-.28,.53-.4,.79-.76,1.54-1.36,3.16-1.77,4.83-.66-.37-1.28-.81-1.84-1.32m8.71-8.09c1.03,.78,1.93,1.73,2.66,2.8,.15,.21,.28,.42,.41,.63-.78,.41-1.65,.64-2.53,.68-.06-1.4-.24-2.78-.54-4.15m-1.73,4.02c-.61-.13-1.21-.32-1.78-.57,.72-1.27,1.58-2.46,2.57-3.53,.34,1.42,.54,2.86,.6,4.32-.47-.02-.94-.08-1.4-.18m-3.71-1.84c-.33-.3-.61-.66-.81-1.06,.84-.5,1.74-.89,2.68-1.16,.55-.17,1.11-.3,1.68-.39-.91,1.08-1.71,2.25-2.38,3.49-.42-.24-.81-.52-1.16-.85m-1.87-2.8v.13c-.1,.41-.1,.84,0,1.25-.92,.63-1.73,1.39-2.4,2.28-.2,.25-.38,.52-.54,.79,.48-1.76,1.51-3.31,2.94-4.44m.81,.32c.12-.48,.4-.9,.79-1.2,1.14-.3,2.35-.22,3.44,.22-.53,.09-1.05,.22-1.57,.37-.94,.28-1.85,.67-2.7,1.16-.03-.19-.03-.37,0-.56m7.06-1.15c.25-.17,.52-.3,.8-.38,.45,.18,.88,.41,1.28,.69-.69-.17-1.4-.27-2.12-.31m-1.4-.93c.35,0,.73,.11,1.11,.19-.26,.14-.51,.3-.75,.49-.1-.24-.22-.46-.36-.68m-.94,.35c-.38-.15-.77-.27-1.17-.36,.31-.03,.63-.05,.94-.05,.15,0,.33,.18,.52,.53l-.29-.12M5,25.02c0,.87,.12,1.73,.36,2.56v.17h0c1.22,3.92,4.84,6.59,8.94,6.59,1.87,0,3.7-.56,5.24-1.62h.05l.25-.19c1.76-1.3,3-3.17,3.52-5.29,0-.11,.06-.2,.08-.31v-.06c.13-.63,.2-1.26,.2-1.9,.02-1.23-.21-2.45-.67-3.59-.09-.22-.33-.32-.55-.24,0,0,0,0-.01,0-.22,.09-.33,.35-.23,.57,0,0,0,0,0,0,.7,1.67,.85,3.53,.41,5.29-.13,.44-.36,.85-.68,1.19v-.46c-.02-1.77-.47-3.52-1.31-5.08,.6-.5,1.01-1.19,1.16-1.96,.04-.24-.11-.46-.35-.51-.24-.04-.46,.11-.51,.35h0c-.09,.51-.35,.98-.74,1.33-.13-.2-.25-.41-.39-.61-.74-1.08-1.64-2.05-2.67-2.86,1.22,.05,2.42,.38,3.5,.95,.21,.12,.47,.05,.59-.15,.1-.16,.08-.36-.04-.5-1.64-2.07-4.19-3.21-6.83-3.04-5.16,.01-9.34,4.19-9.36,9.36"/>
    </clipPath>
  </defs>
  <g id="Capa_2" data-name="Capa 2">
    <g id="Capa_1-2" data-name="Capa 1-2">
      <g>
        <path class="cls-2" d="M16.46,30.97c1.16,0,2.32-.19,3.43-.55,.25-.08,.5-.18,.74-.29-.27,.67-.7,1.27-1.26,1.73-1.12,.82-2.42,1.36-3.79,1.56,.4-.77,.68-1.59,.84-2.44m-5.74,1.7l-.08-.07c-.49-.23-.68-1.31-.42-2.95,.96,.43,1.97,.75,3,.97,.79,.17,1.59,.27,2.4,.32-.39,1.67-.88,2.55-1.21,2.55h-.06c-1.25,0-2.49-.29-3.62-.84m-4.49-5.34c-.07-.27-.12-.55-.14-.83,.31,.44,.66,.84,1.06,1.21,.68,.61,1.43,1.14,2.23,1.57-.18,.83-.22,1.69-.12,2.53-1.47-1.12-2.54-2.69-3.04-4.48m10.82-2.31v-1.06c1.02-.05,2.01-.33,2.9-.83,.74,1.42,1.14,2.99,1.16,4.58,0,.42-.03,.83-.11,1.24-.42,.26-.87,.46-1.34,.61-.96,.32-1.97,.49-2.98,.5,.26-1.68,.39-3.39,.38-5.09m-3.66,4.82c-1.06-.22-2.09-.56-3.07-1.01,.41-1.68,1.02-3.31,1.81-4.85l.39-.78c.65,.29,1.33,.51,2.03,.66,.53,.11,1.07,.18,1.61,.2v1.06c.01,1.7-.12,3.4-.4,5.08-.8-.03-1.6-.13-2.38-.31m-5.64-2.78c-.66-.58-1.17-1.3-1.5-2.12,.24-.87,.64-1.68,1.19-2.39,.58-.75,1.27-1.41,2.04-1.96,.25,.45,.57,.85,.95,1.2,.41,.38,.85,.7,1.33,.97-.14,.26-.28,.53-.4,.79-.76,1.54-1.36,3.16-1.77,4.83-.66-.37-1.28-.81-1.84-1.32m8.71-8.09c1.03,.78,1.93,1.73,2.66,2.8,.15,.21,.28,.42,.41,.63-.78,.41-1.65,.64-2.53,.68-.06-1.4-.24-2.78-.54-4.15m-1.73,4.02c-.61-.13-1.21-.32-1.78-.57,.72-1.27,1.58-2.46,2.57-3.53,.34,1.42,.54,2.86,.6,4.32-.47-.02-.94-.08-1.4-.18m-3.71-1.84c-.33-.3-.61-.66-.81-1.06,.84-.5,1.74-.89,2.68-1.16,.55-.17,1.11-.3,1.68-.39-.91,1.08-1.71,2.25-2.38,3.49-.42-.24-.81-.52-1.16-.85m-1.87-2.8v.13c-.1,.41-.1,.84,0,1.25-.92,.63-1.73,1.39-2.4,2.28-.2,.25-.38,.52-.54,.79,.48-1.76,1.51-3.31,2.94-4.44m.81,.32c.12-.48,.4-.9,.79-1.2,1.14-.3,2.35-.22,3.44,.22-.53,.09-1.05,.22-1.57,.37-.94,.28-1.85,.67-2.7,1.16-.03-.19-.03-.37,0-.56m7.06-1.15c.25-.17,.52-.3,.8-.38,.45,.18,.88,.41,1.28,.69-.69-.17-1.4-.27-2.12-.31m-1.4-.93c.35,0,.73,.11,1.11,.19-.26,.14-.51,.3-.75,.49-.1-.24-.22-.46-.36-.68m-.94,.35c-.38-.15-.77-.27-1.17-.36,.31-.03,.63-.05,.94-.05,.15,0,.33,.18,.52,.53l-.29-.12M5,25.02c0,.87,.12,1.73,.36,2.56v.17h0c1.22,3.92,4.84,6.59,8.94,6.59,1.87,0,3.7-.56,5.24-1.62h.05l.25-.19c1.76-1.3,3-3.17,3.52-5.29,0-.11,.06-.2,.08-.31v-.06c.13-.63,.2-1.26,.2-1.9,.02-1.23-.21-2.45-.67-3.59-.09-.22-.33-.32-.55-.24,0,0,0,0-.01,0-.22,.09-.33,.35-.23,.57,0,0,0,0,0,0,.7,1.67,.85,3.53,.41,5.29-.13,.44-.36,.85-.68,1.19v-.46c-.02-1.77-.47-3.52-1.31-5.08,.6-.5,1.01-1.19,1.16-1.96,.04-.24-.11-.46-.35-.51-.24-.04-.46,.11-.51,.35h0c-.09,.51-.35,.98-.74,1.33-.13-.2-.25-.41-.39-.61-.74-1.08-1.64-2.05-2.67-2.86,1.22,.05,2.42,.38,3.5,.95,.21,.12,.47,.05,.59-.15,.1-.16,.08-.36-.04-.5-1.64-2.07-4.19-3.21-6.83-3.04-5.16,.01-9.34,4.19-9.36,9.36"/>
        <g class="cls-1">
          <rect class="cls-2" x="5" y="15.67" width="18.71" height="18.71"/>
        </g>
      </g>
      <path class="cls-2" d="M26.79,30.73v-3.17h1.21c.65,0,1.06,.25,1.06,.85s-.34,.66-.5,.66h0c.41,.02,.73,.37,.71,.78,0,.67-.52,.89-1.06,.89h-1.42Zm1.13-1.85c.34,0,.46-.17,.46-.41s-.17-.4-.54-.4h-.42v.81h.51Zm.06,1.34c.32,0,.55-.1,.55-.44s-.23-.46-.56-.46h-.56v.9h.57Z"/>
      <rect class="cls-2" x="29.61" y="27.54" width=".62" height="3.19"/>
      <path class="cls-2" d="M33.46,30.72c-.11,.01-.22,.01-.33,0-.96,0-.7-1.21-1.38-1.21h-.3v1.19h-.62v-3.17h1.12c.78,0,1.2,.29,1.2,.99,.01,.36-.21,.68-.55,.8,.33,.28,.35,.89,.76,.89h.14v.48l-.04,.03Zm-1.62-1.65c.38,0,.66-.17,.66-.5s-.22-.52-.6-.52h-.43v1.06l.38-.04Z"/>
      <polygon class="cls-2" points="33.73 30.73 33.73 27.54 35.74 27.54 35.74 28.06 34.36 28.06 34.36 28.94 35.45 28.94 35.45 29.44 34.36 29.44 34.36 30.73 33.73 30.73 33.73 30.73"/>
      <path class="cls-2" d="M37.41,30c-.33,0-.59-.27-.59-.59,0-.33,.27-.59,.59-.59,.33,0,.59,.27,.59,.59,0,0,0,0,0,.01,0,.32-.27,.58-.59,.58Z"/>
      <path class="cls-2" d="M41.05,29.93h-1.12l-.26,.79h-.66l1.16-3.17h.65l1.16,3.17h-.65l-.29-.79Zm-.95-.48h.79l-.4-1.15-.39,1.15Z"/>
      <rect class="cls-2" x="42.24" y="27.54" width=".62" height="3.19"/>
      <polygon class="cls-2" points="43.43 30.73 43.43 27.54 45.44 27.54 45.44 28.06 44.05 28.06 44.05 28.94 45.14 28.94 45.14 29.44 44.05 29.44 44.05 30.73 43.43 30.73 43.43 30.73"/>
      <path class="cls-2" d="M26.79,19.9h2.18c.49-.05,.98,.03,1.43,.22,.41,.28,.66,.74,.66,1.24,.02,.32-.11,.64-.34,.87-.19,.19-.42,.32-.67,.4h0c.71,.09,1.25,.7,1.24,1.42,0,.6-.35,1.14-.89,1.39-.47,.17-.97,.25-1.47,.23h-2.14v-5.77Zm1.2,2.37h.87c.35,0,.99,0,.99-.75s-.61-.72-1.06-.72h-.85v1.42l.04,.05Zm0,2.52h.85c.57,0,1.22,0,1.22-.78s-.71-.93-1.35-.93h-.71v1.71Z"/>
      <path class="cls-2" d="M35.16,19.84l2.02,5.83h-1.25l-.42-1.26h-2.31l-.43,1.26h-1.2l2.12-5.83h1.47Zm0,3.63l-.77-2.51-.81,2.51h1.59Z"/>
      <polygon class="cls-2" points="37.86 19.84 39.66 19.84 41.85 24.43 41.85 19.84 43 19.84 43 25.67 41.29 25.67 39.04 20.83 39.04 25.67 37.86 25.67 37.86 19.84 37.86 19.84"/>
      <path class="cls-2" d="M47.33,21.74c0-.2-.1-1.06-.94-1.06s-1.31,.97-1.31,2.17c0,.35,0,2,1.22,2,.58,0,1.06-.47,1.06-1.06h1.31c0,.52-.2,1.02-.56,1.4-.45,.44-1.07,.68-1.7,.66-2,0-2.66-1.48-2.66-2.93,0-1.84,1.06-3.07,2.67-3.07,1.08-.08,2.03,.73,2.11,1.81,0,.04,0,.08,0,.12l-1.2-.04Z"/>
      <path class="cls-2" d="M51.9,19.72c.76-.04,1.5,.25,2.04,.79,.52,.61,.8,1.39,.79,2.19,.03,.82-.23,1.62-.73,2.28-.55,.57-1.32,.87-2.12,.84-.77,.02-1.51-.27-2.06-.8-.49-.59-.74-1.35-.72-2.12-.01-1.61,.7-3.17,2.79-3.17Zm-1.06,4.71c.25,.32,.65,.5,1.06,.47,.42,.02,.83-.18,1.06-.54,.31-.5,.45-1.09,.4-1.67,0-.36-.04-.72-.15-1.06-.14-.63-.69-1.07-1.33-1.06-.41,0-.8,.18-1.06,.5-.32,.5-.47,1.1-.42,1.69-.04,.59,.12,1.18,.44,1.67Z"/>
      <polygon class="cls-2" points="57.6 19.84 59.64 19.84 60.87 24.08 62.2 19.84 64.18 19.84 64.18 25.67 62.94 25.67 62.94 20.67 61.36 25.67 60.33 25.67 58.77 20.67 58.77 25.67 57.6 25.67 57.6 19.84 57.6 19.84"/>
      <path class="cls-2" d="M66.48,19.9v3.5c0,.63,0,1.43,1.26,1.43,.44,.04,.87-.15,1.13-.51,.16-.3,.23-.64,.19-.98v-3.44h1.22v3.59c.02,1.26-.99,2.29-2.25,2.3-.11,0-.21,0-.31-.02-.86,.05-1.69-.35-2.19-1.06-.24-.43-.35-.93-.3-1.43v-3.39h1.25Z"/>
      <polygon class="cls-2" points="71.42 19.84 73.23 19.84 75.41 24.43 75.41 19.84 76.57 19.84 76.57 25.67 74.85 25.67 72.6 20.83 72.6 25.67 71.42 25.67 71.42 19.84 71.42 19.84"/>
      <path class="cls-2" d="M77.56,19.9h1.93c.7-.03,1.4,.15,2,.52,.68,.56,1.05,1.41,.99,2.29,.17,1.36-.72,2.63-2.06,2.93-.35,.06-.7,.08-1.06,.06h-1.8v-5.8Zm1.26,4.85h.5c.48,.06,.97-.08,1.34-.4,.38-.47,.57-1.07,.54-1.67,.11-.77-.33-1.51-1.06-1.79-.43-.1-.87-.13-1.31-.08v3.95Z"/>
      <rect class="cls-2" x="83.25" y="19.83" width="1.25" height="5.84"/>
      <path class="cls-2" d="M88.61,19.84l2.02,5.83h-1.3l-.42-1.26h-2.31l-.43,1.26h-1.2l2.12-5.83h1.52Zm0,3.63l-.83-2.51-.86,2.49,1.68,.02Z"/>
      <polygon class="cls-2" points="91.23 19.85 92.5 19.85 92.5 24.67 95 24.67 95 25.67 91.23 25.67 91.23 19.85"/>
    </g>
  </g>
</svg>