<?xml version="1.0" encoding="utf-8"?>
<!-- Generator: Adobe Illustrator 27.0.0, SVG Export Plug-In . SVG Version: 6.00 Build 0)  -->
<svg version="1.1" id="Capa_2_00000061470793604778543360000008411394221132186506_"
	 xmlns="http://www.w3.org/2000/svg" xmlns:xlink="http://www.w3.org/1999/xlink" x="0px" y="0px" viewBox="0 0 3770.1 1207.7"
	 style="enable-background:new 0 0 3770.1 1207.7;" xml:space="preserve">
<style type="text/css">
	.st0{fill:#4D5566;}
	.st1{fill:#80BC00;}
</style>
<g id="Capa_2-2_00000127003638831205176390000006336264678040111521_">
	<g id="Capa_1-2">
		<g id="Capa_2-2">
			<g id="Capa_1-2-2">
				<path class="st0" d="M3025.2,173.2c-286.1,0-518,209.2-518,467.2c0,110.4,42.7,211.6,113.7,291.5l-76.6,215.2
					c-8.5,23.5,3.6,49.4,27.1,57.9c11.5,4.2,24.2,3.5,35.3-1.9l250.1-121c54.5,16.9,111.3,25.4,168.4,25.4
					c286.1,0,518-209.2,518-467.2S3311.3,173.2,3025.2,173.2L3025.2,173.2z M3025.2,1013.3c-47.7,0-95-7.1-140.6-21.2l-35.5-11
					l-178,95.6c-2.4,1.3-5.3,0.4-6.6-2c-0.7-1.3-0.7-2.7-0.2-4.1l64.1-159.6l-37-41.7c-58.8-66.2-89.9-145.3-89.9-228.9
					c0-205.6,190.1-372.9,423.8-372.9s423.7,167.3,423.7,372.9S3258.8,1013.3,3025.2,1013.3L3025.2,1013.3L3025.2,1013.3z"/>
				<path class="st0" d="M3615.1,59.9h48c6.7-0.2,13.4,1,19.6,3.5c9.7,4.5,14.8,12.9,14.8,25c0.2,5.5-1.2,10.8-4,15.5
					c-2.7,4.1-6.6,7.5-11,9.7c3.6,1.3,6.8,3.5,9.3,6.5c2.5,4,3.7,8.6,3.5,13.3l0.5,14.2c0.1,3,0.4,6,1,9c0.4,2.8,2.2,5.2,4.7,6.5
					v2.3h-17.6c-0.6-1.1-0.9-2.3-1.2-3.4c-0.4-2.8-0.7-5.6-0.8-8.4l-0.8-17.6c-0.3-6.9-2.8-11.5-7.5-13.9c-4-1.6-8.2-2.2-12.5-1.9
					h-31.7v45.2h-14.4L3615.1,59.9L3615.1,59.9z M3661.7,108.3c5.5,0.3,10.9-1.1,15.6-4c3.6-2.7,5.6-7.5,5.6-14.5
					c0-7.5-2.6-12.7-7.9-15.4c-3.6-1.6-7.6-2.4-11.6-2.2h-33.9v36L3661.7,108.3L3661.7,108.3L3661.7,108.3z"/>
				<path class="st0" d="M3656.7,226.7c-62.6,0-113.3-50.8-113.3-113.4S3594.2,0,3656.8,0c62.6,0,113.3,50.8,113.3,113.3
					C3770,175.9,3719.3,226.6,3656.7,226.7 M3656.7,15.8c-53.9,0-97.6,43.6-97.7,97.6c0,53.9,43.6,97.6,97.6,97.7
					c53.9,0,97.6-43.6,97.7-97.6v-0.1C3754.1,59.5,3710.5,15.9,3656.7,15.8"/>
				<path class="st0" d="M342.6,234.6c23.7,4.7,46.7,12,68.7,21.9c17.9,7.7,34.2,18.7,48,32.3c11.8,12.2,17.6,25.1,17.6,38.9
					c0.2,12.5-4.6,24.5-13.3,33.4c-8.5,9.1-20.4,14.2-32.9,14c-12.1,0-28.8-6.5-49.9-19.4c-16.1-10.9-33.5-19.9-51.7-26.8
					c-17.4-6.5-40.4-9.7-68.7-9.7c-39.8,0-72.6,11.4-98.6,34.1s-38.9,52.3-39,88.7c-0.4,18.5,4.2,36.8,13.4,52.9
					c9.4,15.5,22.1,28.8,37.1,38.9c16.2,11.1,33.5,20.5,51.7,28c18.7,7.7,42.2,16.5,70.6,26.2c38.9,13.8,70.6,26.2,94.9,37.1
					c25,11.4,48.5,25.9,69.9,43.2c22.6,18.3,40.9,41.3,53.5,67.5c13.4,27.2,20.1,59.8,20.1,97.9c0.2,35.6-6.4,70.9-19.4,104
					c-13,32.8-32.4,62.6-57.2,87.6c-26.3,26.3-57.8,46.8-92.4,60.2c-36.6,14.5-78,21.8-124.3,21.8c-29,0-57.9-2.7-86.4-7.9
					c-26.6-4.8-52.7-12.1-77.9-21.9c-23.5-9.3-42.2-20.5-56-33.4c-13.8-13-20.6-26.8-20.6-41.3c-0.4-13.9,3.6-27.5,11.6-38.9
					c7.7-10.5,18.9-15.8,33.5-15.8c8.9,0,25.1,6.9,48.7,20.7c22.4,12.9,45.8,24.1,70,33.5c22.3,8.6,48.4,12.8,78.5,12.8
					c53.5,0,96.5-17,129-51.1c32.5-34.1,48.7-75.8,48.7-125.3c0-22.7-4.6-42.2-14-58.4c-9.8-16.7-23-31-38.9-42
					c-16.7-11.7-34.6-21.5-53.5-29.1c-19-7.8-44-17-74.8-27.5c-36.6-12.9-66.8-24.5-90.6-34.7c-24.6-10.5-47.7-24.2-68.7-40.8
					c-21.9-17-39.6-38.9-51.7-63.8c-12.6-25.6-18.9-56.6-18.9-93.1c0.2-27,6.2-53.6,17.7-78c26.5-57,73.7-101.7,132-125.2
					c33.7-13.3,69.6-19.9,105.8-19.4C290.4,226.7,316.7,229.3,342.6,234.6L342.6,234.6z"/>
				<path class="st1" d="M964.1,1050.4c0,17.9-4.9,31.8-14.6,42c-9.7,10.1-22.6,15.2-38.9,15.2s-29.1-5.1-38.9-15.2
					s-14.6-24.1-14.6-42V283.9c0-17.8,4.9-31.8,14.6-42c9.7-10.1,22.6-15.2,38.9-15.2s29.2,5.1,38.9,15.2s14.6,24.2,14.6,42V1050.4
					L964.1,1050.4z"/>
				<path class="st0" d="M1394.1,1061.3c-2.4,17.1-8.5,29-18.2,35.9s-22.7,10.3-38.9,10.3c-33.3,0-49.9-18.2-49.9-54.7
					c0.8-16.3,2.8-32.6,6.1-48.6l118-696c4.8-28.4,14.8-49.1,29.8-62.1c15-12.9,34.3-19.9,54.1-19.4c21.9,0,39,4.3,51.1,12.9
					c12.1,8.6,21.1,23,26.8,43.2l184.9,633.9h2.4l184.9-634.1c6.5-20.3,15.8-34.7,28-43.2c12.2-8.5,28.8-12.8,49.9-12.9
					c19.8-0.4,39.1,6.4,54.1,19.4c15.1,12.9,25,33.6,29.8,62.1l118,696.2c3.3,16,5.3,32.3,6.1,48.7c0,36.4-16.6,54.6-49.7,54.6
					c-13.5,0.5-26.9-3.1-38.3-10.3c-10.1-6.9-16.4-18.8-18.9-35.9l-101-695.9h-2.4l-206.9,698.4c-4.9,16.2-11.8,27.6-20.7,34.1
					c-20.9,12.9-47.3,12.9-68.1,0c-8.9-6.5-15.8-17.8-20.7-34.1l-206.8-698.4h-2.4L1394.1,1061.3L1394.1,1061.3L1394.1,1061.3z"/>
			</g>
		</g>
	</g>
</g>
</svg>
