<?xml version="1.0" encoding="UTF-8"?>
<svg id="Capa_1" data-name="Capa 1" xmlns="http://www.w3.org/2000/svg" viewBox="0 0 100 50">
  <defs>
    <style>
      .cls-1 {
        fill: #888e99;
      }
    </style>
  </defs>
  <g id="Capa_1-2" data-name="Capa 1-2">
    <g id="Capa_1-2-2" data-name="Capa 1-2">
      <g>
        <path class="cls-1" d="M63.1,17c-.43-.32-.9-.56-1.41-.74l.23-1.06c1.25,0,2.77,0,3.92-.07,.96,1.83,3.66,5.22,5.62,7.62-.06-3.27-.26-5.35-.45-5.74-.16-.24-1.12-.53-1.78-.74l.23-1.06h5.4l.24,1.06-1.53,.57c-.2,.96-.3,4.88-.3,10.31l-2.37,.3-1.52-2.34c-1.22-1.66-2.74-3.66-4.05-5.27,.04,3.26,.21,5.4,.39,5.66s1.22,.52,2.01,.74l-.23,1.05h-5.58l-.23-1.09,1.51-.53c.13-1.51,.18-3.02,.15-4.54,0-2.35-.05-3.86-.26-4.15"/>
        <path class="cls-1" d="M80.6,27.24h-5.43l-.23-1.05,1.43-.68c1.03-2.1,2.32-5.35,3.54-8.5l.57-1.68c1.05-.21,2.13-.31,3.2-.3,.16,.67,.36,1.33,.61,1.98,1.27,3.2,2.68,6.98,3.41,8.57l1.6,.61-.23,1.05h-5.94l-.23-1.05,1.51-.52c-.21-.61-.45-1.33-.73-2.12l-4.27,.11c-.2,.65-.39,1.28-.56,1.83l1.96,.68s-.23,1.07-.23,1.07Zm2.58-5.2c-.5-1.41-1.06-2.97-1.65-4.45-.53,1.34-1.07,2.88-1.57,4.37l3.21,.07Z"/>
        <path class="cls-1" d="M36.13,25.65c.11-.98,.16-1.96,.15-2.94v-3.01c0-.93-.05-2.44-.26-2.73-.4-.35-.88-.61-1.4-.74l.24-1.05h2.68c.61,0,2.56-.1,3.45-.1,4.99,0,6.67,2.77,6.67,6.04,0,4.21-2.9,6.29-6.15,6.29-1.1,0-2.74-.15-3.86-.15h-2.79l-.23-1.05s1.49-.54,1.49-.54Zm3.52-.09c.89,.38,1.89,.41,2.8,.09,1.3-.71,2.04-2.29,2.04-4.54,0-1.87-.68-3.34-1.37-3.89-.7-.38-1.49-.56-2.29-.53-.46,0-.93,.02-1.38,.09-.12,.97-.16,1.95-.15,2.93v3.01c0,.94,.04,2.44,.26,2.73l.1,.12"/>
        <path class="cls-1" d="M23.4,25.98c.11-.98,.16-1.96,.15-2.94v-3.03c0-.94-.04-2.44-.26-2.73-.4-.35-.88-.61-1.4-.74l.23-1.05h4.83c2.13,0,3.84-.06,5.22-.15,.2,.26,.38,.54,.54,.83-.13,.84-.47,2.37-.61,2.97-.61,.02-1.23-.01-1.83-.09l-.45-2.01c-.6-.1-1.22-.15-1.83-.15-.48,0-.92,0-1.32,.03-.05,.54-.12,1.74-.12,3.09v.88l3.66-.21,.35,.45c-.07,.45-.16,.98-.26,1.43l-3.74-.14v.61c0,.93,.04,2.44,.26,2.73,.04,.04,.07,.09,.12,.12,.45,.21,.95,.3,1.45,.27,.57,0,1.13-.07,1.68-.18l.61-2.1c.66-.02,1.31,0,1.96,.09,.04,1.15,.04,2.35,0,3.56h-10.52l-.23-1.06s1.51-.49,1.51-.49Z"/>
        <path class="cls-1" d="M50.45,25.66c.11-.98,.16-1.96,.15-2.94v-3.01c0-.94-.05-2.44-.26-2.73-.4-.36-.88-.62-1.4-.75l.23-1.04h4.82c2.13,0,3.83-.06,5.21-.15,.2,.26,.38,.54,.54,.83-.13,.85-.46,2.37-.61,2.97-.61,.02-1.23,0-1.83-.09l-.45-2c-.6-.1-1.21-.15-1.83-.15-.48,0-.91,0-1.32,.03-.05,.54-.12,1.75-.12,3.09v.89l3.66-.21,.35,.45c-.07,.45-.16,.98-.26,1.43l-3.74-.13v.61c0,.93,.04,2.44,.26,2.73,.04,.04,.08,.08,.12,.12,.45,.21,.95,.3,1.45,.27,.56,0,1.12-.05,1.68-.15l.61-2.1c.66-.02,1.31,.01,1.96,.09,.04,1.15,.04,2.35,0,3.56h-10.5l-.23-1.05,1.51-.55h0Z"/>
        <path class="cls-1" d="M10.7,18.76c0-2.23,2.35-3.75,5.05-3.75,1.34-.01,2.65,.32,3.81,.97l.3,.52c-.13,.76-.46,2.15-.61,2.57-.62,0-1.24-.02-1.87-.09-.07-.68-.22-1.34-.43-1.98-.46-.32-1.01-.48-1.57-.45-.43,0-.85,.09-1.25,.26-.21,.35-.31,.76-.3,1.16,0,2.88,6.2,1.94,6.2,6.15,0,2.04-1.98,3.43-4.82,3.43-1.57,.08-3.13-.29-4.51-1.05,0-.94,0-1.87,.07-2.77,.66-.1,1.32-.13,1.99-.09,.13,.67,.32,1.33,.57,1.97,.56,.3,1.2,.45,1.83,.4,.45,0,.9-.07,1.33-.22,.27-.37,.42-.81,.4-1.27,0-2.26-6.2-1.6-6.2-5.76"/>
      </g>
      <g>
        <path class="cls-1" d="M5.45,34.91c-.16-.04-.31-.12-.45-.21l.2-.43c.24,.16,.54,.26,.83,.25,.13,0,.25-.02,.37-.07,.07-.04,.12-.12,.12-.2,0-.05-.02-.11-.07-.15-.05-.04-.12-.07-.18-.09-.1-.03-.2-.06-.29-.08-.16-.04-.32-.09-.47-.14-.12-.04-.23-.12-.31-.21-.09-.12-.14-.26-.13-.4,0-.14,.04-.28,.12-.4,.09-.13,.21-.23,.35-.28,.2-.08,.4-.12,.61-.1,.16,0,.32,.02,.47,.05,.14,.03,.28,.09,.4,.16l-.18,.45c-.21-.12-.45-.19-.7-.2-.13-.01-.25,.02-.36,.08-.07,.04-.12,.12-.12,.21s.05,.16,.13,.19c.13,.05,.27,.1,.41,.13,.16,.04,.32,.08,.47,.13,.12,.04,.23,.12,.31,.21,.09,.11,.14,.25,.13,.4,0,.14-.04,.28-.12,.4-.09,.12-.22,.22-.36,.28-.2,.08-.4,.11-.61,.1-.2,0-.39-.03-.58-.08Z"/>
        <path class="cls-1" d="M9.88,34.48v.47h-1.97v-2.51h1.9v.46h-1.32v.54h1.16v.46h-1.16v.61s1.39-.04,1.39-.04Z"/>
        <path class="cls-1" d="M11.25,34.83c-.2-.11-.37-.27-.49-.46-.12-.2-.18-.43-.18-.67,0-.47,.25-.91,.66-1.13,.21-.11,.45-.17,.7-.16,.21,0,.41,.03,.61,.12,.17,.07,.32,.18,.44,.33l-.37,.34c-.15-.18-.37-.29-.61-.29-.15,0-.29,.03-.41,.1-.12,.06-.22,.16-.29,.28-.07,.13-.1,.27-.1,.41s.04,.29,.1,.41c.07,.12,.16,.22,.29,.29,.13,.07,.27,.1,.41,.1,.24,0,.46-.11,.61-.3l.37,.34c-.12,.15-.27,.26-.45,.34-.2,.09-.4,.12-.61,.12-.24,0-.48-.05-.69-.16Z"/>
        <path class="cls-1" d="M15.37,34.95l-.48-.7h-.53v.7h-.61v-2.51h1.13c.2,0,.4,.03,.58,.11,.16,.06,.29,.18,.38,.32,.09,.14,.14,.31,.13,.48,0,.17-.04,.34-.13,.48-.1,.14-.23,.24-.38,.31l.57,.8s-.65,0-.65,0Zm-.15-1.92c-.12-.09-.26-.12-.4-.12h-.47v.88h.47c.14,0,.28-.03,.4-.12,.09-.08,.15-.2,.14-.32,.01-.12-.03-.24-.12-.32,0,0-.02,0-.02,0Z"/>
        <path class="cls-1" d="M18.8,34.48v.47h-1.95v-2.51h1.9v.46h-1.32v.54h1.16v.46h-1.16v.61s1.37-.04,1.37-.04Z"/>
        <path class="cls-1" d="M20.21,32.91h-.8v-.47h2.19v.47h-.8v2.04h-.58s0-2.04,0-2.04Z"/>
        <path class="cls-1" d="M23.98,34.41h-1.16l-.22,.54h-.61l1.12-2.51h.57l1.12,2.51h-.61s-.21-.54-.21-.54Zm-.18-.45l-.4-.96-.4,.96h.79Z"/>
        <path class="cls-1" d="M27.1,34.95l-.48-.7h-.53v.7h-.61v-2.51h1.11c.21-.01,.41,.03,.61,.11,.16,.06,.29,.18,.38,.32,.09,.14,.14,.31,.13,.48,.01,.35-.2,.66-.52,.79l.56,.8h-.65Zm-.15-1.92c-.12-.09-.26-.12-.4-.12h-.47v.88h.47c.14,0,.28-.03,.4-.12,.09-.08,.14-.2,.13-.32,0-.12-.04-.24-.13-.32Z"/>
        <path class="cls-1" d="M29.01,31.73h.61l-.65,.51h-.44s.48-.51,.48-.51Zm-.45,.72h.61v2.51h-.61s0-2.51,0-2.51Z"/>
        <path class="cls-1" d="M31.83,34.41h-1.18l-.22,.54h-.61l1.12-2.51h.57l1.12,2.51h-.61l-.2-.54Zm-.18-.45l-.43-.96-.4,.96h.82Z"/>
        <path class="cls-1" d="M34.78,32.44h1.14c.25,0,.49,.05,.72,.15,.2,.1,.37,.25,.49,.44,.23,.41,.23,.91,0,1.32-.12,.19-.29,.34-.49,.44-.23,.11-.47,.16-.72,.16h-1.14s0-2.51,0-2.51Zm1.11,2.03c.23,.01,.45-.06,.61-.21,.3-.32,.3-.82,0-1.13-.16-.15-.38-.23-.61-.21h-.53v1.55s.53,0,.53,0Z"/>
        <path class="cls-1" d="M40.11,34.48v.47h-1.94v-2.51h1.89v.46h-1.32v.54h1.16v.46h-1.16v.61s1.37-.04,1.37-.04Z"/>
        <path class="cls-1" d="M42.45,32.44h.61v2.03h1.26v.48h-1.83s-.04-2.51-.04-2.51Z"/>
        <path class="cls-1" d="M46.68,34.41h-1.16l-.23,.54h-.61l1.16-2.51h.57l1.12,2.51h-.61l-.25-.54Zm-.18-.45l-.4-.96-.4,.96h.79Z"/>
        <path class="cls-1" d="M49.65,32.44h1.14c.25,0,.49,.04,.72,.15,.2,.1,.37,.25,.49,.44,.24,.41,.24,.91,0,1.32-.12,.19-.29,.34-.49,.44-.23,.11-.47,.16-.72,.16h-1.14s0-2.51,0-2.51Zm1.09,2.03c.23,.01,.45-.07,.61-.21,.29-.32,.29-.81,0-1.13-.17-.15-.38-.22-.61-.21h-.53v1.55s.53,0,.53,0Z"/>
        <path class="cls-1" d="M55,34.48v.47h-1.96v-2.51h1.89v.46h-1.32v.54h1.16v.46h-1.16v.61s1.39-.04,1.39-.04Z"/>
        <path class="cls-1" d="M56.45,32.91v.66h1.16v.46h-1.16v.91h-.61v-2.51h1.9v.46s-1.29,0-1.29,0Z"/>
        <path class="cls-1" d="M60.52,34.48v.47h-1.94v-2.51h1.9v.46h-1.33v.54h1.16v.46h-1.16v.61s1.37-.04,1.37-.04Z"/>
        <path class="cls-1" d="M63.71,32.44v2.51h-.48l-1.25-1.52v1.52h-.57v-2.51h.48l1.22,1.52v-1.52s.6,0,.6,0Z"/>
        <path class="cls-1" d="M64.99,34.91c-.16-.04-.31-.12-.45-.21l.2-.43c.12,.08,.25,.15,.38,.19,.15,.05,.29,.07,.45,.07,.13,0,.25-.02,.37-.07,.07-.04,.12-.12,.12-.2,0-.05-.03-.11-.07-.15-.05-.04-.11-.07-.18-.09-.1-.03-.2-.06-.29-.08-.16-.04-.32-.09-.47-.14-.12-.04-.23-.12-.32-.21-.09-.12-.13-.26-.13-.4,0-.14,.04-.28,.12-.4,.09-.13,.21-.23,.36-.28,.18-.07,.38-.11,.58-.1,.16,0,.32,.02,.47,.05,.14,.03,.28,.09,.4,.16l-.18,.44c-.21-.12-.45-.19-.69-.2-.13-.01-.25,.02-.36,.08-.07,.04-.12,.12-.12,.21s.05,.16,.14,.19c.13,.05,.27,.1,.41,.13,.16,.04,.32,.08,.47,.13,.12,.04,.23,.12,.31,.21,.09,.12,.13,.26,.13,.4,0,.14-.04,.28-.12,.4-.09,.12-.22,.22-.36,.28-.2,.08-.4,.11-.61,.1-.18,0-.37-.03-.55-.08Z"/>
        <path class="cls-1" d="M69.1,34.41h-1.16l-.22,.54h-.61l1.12-2.51h.57l1.12,2.51h-.61l-.21-.54Zm-.18-.45l-.4-.96-.4,.96h.8Z"/>
        <path class="cls-1" d="M74.37,32.44v2.51h-.46l-1.22-1.52v1.52h-.61v-2.51h.48l1.22,1.52v-1.52s.59,0,.59,0Z"/>
        <path class="cls-1" d="M77.04,34.41h-1.16l-.23,.54h-.61l1.12-2.51h.57l1.12,2.51h-.61l-.21-.54Zm-.18-.45l-.4-.96-.4,.96h.79Z"/>
        <path class="cls-1" d="M79.07,34.83c-.42-.22-.68-.66-.66-1.13,0-.23,.06-.46,.18-.66,.12-.2,.29-.35,.49-.46,.21-.11,.45-.17,.7-.16,.21,0,.41,.03,.61,.12,.17,.07,.32,.18,.44,.33l-.37,.34c-.26-.3-.7-.38-1.04-.19-.12,.06-.22,.16-.29,.28-.07,.13-.1,.27-.1,.41s.04,.29,.1,.41c.07,.12,.16,.22,.29,.29,.13,.07,.27,.1,.41,.1,.24,0,.46-.11,.61-.3l.37,.34c-.12,.15-.27,.26-.44,.34-.2,.09-.4,.12-.61,.12-.24,0-.47-.05-.68-.16Z"/>
        <path class="cls-1" d="M81.62,32.44h.58v2.51h-.58s0-2.51,0-2.51Z"/>
        <path class="cls-1" d="M83.73,34.82c-.2-.1-.37-.27-.49-.46-.12-.2-.18-.43-.18-.66,0-.23,.06-.46,.18-.66,.12-.2,.29-.35,.49-.46,.22-.11,.46-.17,.71-.16,.24,0,.48,.05,.7,.16,.2,.11,.37,.27,.49,.46,.12,.2,.18,.43,.18,.66,0,.47-.26,.91-.67,1.13-.21,.12-.46,.18-.7,.17-.24,0-.49-.05-.71-.17Zm1.1-.43c.12-.07,.22-.16,.29-.29,.07-.13,.1-.27,.1-.41,0-.15-.03-.29-.1-.41-.07-.12-.16-.21-.29-.28-.12-.07-.26-.11-.4-.1-.14,0-.28,.03-.4,.1-.12,.06-.22,.16-.28,.28-.07,.13-.1,.27-.1,.41s.04,.29,.1,.41c.06,.12,.16,.22,.28,.29,.12,.07,.26,.1,.4,.1s.27-.04,.4-.1Z"/>
        <path class="cls-1" d="M88.97,32.44v2.51h-.48l-1.25-1.52v1.52h-.57v-2.51h.48l1.25,1.52v-1.52s.57,0,.57,0Z"/>
        <path class="cls-1" d="M91.64,34.41h-1.16l-.22,.54h-.61l1.12-2.51h.57l1.12,2.51h-.61l-.2-.54Zm-.18-.45l-.4-.96-.4,.96h.79Z"/>
        <path class="cls-1" d="M93.16,32.44h.58v2.03h1.26v.48h-1.83v-2.51h0Z"/>
      </g>
    </g>
  </g>
</svg>