<?xml version="1.0" encoding="UTF-8"?>
<svg id="Capa_1" data-name="Capa 1" xmlns="http://www.w3.org/2000/svg" viewBox="0 0 100 50">
  <defs>
    <style>
      .cls-1 {
        fill: #888e99;
      }
    </style>
  </defs>
  <path class="cls-1" d="M68.57,18.78c-2.05,0-4.68,.85-6.98,2.65l-.29-2.32h-3.83v21.39h2.3c1.58,0,1.81-1.41,1.85-1.91v-14.15c1.3-1.14,3.09-2.09,5.49-2.09,2.98,0,4.79,1.53,4.79,6.47v9.81c.04,.51,.29,1.82,1.75,1.88h2.4v-11.69c0-7.27-2.49-10.03-7.46-10.03"/>
  <path class="cls-1" d="M36.67,40.5h.98c1.4-.09,2.02-1.17,2.24-1.67l.09-.23v-.02s0,0,0,0l7.46-19.48h-2.68c-1.67,.05-2.36,1.92-2.46,2.1l-5.14,15.25-5.24-15.62c-.26-.61-.9-1.71-2.2-1.73h-2.84l7.62,19.87c.26,.53,.89,1.44,2.17,1.52"/>
  <path class="cls-1" d="M51.77,15.34c1.58,0,2.74-.87,2.74-2.45s-1.16-2.45-2.74-2.45-2.65,.85-2.65,2.45,1.14,2.45,2.65,2.45"/>
  <path class="cls-1" d="M51.95,40.5c1.55,0,1.81-1.36,1.85-1.88V19.11h-1.91c-1.65,.13-2.16,1.7-2.24,2.08v19.31h2.3Z"/>
  <path class="cls-1" d="M91.45,18.78c-6.11,0-12.6,3.3-12.6,11.46s5.31,10.57,8.81,10.57c3.13,0,5.31-1.89,5.95-2.78v.03s0,0,0,0c0,0,.49,2.36,2.63,2.44h1.26V19.11c-1.72-.17-3.28-.33-6.05-.33m1.91,16.1c-.52,.98-2.2,2.74-4.87,2.74-2.07,0-5.33-1.37-5.33-7.38s3.19-8.25,8.08-8.25c.66,0,1.7,.08,2.11,.17v12.73Z"/>
  <path class="cls-1" d="M24.52,30.51c-2.44-1.27-5.29-3.5-7.65-7.44l-.6-1.01c1.2-3.47,2.21-6.47,2.68-7.88l5.58,16.33ZM2.5,40.17s4.53,1.34,6.39-1.28c2.16-3.05,9.65-25.77,9.65-25.77h-5.22S2.5,40.17,2.5,40.17Zm24.22,.4c1.17,.54,2.43,.86,3.79,.86l-.03-7.45s-1.54,0-3.76-.67v7.26Zm-6.74-11.01c-1.49-1.3-2.97-2.98-4.27-5.15,0,0,1.4,4.97,4.27,9.54v-4.38Zm6.12,3.55c-1.64-.57-3.57-1.5-5.49-3.03v4.82c1.48,2.17,3.31,4.15,5.49,5.35v-7.14Z"/>
  <polygon class="cls-1" points="62.94 12.39 60.38 12.39 60.38 15.07 59.56 15.07 59.56 9 63.37 9 63.37 9.64 60.38 9.64 60.38 11.74 62.94 11.74 62.94 12.39"/>
  <path class="cls-1" d="M66.81,14.41c-.14,.24-.32,.43-.55,.56-.22,.13-.48,.2-.77,.2-.49,0-.88-.16-1.15-.47-.27-.32-.41-.8-.41-1.47v-2.66h.82v2.67c0,.48,.07,.81,.21,.99,.14,.18,.36,.27,.66,.27s.53-.06,.72-.18c.19-.12,.33-.29,.43-.5v-3.25h.82v4.52h-.74l-.05-.67Z"/>
  <path class="cls-1" d="M69.4,10.56l.06,.67c.15-.24,.34-.42,.57-.56,.23-.13,.48-.2,.77-.2,.49,0,.86,.14,1.13,.43,.27,.29,.4,.72,.4,1.32v2.85h-.82v-2.83c0-.4-.08-.68-.24-.85-.16-.17-.4-.25-.72-.25-.25,0-.47,.05-.64,.15-.18,.1-.32,.24-.42,.43v3.35h-.82v-4.52h.74Z"/>
  <path class="cls-1" d="M73.21,12.9c0-.73,.16-1.31,.47-1.76,.31-.44,.74-.67,1.3-.67,.26,0,.5,.05,.7,.15,.2,.1,.38,.24,.52,.43v-2.48h.82v6.51h-.63l-.12-.57c-.15,.22-.33,.38-.55,.49-.22,.11-.47,.17-.76,.17-.55,0-.98-.2-1.29-.6-.31-.4-.47-.92-.47-1.57v-.09Zm.82,.09c0,.46,.09,.82,.28,1.09,.19,.27,.48,.41,.87,.41,.24,0,.45-.06,.62-.17,.17-.11,.3-.27,.41-.47v-2.11c-.11-.19-.24-.33-.41-.44-.17-.11-.37-.17-.61-.17-.39,0-.69,.16-.87,.49-.19,.32-.28,.75-.28,1.27v.09Z"/>
  <path class="cls-1" d="M80.9,15.07c-.03-.14-.05-.26-.06-.36-.01-.1-.02-.21-.03-.32-.15,.22-.35,.4-.6,.54-.25,.15-.51,.22-.79,.22-.47,0-.83-.12-1.07-.36-.25-.24-.37-.57-.37-.99s.17-.77,.52-1.01c.35-.24,.82-.37,1.42-.37h.89v-.45c0-.26-.08-.47-.24-.63-.16-.15-.39-.23-.68-.23-.27,0-.48,.07-.65,.2-.16,.13-.25,.29-.25,.48h-.78s0-.02,0-.02c-.02-.33,.13-.63,.46-.9s.75-.41,1.27-.41,.92,.13,1.23,.39c.31,.26,.47,.63,.47,1.12v2.17c0,.16,0,.32,.02,.47,.02,.15,.05,.3,.09,.44h-.85Zm-1.36-.6c.3,0,.57-.08,.81-.23,.24-.15,.39-.33,.47-.53v-.73h-.92c-.33,0-.6,.08-.79,.25-.2,.17-.3,.36-.3,.59,0,.2,.06,.36,.19,.48,.13,.12,.31,.17,.56,.17"/>
  <path class="cls-1" d="M84.49,14.52c.25,0,.48-.08,.66-.25,.19-.17,.28-.37,.28-.62h.74v.03c.02,.39-.14,.73-.49,1.04-.35,.3-.75,.45-1.2,.45-.63,0-1.12-.22-1.47-.65-.35-.43-.52-.97-.52-1.61v-.18c0-.63,.17-1.17,.52-1.6,.35-.43,.83-.65,1.47-.65,.5,0,.92,.16,1.24,.47,.32,.31,.48,.7,.47,1.15v.03h-.75c0-.28-.09-.51-.27-.7-.18-.19-.4-.29-.68-.29-.4,0-.7,.16-.88,.47-.18,.31-.28,.69-.28,1.14v.18c0,.45,.09,.84,.27,1.15,.18,.31,.48,.47,.89,.47"/>
  <path class="cls-1" d="M87.93,9.4h-.82v-.84h.82v.84Zm0,5.67h-.82v-4.52h.82v4.52Z"/>
  <path class="cls-1" d="M88.87,12.77c0-.67,.18-1.22,.54-1.65,.36-.43,.85-.65,1.47-.65s1.12,.22,1.48,.65c.36,.43,.54,.98,.54,1.65v.09c0,.67-.18,1.22-.54,1.65-.36,.43-.85,.64-1.48,.64s-1.12-.21-1.48-.64c-.36-.43-.54-.98-.54-1.65v-.09Zm.82,.09c0,.48,.1,.87,.3,1.18,.2,.31,.5,.47,.9,.47s.69-.15,.89-.47,.31-.71,.31-1.18v-.09c0-.47-.1-.87-.31-1.18-.21-.32-.5-.47-.9-.47s-.69,.16-.89,.47c-.2,.31-.3,.71-.3,1.18v.09Zm1.6-4.22h.96v.02s-1.11,1.08-1.11,1.08h-.62l.77-1.11Z"/>
  <path class="cls-1" d="M94.53,10.56l.06,.67c.15-.24,.34-.42,.57-.56,.23-.13,.48-.2,.77-.2,.49,0,.86,.14,1.13,.43,.27,.29,.4,.72,.4,1.32v2.85h-.82v-2.83c0-.4-.08-.68-.24-.85-.16-.17-.4-.25-.72-.25-.26,0-.47,.05-.65,.15-.18,.1-.32,.24-.42,.43v3.35h-.82v-4.52h.74Z"/>
</svg>