<?xml version="1.0" encoding="UTF-8"?>
<svg id="Capa_1" data-name="Capa 1" xmlns="http://www.w3.org/2000/svg" viewBox="0 0 100 50">
  <defs>
    <style>
      .cls-1 {
        fill: #888e99;
      }
    </style>
  </defs>
  <path class="cls-1" d="M58.52,34.35l-.04-1.86c0-.3-.02-.54-.04-.77l.37-.07,.04,.49h.02c.11-.36,.41-.64,.77-.73,.3-.09,.62,.09,.69,.37,0,.02,.02,.04,.02,.06,.11-.37,.41-.67,.81-.77,.34-.07,.66,.13,.73,.45,0,.02,.02,.06,.02,.07,.04,.15,.04,.3,.06,.43l.04,1.56-.43,.09-.04-1.52c0-.11-.02-.22-.04-.34-.06-.26-.19-.41-.47-.36-.32,.07-.6,.51-.58,1.09l.04,1.35-.41,.09-.04-1.54c0-.11-.02-.21-.04-.32-.04-.21-.15-.41-.47-.36s-.62,.56-.6,1.12l.04,1.31-.45,.13Z"/>
  <path class="cls-1" d="M64.41,33.08c-.04-.22-.07-.45-.09-.67h0c-.17,.58-.47,.84-.82,.92-.45,.09-.81-.21-.9-.67-.22-.97,.37-1.95,1.33-2.17h.04c.22-.06,.47-.06,.69-.04l.02,1.37c0,.39,.06,.81,.15,1.2l-.41,.07Zm-.19-2.25c-.11,0-.21,0-.3,.02-.66,.15-1.03,.94-.9,1.63,.06,.28,.22,.54,.54,.47s.69-.64,.67-1.33l-.02-.79Zm.19-1.48l-.54,.9-.34,.07,.36-.86,.52-.11Z"/>
  <path class="cls-1" d="M65.38,32.42c.19,.06,.39,.07,.58,.04,.24-.02,.41-.24,.39-.49v-.02c-.04-.21-.15-.3-.45-.39-.28-.06-.51-.26-.58-.54-.09-.45,.21-.86,.75-.97,.19-.04,.37-.04,.56,.02l-.06,.36c-.15-.04-.3-.06-.47-.02-.22,.02-.39,.22-.37,.45v.02c.04,.19,.19,.28,.43,.36,.32,.09,.56,.28,.62,.56,.11,.52-.26,.92-.79,1.05-.22,.06-.45,.04-.66-.04l.04-.37Z"/>
  <path class="cls-1" d="M68.38,29.61l.54,1.31c.11,.28,.19,.45,.26,.64h.02c.04-.17,.07-.37,.13-.67l.34-1.54,.47-.09-.54,2.12c-.11,.52-.3,1.05-.58,1.52-.15,.26-.37,.47-.64,.6l-.19-.36c.15-.09,.3-.21,.41-.34,.17-.21,.28-.43,.36-.67,.02-.04,.02-.07,0-.11l-1.01-2.27,.43-.13Z"/>
  <path class="cls-1" d="M71.62,31.54l-.04-1.86c0-.3-.02-.54-.04-.75l.37-.07,.04,.49h.02c.11-.36,.41-.64,.77-.71,.3-.09,.62,.09,.69,.37,0,.02,.02,.04,.02,.06,.11-.37,.41-.67,.81-.77,.34-.07,.66,.13,.73,.45,0,.02,.02,.06,.02,.07,.04,.15,.06,.28,.06,.43l.04,1.56-.43,.09-.04-1.52c0-.11-.02-.22-.04-.34-.06-.26-.19-.41-.47-.36-.32,.06-.6,.51-.58,1.09l.04,1.35-.41,.09-.04-1.54c0-.11-.02-.21-.04-.32-.04-.21-.15-.43-.47-.36s-.62,.56-.6,1.12l.04,1.31-.45,.09Z"/>
  <path class="cls-1" d="M77.62,30.11c-.22,.19-.51,.32-.79,.37-.67,.15-1.05-.24-1.18-.81-.17-.77,.22-1.74,1.03-1.91,.49-.09,.81,.13,.88,.49,.15,.66-.56,.99-1.5,1.18,.02,.17,.06,.32,.15,.47,.15,.21,.39,.28,.64,.22s.45-.17,.64-.32l.13,.3Zm-.47-1.76c-.04-.21-.22-.28-.45-.24-.41,.09-.64,.56-.66,.97,.67-.13,1.18-.34,1.11-.73h0Z"/>
  <path class="cls-1" d="M78.6,27.42l.06,2.61c.02,.43-.02,.73-.13,.92s-.3,.34-.52,.37c-.09,.02-.19,.04-.3,.04l-.02-.36c.07,0,.13,0,.21-.02,.22-.06,.36-.22,.36-.77l-.07-2.7,.43-.09Zm-.22-.39c-.13,.04-.26-.06-.3-.19v-.02c-.04-.17,.07-.32,.22-.36,.13-.04,.28,.06,.32,.21v.02c.04,.13-.07,.3-.24,.34t0,0h0Z"/>
  <path class="cls-1" d="M81.48,27.85c.17,.77-.21,1.71-1.07,1.87-.64,.13-1.09-.26-1.22-.82-.17-.82,.24-1.72,1.05-1.89,.71-.15,1.12,.3,1.24,.84m-1.82,.94c.09,.41,.37,.66,.75,.58,.51-.11,.77-.84,.64-1.44-.06-.3-.28-.67-.75-.58-.54,.13-.77,.86-.64,1.44"/>
  <path class="cls-1" d="M82.1,29.31l-.04-1.69c0-.34-.04-.69-.06-.92l.37-.07c.02,.19,.04,.36,.06,.56h.02c.09-.37,.3-.69,.64-.77,.04,0,.07-.02,.11-.02v.45s-.07,0-.11,.02c-.37,.07-.62,.6-.6,1.22l.02,1.16-.41,.06Z"/>
  <path class="cls-1" d="M86.4,28.41c-.04-.22-.07-.45-.07-.66h-.02c-.17,.58-.47,.84-.82,.92-.45,.09-.81-.21-.9-.67-.22-.97,.37-1.95,1.35-2.17h.02c.22-.06,.47-.06,.69-.04l.02,1.37c0,.39,.06,.81,.15,1.2l-.41,.06Zm-.19-2.27c-.11,0-.21,0-.32,.04-.66,.13-1.03,.94-.9,1.63,.06,.28,.22,.52,.54,.47s.69-.64,.67-1.33v-.81Z"/>
  <path class="cls-1" d="M87.6,28.75c.22,.07,.47,.07,.71,.02,.43-.09,.71-.37,.71-1.09v-.39h-.02c-.11,.36-.39,.64-.77,.71-.51,.11-.86-.26-.96-.71-.19-.86,.26-1.84,1.24-2.04,.28-.06,.56-.06,.84,0l.06,2.17c0,.54-.06,.96-.28,1.24-.21,.24-.51,.41-.82,.47-.26,.06-.54,.06-.79-.02l.07-.36Zm1.35-3.13c-.15-.04-.3-.04-.43,0-.64,.13-.92,.88-.81,1.52,.06,.28,.22,.58,.62,.51s.66-.62,.64-1.14l-.02-.88Z"/>
  <path class="cls-1" d="M92.11,24.55l.04,1.86c0,.3,.02,.54,.04,.77l-.39,.07-.04-.49h-.02c-.13,.36-.41,.62-.77,.71-.32,.07-.69-.02-.82-.58-.02-.15-.04-.28-.04-.43l-.04-1.48,.43-.09,.04,1.46c0,.13,0,.24,.04,.37,.06,.26,.21,.41,.51,.36s.64-.52,.62-1.09l-.04-1.35,.45-.09Z"/>
  <path class="cls-1" d="M94.59,26.65c-.04-.22-.07-.45-.07-.67h-.02c-.17,.58-.47,.84-.82,.92-.45,.09-.81-.21-.9-.67-.22-.97,.37-1.93,1.35-2.16h.02c.22-.06,.47-.07,.69-.06l.02,1.37c0,.39,.06,.81,.15,1.2l-.41,.07Zm-.19-2.25c-.11,0-.21,0-.32,.04-.66,.15-1.03,.94-.9,1.63,.06,.28,.22,.52,.54,.47s.69-.64,.67-1.33v-.81Z"/>
  <path class="cls-1" d="M86.66,21.04c.22,0,.43,.06,.62,.17,.21,.11,.37,.26,.47,.47,.11,.19,.17,.41,.17,.64s-.06,.43-.17,.62c-.11,.21-.26,.36-.47,.47-.39,.22-.86,.22-1.26,0-.21-.11-.36-.26-.47-.47-.11-.19-.17-.41-.17-.62,0-.22,.06-.45,.17-.64,.11-.21,.28-.36,.47-.47,.21-.11,.41-.17,.64-.17m0,.21c-.19,0-.36,.06-.52,.13-.17,.09-.3,.22-.39,.39s-.15,.34-.15,.52,.06,.36,.15,.52,.22,.3,.39,.39c.15,.09,.34,.15,.52,.15s.36-.06,.52-.15,.3-.22,.39-.39c.09-.15,.13-.34,.13-.52s-.06-.37-.15-.52c-.09-.17-.22-.3-.39-.39-.15-.07-.32-.13-.51-.13m-.56,1.74v-1.37h.47c.11,0,.22,0,.36,.04,.07,.02,.13,.07,.17,.13,.04,.06,.06,.13,.07,.21,0,.09-.04,.19-.11,.26s-.17,.11-.28,.13c.04,.02,.07,.04,.11,.07,.07,.07,.15,.17,.21,.26l.17,.26h-.26l-.13-.22c-.06-.11-.13-.22-.22-.32-.06-.04-.11-.06-.19-.06h-.13v.58l-.22,.02Zm.22-.75h.26c.09,.02,.19,0,.26-.06,.04-.04,.07-.09,.07-.15,0-.04-.02-.07-.04-.11s-.06-.06-.09-.07c-.07-.02-.15-.02-.22-.02h-.24v.41Z"/>
  <path class="cls-1" d="M75.26,22.88v-3.51c0-.97-.21-1.72-.6-2.25-.36-.51-.9-.88-1.5-1.03-.69-.15-1.39-.15-2.08,.02-1.07,.22-2.21,.75-3.39,1.56v2.77c.84-.84,1.69-1.37,2.49-1.61,.58-.17,1.16-.26,1.44-.13,.45,.21,.43,.54,.43,.96-3.6,1.22-5.4,2.87-5.4,4.95,0,.92,.32,1.65,.96,2.16,.6,.51,1.41,.69,2.17,.51,.43-.09,.84-.28,1.2-.56,.41-.32,.79-.71,1.09-1.14,0,.96,.51,.9,.73,.84s3.09-.66,3.09-.66c-.41-.13-.73-.54-.64-2.87m-3.19-.15c.02,.41-.09,.82-.28,1.2-.17,.32-.45,.54-.81,.62-.28,.07-.58-.02-.79-.21-.22-.22-.36-.52-.34-.82,0-.96,.73-1.67,2.19-2.1l.02,1.31Z"/>
  <path class="cls-1" d="M41.4,25.11l-1.57,.34v4.27c0,.66,.26,.94,.79,.82,.3-.07,.58-.24,.79-.45v2.83c-.62,.36-1.27,.6-1.97,.75-1.09,.22-1.87,.13-2.38-.26s-.77-1.16-.77-2.23v-4.95l-1.27,.26v-2.62s1.05-.22,1.27-.26c-.13-2.49,.52-2.7,1.27-2.87l2.1-.39v2.57l1.72-.36,.02,2.55Z"/>
  <path class="cls-1" d="M64.05,14.41c-.32,.09-1.57,.6-1.59,2.79v11.38l1.89-.39c.34-.09,1.57-.6,1.59-2.77V14.01l-1.89,.39Z"/>
  <path class="cls-1" d="M60.69,19.88c-.66-.9-1.54-1.26-2.64-1.01-.47,.09-.92,.32-1.29,.62-.37,.3-.69,.67-.94,1.09,0-.49,.06-.97-.47-.9-.56,.11-3.15,.67-3.15,.67,.09,.13,.17,.3,.17,.47,.02,.3,0,14.79,0,14.79l2.14-.45c.77-.21,1.37-.32,1.37-2.08v-3.66c.28,.21,.6,.34,.94,.43,.34,.07,.69,.07,1.03,0,.77-.17,1.46-.58,1.97-1.18,.6-.67,1.07-1.46,1.37-2.31,.34-.94,.51-1.95,.51-2.94,0-1.44-.34-2.62-.99-3.54m-2.92,6.32c-.22,.51-.56,.79-.97,.88-.17,.04-.36,.04-.52-.04-.17-.07-.32-.19-.45-.34v-2.53c-.02-.51,.07-.99,.28-1.46,.15-.32,.45-.56,.81-.64,.37-.07,.66,.07,.88,.45s.34,.96,.34,1.76c.02,.66-.09,1.31-.36,1.91"/>
  <path class="cls-1" d="M82.93,23.55c-.82,.88-1.91,1.46-3.11,1.69-1.14,.22-2.32,.15-3.43-.19v-3.19c1.11,.69,2.08,.94,2.89,.77,.3-.06,.58-.21,.81-.41,.21-.19,.34-.45,.34-.73,0-.19-.09-.37-.26-.47-.32-.15-.66-.24-.99-.28-1.16-.21-1.91-.54-2.27-.99-.32-.43-.51-.94-.51-1.48,0-.97,.39-1.84,1.2-2.59,.81-.77,1.82-1.27,2.91-1.5,.97-.21,1.99-.19,2.94,.07v3.09c-.81-.52-1.57-.71-2.32-.56-.28,.04-.52,.15-.75,.32-.17,.13-.26,.34-.24,.56,0,.32,.36,.51,1.09,.58,1.95,.24,2.92,1.07,2.94,2.51,0,.97-.39,1.91-1.22,2.79"/>
  <path class="cls-1" d="M33.57,25.37c-.92-.75-2.1-.99-3.54-.67-1.41,.28-2.66,1.09-3.51,2.27-.9,1.24-1.37,2.74-1.33,4.26,0,1.57,.43,2.77,1.27,3.62,.84,.84,2.02,1.11,3.54,.77,1.46-.28,2.74-1.11,3.6-2.31,.9-1.24,1.37-2.72,1.33-4.26,0-1.69-.45-2.92-1.37-3.67m-2.55,6.64c-.21,.51-.54,.81-.97,.9-.39,.11-.81-.09-.96-.49-.22-.41-.32-1.09-.32-2.01s.11-1.65,.32-2.16,.54-.81,.97-.9,.75,.07,.97,.49,.32,1.09,.32,2.02c-.02,.94-.13,1.63-.34,2.14"/>
  <path class="cls-1" d="M50.27,21.92c-.92-.75-2.1-.97-3.54-.67-1.42,.28-2.68,1.09-3.51,2.27-.9,1.24-1.37,2.74-1.33,4.27,0,1.57,.43,2.77,1.27,3.62s2.02,1.09,3.54,.79c1.44-.28,2.74-1.11,3.6-2.31,.9-1.24,1.35-2.72,1.33-4.26,.02-1.72-.45-2.96-1.37-3.71m-2.55,6.64c-.21,.51-.54,.81-.97,.9-.39,.11-.81-.11-.96-.49-.22-.41-.32-1.09-.32-1.99s.11-1.65,.32-2.16,.54-.81,.97-.9,.75,.07,.97,.49,.32,1.09,.32,2.02-.11,1.61-.34,2.12"/>
  <path class="cls-1" d="M24.27,32.12c-.19-.84-.71-1.63-1.46-1.86,1.29-.69,2.34-1.86,2.34-4.07,0-1.09-.49-2.25-1.2-2.7s-1.54-.52-3.07-.17c0,0-3.99,.86-5.42,1.11,.3,.04,.37,.21,.39,.54s0,13.27,0,13.27l1.91-.37c.88-.21,1.56-.52,1.59-2.02l-.02-4.05,.32-.07c.45-.09,1.12-.13,1.44,.88,.15,.52,.39,2.16,.54,3.19s.86,1.09,1.39,.99,2.57-.51,2.76-.56c-.94-.21-1.27-2.94-1.52-4.11m-3.02-3.69c-.3,.37-.71,.62-1.18,.69l-.71,.15,.02-3,.88-.17c.49-.09,.84-.06,1.07,.13s.36,.51,.36,.97c-.02,.43-.17,.86-.43,1.22"/>
  <path class="cls-1" d="M25.86,17.87h0s-.04-.04-.04-.04c-.6-.56-1.56-.6-1.56-.6-.6-.06-1.22-.06-1.82,.04-9.34,.86-17.45,9.09-17.45,18.99,0,1.18,.22,3.22,.37,4.27l.22-.06c-.07-.6-.17-1.93-.17-2.55,0-9.37,7.69-17.04,16.91-17.04,.62,0,1.87,.09,2.31,.07h.02c.97-.04,1.74-.82,1.74-1.8,.02-.49-.17-.96-.54-1.29,.02,0,0,0,0,0"/>
  <path class="cls-1" d="M28.73,13.04c-.58-.19-1.65-.28-2.34-.28-6.75,0-12.84,3-16.8,7.67-1.41,1.67-2.57,3.58-3.6,6.26l.37-.09c.92-1.86,2.16-3.54,3.64-4.99,3.64-3.49,8.51-5.4,13.55-5.32,.92,.04,1.82,.11,2.72,.24,.75,.09,1.42,.22,1.78,.24h.11c1.05,0,1.91-.84,1.91-1.91,0-.82-.54-1.57-1.35-1.82"/>
  <path class="cls-1" d="M18.55,12.98c1.09-.3,2.74-.52,3.6-.69,.77-.13,1.29-.86,1.16-1.63-.11-.64-.64-1.11-1.27-1.18-.49-.06-1.2,.07-1.93,.24-1.26,.3-2.46,.79-3.56,1.42-3.77,2.25-5.31,4.87-6.34,6.73l.36-.02c2.23-2.32,4.71-3.96,7.99-4.87"/>
</svg>