<?xml version="1.0" encoding="UTF-8"?>
<svg id="Capa_1" data-name="Capa 1" xmlns="http://www.w3.org/2000/svg" viewBox="0 0 100 50">
  <defs>
    <style>
      .cls-1 {
        fill: #888e99;
      }
    </style>
  </defs>
  <path class="cls-1" d="M58.12,23.79c.08-.09,.18-.25,.21-.36,.03-.15-.02-.4-.17-.38-.02,0,.45-.83-.16-.89,.12-.17,.12-.3,.12-.49,0-.17-.09-.21-.17-.17,.02,0,.09-.93-.26-.74,0,0,.2-.85-.26-.73-.02,0,0-.45-.14-.59-.15-.16-.24-.07-.3-.02-.02,0-.07-.97-.45-.64-.02,0-.09-.88-.45-.5,0,0-.07-.19-.1-.31-.02-.09-.07-.2-.12-.27-.09-.14-.26-.16-.35-.06,0,0-.03-.4-.14-.55-.07-.09-.17-.21-.36-.1-.02,0,.02-.77-.45-.5,0,0-.04-.69-.38-.45,0-.26-.28-.59-.5-.41,0,0-.07-.64-.44-.32-.02,.02-.05-.51-.34-.31-.02,.02-.05-.28-.16-.33-.11-.06-.27,.06-.27,.06-.02-.17-.2-.64-.48-.31-.06-.21-.32-.61-.54-.3-.07-.25-.29-.57-.51-.43-.02,.02-.12-.62-.41-.4,0,0-.06-.54-.35-.31-.02,.02,0-.24-.18-.32-.06-.02-.12,.02-.16,.04-.02,.02-.04-.41-.28-.42-.02,0-.07,.05-.08,.09,0,.04-.02,.28-.02,.28-.03-.03-.07-.07-.13,.04-.06,.09-.09,.38-.1,.37-.14-.13-.26,.31-.32,.45,0,0-.08-.07-.12-.06-.17,.07-.2,.25-.28,.4-.23-.29-.5,.31-.5,.31-.02-.07-.12-.06-.15-.03-.13,.07-.28,.38-.28,.38-.06-.12-.12-.1-.2-.07-.15,.05-.28,.38-.28,.38,0-.09-.12-.2-.26-.12-.15,.07-.3,.46-.31,.46-.26-.45-.5,.11-.6,.32-.28-.47-.59,.31-.6,.3-.03-.1-.14-.12-.21-.07-.29,.16-.26,.45-.26,.45-.12-.12-.34,.04-.43,.18-.07,.1-.12,.31-.17,.43-.05-.14-.17-.1-.21-.07-.2,.11-.21,.45-.21,.45-.36-.23-.45,.47-.45,.47-.33-.26-.4,.65-.4,.64-.06-.04-.28-.04-.36,.22-.05,.14-.07,.38-.07,.38-.41-.2-.33,.56-.33,.55-.14-.14-.24,.09-.27,.18-.07,.22-.02,.36-.03,.36-.42-.04-.36,.64-.36,.64-.08-.13-.23-.06-.26,.02-.07,.17-.02,.56-.02,.56-.12-.12-.23,0-.25,.12,0,.16,.02,.48,.02,.48-.18-.1-.21,.02-.24,.07-.06,.14,.07,.55,.07,.55-.15-.05-.26,.06-.27,.21-.04,.3,.18,.65,.18,.65-.44,.09-.02,.75,.1,1.02,0,.02-.09,.02-.11,.2-.07,.37,.36,1.06,.72,1.4-.32,.52,.89,1.05,1.24,1.14,0,0,0,.36,.26,.58,.17,.14,.95,.5,1.3,.45,0,0,0,.36,.21,.46,.3,.15,.78,.29,1.21,.19,.48,.73,1.82,.54,2.75,.26,.94-.28,1.19,.04,1.24,.16,.57,1.28,1.08,4.39,.38,7.14-.05,.19-.1,.24-.1,.25-.22,.03-.38,.28-.36,.55,.02,.19,.13,.59,.34,.69,.07,.02,.17,0,.22-.15,1.45-4.54,.09-7.8,.16-8.18,0-1.24,1.4-.5,2.04-.4,1.22,.17,2.12,.05,2.5-.62,.02-.02,1.36-.07,1.41-.93,0-.02,.37-.06,.57-.24,.12-.12,.36-.26,.26-.52,0,0,.28-.17,.41-.33,.14-.17,.43-.53,.09-.61,0,0,.82-.89,.33-1.01,0,0,.17-.23,.21-.33,.07-.19,.12-.55-.08-.59v-.04Z"/>
  <path class="cls-1" d="M9.97,32.08h-.21c-.05-.81-.36-1.03-1.11-1.03-.3,0-.78-.04-.78,.22v3.93c0,.61,.12,.84,.89,.88v.19c-.44,0-.89-.02-1.33-.03-.42,0-.84,.02-1.27,.03v-.19c.78-.03,.89-.26,.89-.88v-3.93c0-.25-.36-.22-.67-.22-.79,0-1.17,.04-1.21,1.03h-.18v-1.3h4.91l.07,1.3h-.02Z"/>
  <path class="cls-1" d="M11.71,34.71c0,.26,0,.88,.08,1.11,.11,.28,.43,.28,.69,.28v.19c-.39,0-.78-.02-1.16-.03-.4,0-.81,.02-1.2,.03v-.19c.26,0,.59,0,.69-.28,.08-.22,.08-.84,.08-1.11v-2.34c0-.26,0-.88-.08-1.11-.11-.28-.43-.28-.69-.28v-.19c.38,0,.76,.02,1.14,.03,.41,0,.81-.02,1.21-.03v.19c-.26,0-.59,0-.69,.28-.08,.22-.08,.83-.08,1.11v.97h2.86v-.97c0-.26,0-.88-.08-1.11-.11-.28-.43-.28-.69-.28v-.19c.4,0,.78,.02,1.17,.03,.4,0,.79-.02,1.19-.03v.19c-.26,0-.59,0-.69,.28-.08,.22-.08,.83-.08,1.11v2.34c0,.26,0,.88,.08,1.11,.11,.28,.43,.28,.69,.28v.19c-.39,0-.78-.02-1.16-.03-.4,0-.8,.02-1.2,.03v-.19c.26,0,.59,0,.69-.28,.08-.22,.08-.84,.08-1.11v-1.11h-2.86v1.11h0Z"/>
  <path class="cls-1" d="M17.39,32.4c0-.26,0-.88-.08-1.11-.11-.28-.43-.28-.69-.28v-.22h3.98v1.26h-.18c-.15-.97-.57-1.03-1.41-1.03h-.58c-.25,0-.21-.02-.21,.34v1.97c1.1,.05,1.26-.42,1.3-1.02h.18c0,.37-.02,.76-.03,1.13,.02,.34,.02,.69,.03,1.03h-.18c-.12-.88-.54-.92-1.3-.92v1.36c0,.25,0,.64,.14,.84,.21,.29,.7,.31,1.02,.3,.83-.02,1.38-.12,1.48-1.11h.18l-.07,1.34h-4.35v-.19c.26,0,.59,0,.69-.28,.08-.22,.08-.84,.08-1.11,0,0,0-2.29,0-2.29Z"/>
  <path class="cls-1" d="M24.9,34.01l.89-2.34,.88,2.34h-1.78Zm-.1,.26h1.97l.31,.86c.07,.19,.16,.44,.16,.64,0,.32-.39,.31-.62,.31v.19c.39,0,.78-.02,1.16-.03,.38,0,.76,.02,1.14,.03v-.19c-.27-.03-.51-.07-.69-.31-.14-.19-.32-.69-.41-.92l-1.62-4.22h-.27l-1.22,3.26c-.22,.53-.44,1.06-.67,1.59-.16,.4-.34,.54-.77,.59v.19c.28,0,.55-.02,.83-.03,.3,0,.59,.02,.88,.03v-.19c-.24-.02-.65,0-.65-.36,0-.32,.26-.94,.39-1.26l.07-.21h0Z"/>
  <path class="cls-1" d="M29.1,34.61h.18c.16,.83,.59,1.54,1.51,1.54,.63,0,1.14-.36,1.14-1.04,0-.76-.64-1.06-1.21-1.3-.73-.29-1.5-.69-1.5-1.64s.71-1.49,1.59-1.49c.44,0,.85,.16,1.21,.42l.18-.32h.09l.04,1.44h-.18c-.18-.69-.56-1.31-1.34-1.31-.51,0-.93,.34-.93,.88,0,.65,.57,.88,1.07,1.1,.83,.36,1.76,.78,1.76,1.87s-.97,1.61-1.92,1.61c-.55,0-.97-.17-1.4-.5l-.19,.35h-.09v-1.62h0Z"/>
  <path class="cls-1" d="M34.71,31.42c0-.4-.03-.37,.55-.39,.78,0,1.15,.41,1.15,1.22,0,.9-.4,1.26-1.23,1.26-.15,0-.31-.02-.46-.03v-2.06h0Zm0,2.27s.39,.02,.54,.02c.95,0,2.08-.29,2.08-1.5,0-1.06-.97-1.4-1.84-1.44-.39,0-.76,.02-1.15,.03-.4,0-.8-.02-1.21-.03v.19c.26,0,.59,0,.68,.28,.07,.22,.07,.83,.07,1.11v2.33c0,.26,0,.88-.07,1.11-.09,.28-.42,.28-.68,.28v.19c.4,0,.78-.02,1.17-.03,.41,0,.83,.02,1.25,.03v-.19c-.28-.02-.65,.04-.77-.28-.08-.22-.08-.84-.08-1.11v-1.01h0Z"/>
  <path class="cls-1" d="M38.53,32.4c0-.26,0-.88-.08-1.11-.11-.28-.43-.28-.69-.28v-.22h3.98v1.26h-.18c-.15-.97-.57-1.03-1.42-1.03h-.58c-.25,0-.21-.02-.21,.34v1.97c1.1,.05,1.26-.42,1.3-1.02h.18c0,.37-.02,.76-.03,1.13,.02,.34,.02,.69,.03,1.03h-.18c-.12-.88-.54-.92-1.3-.92v1.36c0,.25,0,.64,.14,.84,.21,.29,.7,.31,1.02,.3,.83-.02,1.38-.12,1.48-1.11h.18l-.07,1.34h-4.35v-.19c.26,0,.59,0,.69-.28,.08-.22,.08-.84,.08-1.11v-2.29h0Z"/>
  <path class="cls-1" d="M43.32,31.48c-.25-.36-.44-.49-.88-.5v-.19c.26,0,.5,.02,.76,.03,.21,0,.42-.02,.64-.03l3.38,4.28h.02v-2.3c0-.36,0-.94-.07-1.28-.1-.46-.31-.43-.71-.5v-.19c.3,0,.59,.02,.88,.03,.28,0,.55-.02,.85-.03v.19c-.3,.03-.5,0-.61,.36-.08,.26-.1,1.12-.1,1.45v3.58h-.24c-.17-.22-.36-.45-.53-.69l-3.13-3.93h-.02v2.79c0,.31,0,.93,.12,1.21,.13,.32,.4,.31,.69,.34v.19c-.31,0-.62-.02-.92-.03-.3,0-.59,.02-.89,.03v-.19c.31-.03,.61-.05,.69-.4,.07-.3,.07-.83,.07-1.15v-3.08Z"/>
  <path class="cls-1" d="M53.55,32.37c0-.26,0-.88-.08-1.11-.11-.28-.43-.28-.69-.28v-.19c.39,0,.77,.02,1.16,.03,.4,0,.81-.02,1.21-.03v.19c-.26,0-.59,0-.69,.28-.08,.22-.08,.83-.08,1.11v2.34c0,.26,0,.88,.08,1.11,.11,.28,.43,.28,.69,.28v.19c-.38,0-.77-.02-1.16-.03-.4,0-.81,.02-1.21,.03v-.19c.26,0,.59,0,.69-.28,.08-.22,.08-.84,.08-1.11v-2.34Z"/>
  <path class="cls-1" d="M56.45,31.48c-.25-.36-.44-.49-.88-.5v-.19c.26,0,.5,.02,.76,.03,.21,0,.42-.02,.64-.03l3.38,4.28h.02v-2.3c0-.36,0-.94-.07-1.28-.1-.46-.31-.43-.71-.5v-.19c.3,0,.59,.02,.88,.03,.28,0,.55-.02,.85-.03v.19c-.3,.03-.5,0-.61,.36-.08,.26-.1,1.12-.1,1.45v3.58h-.24c-.17-.22-.36-.45-.53-.69l-3.13-3.93h-.02v2.79c0,.31,0,.93,.12,1.21,.13,.32,.4,.31,.69,.34v.19c-.31,0-.62-.02-.92-.03-.3,0-.59,.02-.89,.03v-.19c.31-.03,.61-.05,.69-.4,.07-.3,.07-.83,.07-1.15v-3.08Z"/>
  <path class="cls-1" d="M61.6,34.61h.18c.16,.83,.59,1.54,1.51,1.54,.63,0,1.15-.36,1.15-1.04,0-.76-.64-1.06-1.21-1.3-.73-.29-1.5-.69-1.5-1.64s.71-1.49,1.59-1.49c.44,0,.85,.16,1.21,.42l.18-.32h.09l.04,1.44h-.18c-.18-.69-.56-1.31-1.34-1.31-.51,0-.94,.34-.94,.88,0,.65,.57,.88,1.07,1.1,.83,.36,1.76,.78,1.76,1.87s-.97,1.61-1.92,1.61c-.55,0-.97-.17-1.4-.5l-.19,.35h-.09v-1.62h0Z"/>
  <path class="cls-1" d="M70.56,32.08h-.21c-.05-.81-.36-1.03-1.11-1.03-.3,0-.78-.04-.78,.22v3.93c0,.61,.12,.84,.89,.88v.19c-.44,0-.89-.02-1.33-.03-.42,0-.84,.02-1.27,.03v-.19c.78-.03,.89-.26,.89-.88v-3.93c0-.25-.36-.22-.67-.22-.79,0-1.17,.04-1.21,1.03h-.18v-1.3h4.91l.07,1.3h-.02Z"/>
  <path class="cls-1" d="M71.71,32.37c0-.26,0-.88-.08-1.11-.11-.28-.43-.28-.69-.28v-.19c.38,0,.77,.02,1.16,.03,.4,0,.81-.02,1.21-.03v.19c-.26,0-.59,0-.69,.28-.08,.22-.08,.83-.08,1.11v2.34c0,.26,0,.88,.08,1.11,.11,.28,.43,.28,.69,.28v.19c-.38,0-.77-.02-1.16-.03-.4,0-.81,.02-1.21,.03v-.19c.26,0,.59,0,.69-.28,.08-.22,.08-.84,.08-1.11v-2.34Z"/>
  <path class="cls-1" d="M78.72,32.08h-.21c-.05-.81-.36-1.03-1.11-1.03-.3,0-.78-.04-.78,.22v3.93c0,.61,.12,.84,.89,.88v.19c-.44,0-.89-.02-1.33-.03-.42,0-.84,.02-1.27,.03v-.19c.78-.03,.89-.26,.89-.88v-3.93c0-.25-.36-.22-.67-.22-.79,0-1.18,.04-1.21,1.03h-.18v-1.3h4.91l.07,1.3h-.02Z"/>
  <path class="cls-1" d="M84.06,34.08c0,1.51-.57,2.29-2.09,2.29-1.43,0-2.13-.52-2.13-2.02v-1.98c0-.26,0-.88-.08-1.11-.11-.28-.43-.28-.69-.28v-.19c.38,0,.76,.02,1.14,.03,.41,0,.81-.02,1.21-.03v.19c-.26,0-.59,0-.69,.28-.07,.22-.07,.83-.07,1.11v2.04c0,1.07,.4,1.67,1.49,1.67s1.66-.59,1.66-1.71v-1.82c0-.29,0-.92-.08-1.19-.12-.35-.43-.38-.74-.38v-.19c.31,0,.62,.02,.92,.03,.3,0,.59-.02,.9-.03v.19c-.26,0-.54,0-.65,.3-.11,.3-.11,.94-.11,1.27v1.54h0Z"/>
  <path class="cls-1" d="M90.24,32.08h-.21c-.05-.81-.36-1.03-1.11-1.03-.3,0-.78-.04-.78,.22v3.93c0,.61,.12,.84,.89,.88v.19c-.45,0-.89-.02-1.33-.03-.42,0-.84,.02-1.27,.03v-.19c.78-.03,.89-.26,.89-.88v-3.93c0-.25-.36-.22-.67-.22-.79,0-1.18,.04-1.21,1.03h-.18v-1.3h4.91l.07,1.3h-.02Z"/>
  <path class="cls-1" d="M91.34,32.4c0-.26,0-.88-.07-1.11-.11-.28-.43-.28-.69-.28v-.22h3.98v1.26h-.18c-.16-.97-.57-1.03-1.42-1.03h-.58c-.25,0-.21-.02-.21,.34v1.97c1.1,.05,1.26-.42,1.3-1.02h.18c0,.37-.02,.76-.03,1.13,.02,.34,.02,.69,.03,1.03h-.18c-.12-.88-.54-.92-1.3-.92v1.36c0,.25,0,.64,.14,.84,.21,.29,.7,.31,1.02,.3,.83-.02,1.38-.12,1.48-1.11h.18l-.07,1.34h-4.35v-.19c.26,0,.59,0,.69-.28,.07-.22,.07-.84,.07-1.11v-2.29h0Z"/>
</svg>