<?xml version="1.0" encoding="utf-8"?>
<!-- Generator: Adobe Illustrator 27.0.0, SVG Export Plug-In . SVG Version: 6.00 Build 0)  -->
<svg version="1.1" id="Capa_1" xmlns="http://www.w3.org/2000/svg" xmlns:xlink="http://www.w3.org/1999/xlink" x="0px" y="0px"
	 viewBox="0 0 86.5 50" style="enable-background:new 0 0 86.5 50;" xml:space="preserve">
<style type="text/css">
	.st0{fill:#888E99;}
</style>
<g>
	<path class="st0" d="M37.3,27.9c-0.4,0-0.7,0.1-0.9,0.1v2.8c0.2,0.1,0.4,0.1,0.7,0.1c1.2-0.1,1.8-0.6,1.8-1.5S38.4,27.9,37.3,27.9
		L37.3,27.9z"/>
	<path class="st0" d="M32.1,25.4v10.7h10.7V25.4C42.9,25.4,32.1,25.4,32.1,25.4z M39.4,30.8c-0.5,0.5-1.3,0.8-2.2,0.8
		c-0.3,0-0.5,0-0.7-0.1v2.8h-0.9v-7.1c0.4-0.1,1-0.1,1.8-0.1c0.9,0,1.5,0.2,2,0.6s0.7,0.9,0.7,1.5S39.8,30.4,39.4,30.8L39.4,30.8z"
		/>
</g>
<path class="st0" d="M43.5,25.4v10.7h10.7V25.4C54.3,25.4,43.5,25.4,43.5,25.4z M51.7,34.2h-1l-2.3-3.6c-0.5-0.7-1-1.6-1.3-2.4
	c0.1,0.9,0.1,1.8,0.1,3v3.1h-0.9v-7.2h1l2.3,3.6c0.5,0.9,1,1.6,1.3,2.4c-0.1-1-0.1-1.9-0.1-3v-3h0.9L51.7,34.2L51.7,34.2z"/>
<path class="st0" d="M32.1,36.8v10.7h10.7V36.8H32.1z M40.2,42.7c0,2.2-1.2,3.1-2.7,3.1s-2.6-0.8-2.6-3v-4.3h0.9v4.3
	c0,1.6,0.7,2.3,1.7,2.3c1.1,0,1.8-0.7,1.8-2.3v-4.3h1L40.2,42.7L40.2,42.7z"/>
<g>
	<path class="st0" d="M43.5,36.8v10.7h10.7V36.8H43.5z M51.2,44.7c-0.7,0.7-1.8,1-3.2,1c-0.7,0-1.2,0-1.7-0.1v-7.1
		c0.6-0.1,1.3-0.2,2-0.2c1.3,0,2.3,0.3,2.9,0.9s1,1.5,1,2.6C52.2,43.1,51.8,44,51.2,44.7L51.2,44.7z"/>
	<path class="st0" d="M48.3,39.2c-0.4,0-0.8,0.1-1.1,0.1V45c0.2,0.1,0.6,0.1,1,0.1c2-0.1,3-1.2,3-3.1C51.2,40.2,50.2,39.2,48.3,39.2
		L48.3,39.2z"/>
</g>
<g>
	<path class="st0" d="M45.8,16.5c0.2-0.1,0.4-0.3,0.5-0.4h-0.2c-0.1-0.1-0.1-0.1-0.1-0.2l-0.4-0.4v-0.1l-0.2,0.1
		c0,0.1,0,0.1,0.1,0.1c0.2,0,0.3,0.1,0.3,0.2c-0.1,0.1-0.3,0.2-0.2,0.4C45.8,16.3,45.7,16.4,45.8,16.5L45.8,16.5L45.8,16.5z"/>
	<path class="st0" d="M45.9,11c-0.1-0.1-0.2-0.4-0.4-0.5c-0.2,0.3-0.5,0.6-0.8,0.9l0.1,0.1c0-0.1,0.1-0.1,0.1-0.2
		c0.1-0.1,0.2,0,0.3,0c0.2-0.1,0.3,0,0.4,0s0.2,0.1,0.2,0.2s0,0.1,0,0.1c0,0.2,0.1-0.1,0.2,0c0.1,0,0.2,0,0.2,0.1s0.2,0.1,0.2,0.1
		s-0.1,0.1-0.1,0.1c0,0.1-0.2,0.1-0.1,0.2c0.2,0.1,0.2-0.1,0.2-0.2c0-0.1-0.1-0.3-0.2-0.4c-0.1,0-0.2-0.1-0.2-0.1
		C45.8,11.2,46.1,11.1,45.9,11L45.9,11z"/>
	<path class="st0" d="M46.6,13.7c-0.2,0.4-0.3,0.7-0.5,1.1c-0.1,0.1-0.2,0.3-0.3,0.4l0.3,0.2v-0.1c0,0,0-0.1,0.1-0.1
		c0.2,0,0.2,0.1,0.2,0.2c0,0.1,0.1,0.1,0.1,0.3c0.7-0.8,1.1-1.8,1.2-2.8h-0.9c0,0.1-0.1,0.4-0.1,0.5l0.1,0.1c0.1,0.1,0.1,0.1,0,0.1
		L46.6,13.7L46.6,13.7z"/>
	<path class="st0" d="M43,8.4c-0.8,0-1.6,0.3-2.3,0.7c-0.2,0.1-0.3,0.2-0.5,0.4c0.2,0.1,0.4,0.4,0.6,0.5V10c0.5-0.4,1.1-0.7,1.8-0.9
		H43C43,9.2,43,8.3,43,8.4z"/>
	<path class="st0" d="M39.9,9.7L39.9,9.7l-0.3,0.4c-0.5,0.7-0.7,1.6-0.8,2.4h0.9c-0.1,0,0,0-0.2-0.1c0.1-0.8,0.4-1.6,1-2.2
		C40.3,10.1,40.1,9.9,39.9,9.7z"/>
	<path class="st0" d="M43.6,14.9c0.1,0,0,0.1,0.1,0.1c0.1-0.1,0.2,0.1,0.3,0c0-0.1,0.2-0.1,0.2-0.1c0.2-0.1,0.3-0.2,0.3-0.4
		c-0.1,0-0.2,0.1-0.2,0.1c-0.2,0-0.2-0.1-0.2-0.1v0.1c-0.1,0.1-0.2,0-0.2,0c0.1,0.1,0,0.1,0,0.1c-0.1-0.1-0.2-0.1-0.2-0.1
		c0-0.1-0.1,0-0.1,0c0,0.1-0.1,0-0.1,0.1c-0.1,0-0.1,0.1-0.2,0.1c-0.1,0-0.2,0.1-0.2,0.1v0.1h0.2C43.3,14.8,43.5,14.9,43.6,14.9
		L43.6,14.9z"/>
	<path class="st0" d="M43.5,16.5c-0.1,0.2-0.1,0.4-0.1,0.7c0.2-0.1,0.5,0,0.7-0.1c-0.1,0-0.2,0-0.2-0.1c-0.2-0.1-0.2-0.2-0.2-0.3
		c0-0.1,0.1-0.1,0.1-0.2C43.8,16.4,43.5,16.6,43.5,16.5L43.5,16.5z"/>
	<path class="st0" d="M46.5,16.2c-0.1,0.1-0.2,0.2-0.4,0.4c-0.2,0.2-0.5,0.2-0.6,0.5c-0.2,0.1-0.2,0.2-0.3,0.3
		c-0.1,0.1-0.2,0.1-0.3,0.2c-0.3,0.2-0.4-0.1-0.7-0.2l-0.4,0.1c-0.2,0-0.3,0.1-0.4,0c0.1,0.3,0.1,0.6,0.1,0.9
		c1.4-0.1,2.7-0.6,3.6-1.5L46.5,16.2L46.5,16.2L46.5,16.2z"/>
	<path class="st0" d="M44.4,9.6c-0.3-0.1-0.7-0.1-1-0.2v0.9h0.1c0.5,0.1,1,0.2,1.3,0.5v0.1l0.5-0.5l0.2-0.1h-0.1
		C45.1,10,44.7,9.8,44.4,9.6z"/>
	<path class="st0" d="M45.4,14.9c0,0.1-0.1,0.1-0.2,0.1c-0.2-0.1-0.4-0.1-0.7-0.1c0.1,0.1,0.2,0.1,0.3,0.1c0.1,0.1,0.2,0.2,0.3,0.1
		C45.3,14.9,45.4,15.1,45.4,14.9c0.1-0.1,0.1-0.2,0.2-0.2c0.1,0.1,0.1,0.1,0.1,0.2c0.1-0.1,0.2-0.2,0.2-0.3c0.2-0.2,0.4-0.6,0.4-0.9
		c-0.1,0-0.2,0.1-0.2,0.1c-0.2,0-0.2,0.1-0.3,0c-0.1-0.1-0.1,0-0.1,0c0,0-0.1,0.1-0.2,0.1s-0.1,0-0.1-0.1v0.1
		c-0.1,0.1-0.1,0.1-0.2,0.2c-0.1,0.1-0.2,0-0.2,0.1c0,0.1-0.2,0.1-0.2,0.1c0.1,0.1,0.2,0.1,0.2,0c0.1,0.1,0.1-0.1,0.2-0.1
		c0.1,0,0.2-0.1,0.2,0s0.1,0.2,0.1,0.3c-0.1,0.1,0,0.2-0.1,0.3C45.5,14.7,45.4,14.8,45.4,14.9L45.4,14.9z"/>
	<path class="st0" d="M46,12.9l0.2,0.1c0.2,0,0.1,0.1,0.2,0.2c0.2,0.1,0.2,0.2,0.2,0.3v-0.1c0-0.1,0-0.4,0.1-0.5
		C46.4,12.9,46.1,12.9,46,12.9z"/>
	<path class="st0" d="M43,10.3V9.5H43c-0.7,0-1.4,0.4-2,0.8c0.3,0.1,0.4,0.4,0.7,0.6c0.1,0,0.1-0.1,0.1-0.1c0.3-0.1,0.6-0.4,0.9-0.4
		C42.7,10.3,42.9,10.3,43,10.3L43,10.3z"/>
	<path class="st0" d="M42.9,14.8c0-0.1-0.1-0.1,0-0.2c0-0.1,0.1-0.1,0.2-0.1v-0.1c-0.1,0-0.1-0.1-0.1-0.1s0.1,0,0.1-0.1
		c-0.1-0.1,0.1-0.1,0-0.1l0.1-0.1c-0.2,0.1-0.4,0-0.5-0.1c-0.1,0-0.2-0.1-0.2-0.1c-0.1,0.2-0.4,0.4-0.5,0.6
		C42.2,14.6,42.6,14.7,42.9,14.8L42.9,14.8z"/>
	<path class="st0" d="M42.1,13.4c-0.1,0.1-0.1,0.1-0.2,0.2C42.1,13.6,42.1,13.5,42.1,13.4C42.2,13.5,42.1,13.5,42.1,13.4z"/>
	<path class="st0" d="M43,17.6L43,17.6c-1.2-0.1-2.3-0.5-3.1-1.3l-0.6,0.6c1,0.8,2,1.3,3.2,1.5c0.2,0,0.4,0,0.6,0.2L43,18.5L43,17.6
		L43,17.6z"/>
	<path class="st0" d="M40.7,15.3C40.7,15.3,40.7,15.4,40.7,15.3c0.3-0.2,0.5-0.4,0.8-0.7l-0.2-0.1c-0.2-0.4-0.4-0.7-0.4-1l-0.1-0.1
		c0,0.1-0.1,0.2-0.1,0.3c-0.1,0-0.1-0.1-0.2-0.1c0-0.1-0.1-0.1,0-0.1h0.1v-0.1c0-0.1-0.1-0.1,0-0.2c0.1,0,0.2,0,0.2,0.1
		c0.1,0,0.1-0.1,0.2-0.1c0-0.1,0.1-0.1,0-0.1c0.1-0.1,0-0.2,0-0.4c0-0.1-0.2-0.1-0.2-0.1c-0.2,0.1,0.1,0.2,0,0.4
		c0,0.1-0.1,0.1-0.2,0.1v0.1c-0.1,0.1-0.2,0-0.2,0.1s0,0.1,0,0.1c-0.2,0.2,0.2,0.3,0.2,0.4c0.1,0.1-0.1,0.3,0.1,0.4
		c0,0.1,0,0.4,0.2,0.6v0.1C40.7,15,40.6,14.9,40.7,15.3L40.7,15.3z"/>
	<path class="st0" d="M39.3,13.4c0.2,0,0.2-0.2,0.3-0.2c0.1,0,0.2,0.1,0.2,0.1c-0.1-0.1-0.1-0.3-0.1-0.4h-0.1c-0.3,0-0.5,0.1-0.8,0
		v0.1l0.1,0.6c0.1,0.1,0.2,0.4,0.2,0.6c0-0.1,0-0.1,0.1-0.1c-0.1-0.1,0.1-0.1,0.1-0.2C39.2,13.6,39.2,13.4,39.3,13.4L39.3,13.4z"/>
	<path class="st0" d="M41.7,13.6c-0.1,0-0.1-0.1-0.1-0.1c0.1,0,0-0.1,0-0.1h-0.2c0-0.1-0.2-0.1-0.3-0.1c0.1,0.2,0.2,0.4,0.2,0.5
		c0.1,0.1,0.2,0.2,0.2,0.4c0-0.1,0.2-0.2,0.2-0.3v-0.1c-0.1-0.1,0-0.1-0.1-0.2C41.7,13.5,41.8,13.6,41.7,13.6z"/>
	<path class="st0" d="M41.6,14.6c-0.2,0.2-0.4,0.4-0.6,0.6c0.1,0,0.2,0.1,0.2,0.1c0.4,0.4,1,0.5,1.5,0.7l-0.2-0.1
		c-0.1-0.1-0.2-0.2-0.2-0.4c0.2,0,0.2-0.1,0.2-0.2c0.1-0.1,0.2-0.1,0.2-0.1c-0.3,0.1-0.5-0.1-0.7-0.2C41.8,14.8,41.7,14.7,41.6,14.6
		L41.6,14.6z"/>
	<path class="st0" d="M41.5,11.1c-0.2-0.1-0.4-0.4-0.7-0.6c-0.4,0.4-0.7,1-0.8,1.6c0,0.1,0,0.3-0.1,0.4h0.4c-0.1,0,0-0.1-0.1-0.1
		c0-0.1,0-0.1,0.1-0.2c0-0.1,0.2-0.2,0.2-0.3s0.2,0,0.2-0.1c0.1,0,0-0.1,0-0.1c0.1-0.1,0.2-0.1,0.2-0.1l0.2-0.2
		C41.3,11.4,41.3,11.2,41.5,11.1z"/>
	<path class="st0" d="M48.1,12.9L48.1,12.9c-0.1,1.1-0.4,2-1,2.7c-0.2,0.1-0.2,0.3-0.4,0.4l0.7,0.7v-0.1c0.9-1,1.4-2.2,1.5-3.6
		L48.1,12.9L48.1,12.9L48.1,12.9z"/>
	<path class="st0" d="M43,16.3L43,16.3c-0.8-0.1-1.4-0.3-2-0.7c0,0.1,0.1,0.1,0.1,0.2s-0.2,0.1-0.2,0.1c-0.2,0-0.3,0.2-0.4,0.2
		s-0.2-0.1-0.3-0.1c0.8,0.7,1.8,1.2,2.9,1.3L43,16.3L43,16.3z"/>
	<path class="st0" d="M40.1,13.4c0-0.1-0.1-0.1-0.1-0.1c0.1-0.1,0-0.3,0.2-0.4c-0.1,0.1-0.2,0.1-0.2,0.1c0,0.2,0.1,0.4,0,0.6
		C40.1,13.5,40.1,13.4,40.1,13.4L40.1,13.4z"/>
	<path class="st0" d="M44.1,14.2C44.1,14.2,44.1,14.3,44.1,14.2c0.1,0,0.2,0,0.2-0.1C44.2,14.1,44.2,14.2,44.1,14.2L44.1,14.2z"/>
	<path class="st0" d="M38.5,12.4c0.1-0.9,0.4-1.8,0.9-2.5c0.2-0.1,0.2-0.3,0.3-0.4c-0.2-0.1-0.4-0.4-0.6-0.6V8.8
		c-0.8,1-1.3,2-1.5,3.3v0.5h0.9L38.5,12.4L38.5,12.4z"/>
	<path class="st0" d="M41.8,11.2h0.2c0.1,0.1,0.2,0.1,0.2,0.1c0,0-0.1,0-0.1,0.1h0.1c0.1,0,0.1-0.1,0.1-0.1c0.1-0.1,0.1,0.1,0.2,0.1
		c0.1-0.1,0.2-0.1,0.2,0c0,0,0.2,0,0.2-0.1c0.1-0.1,0-0.2,0.2-0.3v0.1c0.1,0.1,0.2-0.1,0.3,0.1C43,11.1,43,10.9,43,10.6
		C42.6,10.7,42.1,10.8,41.8,11.2L41.8,11.2z"/>
	<path class="st0" d="M39,16.6l0.6-0.6h0.1c-0.2-0.1-0.2-0.2-0.3-0.3l-0.2-0.2v-0.1c-0.2,0.1-0.2,0-0.2-0.1s0-0.2-0.2-0.2l-0.1-0.1
		c-0.2,0-0.2-0.1-0.3-0.1V15c-0.1,0.1-0.2-0.1-0.2-0.1h-0.1c-0.1,0-0.2-0.1-0.2-0.2c-0.1-0.1,0-0.3,0-0.4c0,0,0.1,0,0.1-0.1
		s0.1-0.1,0.2-0.1s0.1,0.1,0.1,0.1s0.1,0,0.1-0.1c0.1-0.1,0.2-0.1,0.2-0.1c0,0,0,0,0.1,0c-0.1-0.3-0.1-0.6-0.1-0.9V13h-0.9
		c0.1,1,0.3,1.8,0.7,2.6C38.5,15.9,38.9,16.3,39,16.6L39,16.6z"/>
	<path class="st0" d="M40,9.2c0.9-0.7,1.8-1.2,3-1.3V7.1c-1.2,0-2.2,0.4-3.2,1.1c-0.2,0.1-0.4,0.3-0.5,0.4L40,9.2
		C40,9.3,40,9.2,40,9.2z"/>
	<path class="st0" d="M46.6,9.5c0.1,0,0.1,0.1,0.2,0.1c0.2,0.1,0.3,0.3,0.4,0.4c0.2,0.2,0.4,0.4,0.4,0.7c0.2,0.6,0.4,1.2,0.4,1.9h1
		c-0.1-0.1-0.1-0.2-0.1-0.3c-0.2-1.3-0.7-2.5-1.6-3.5C47.1,9,46.9,9.2,46.6,9.5C46.6,9.5,46.6,9.5,46.6,9.5z"/>
	<path class="st0" d="M32.1,2.5v22.2h22.2V2.5H32.1z M51.2,14.1c-0.3,0.4-0.7,0.9-1,1.3c0-0.4,0.1-0.8-0.1-1.1
		c-0.2-0.7-0.4-1.5-0.5-2.3v-0.3c0.2,0.8,1,1.4,1,2.3c0,0.2,0,0.3,0,0.4c0.1-0.4,0.1-0.8,0.3-1.2c0.3-0.6,0.6-1.2,0.4-1.9
		C51.8,12.1,51.6,13.2,51.2,14.1z M50.7,9.5c0.5,0.7,0.7,1.9,0.2,2.7c-0.2,0.4-0.2,0.7-0.3,1.1c0-0.1,0-0.1-0.1-0.2
		c-0.2-0.8-1-1.3-1.3-2.2c-0.1-0.2-0.2-0.5-0.2-0.7c0.3,0.6,1.2,1,1.4,1.6c0.1,0.1,0.1,0.4,0.2,0.6c-0.1-0.7-0.1-1.4,0-2.2
		c0-0.4-0.1-0.7-0.2-1C50.6,9.1,50.6,9.3,50.7,9.5L50.7,9.5z M50.4,9.3c0.2,0.6-0.1,1.3,0.1,1.9c-0.4-0.7-1-1-1.5-1.5
		c-0.3-0.3-0.4-0.7-0.5-1.1c0.3,0.7,1,0.8,1.5,1.4c0.2,0.1,0.2,0.3,0.3,0.4c-0.2-0.5-0.3-1.2-0.5-1.7c-0.1-0.3-0.2-0.5-0.4-0.7
		C49.7,8.1,50.2,8.8,50.4,9.3z M48.8,7.9c0.4,0.4,0.7,0.9,0.7,1.4l0.1,0.1C49,9,48.4,8.4,48,7.8l-0.5-0.5C48,7.5,48.4,7.5,48.8,7.9
		L48.8,7.9z M40.6,7.5c0.8-0.4,1.7-0.7,2.7-0.7c2.2,0,4.4,1.3,5.3,3.3c0.6,1.2,0.8,2.8,0.4,4.2c-0.4,1.6-1.7,3.2-3.3,3.9
		c-1.7,0.9-4.2,0.7-5.8-0.4c-2.2-1.5-3-4.1-2.4-6.6C37.9,9.7,39.1,8.1,40.6,7.5L40.6,7.5z M38.8,7.3c-0.4,0.4-0.7,0.9-1,1.3
		c-0.3,0.4-0.7,0.6-1,0.9C37,9.2,37,8.8,37.2,8.4C37.6,7.8,38.2,7.6,38.8,7.3L38.8,7.3z M36.4,8.6c0.2-0.2,0.5-0.4,0.8-0.5
		c-0.6,0.4-0.5,1.1-0.7,1.7l-0.2,0.7c0.1-0.2,0.3-0.5,0.5-0.7c0.4-0.3,1-0.5,1.3-1.1c0,0.8-0.7,1.4-1.3,1.9
		c-0.3,0.2-0.5,0.5-0.7,0.8v-0.6C36,10,36,9.2,36.4,8.6z M35.9,9.2c-0.4,0.7-0.1,1.6-0.1,2.3v0.8c0-0.1,0-0.1,0.1-0.3
		c0.1-0.7,0.7-1.1,1.2-1.6c0.1-0.1,0.2-0.2,0.2-0.4c-0.1,0.3-0.2,0.7-0.3,1c-0.4,0.7-1.1,1.3-1.2,2.2c-0.1-0.8-0.6-1.4-0.6-2.3
		C35.2,10.3,35.5,9.7,35.9,9.2L35.9,9.2z M35,12c0-0.2,0.1-0.4,0.2-0.7c-0.2,0.9,0.4,1.6,0.7,2.4c0.1,0.3,0.1,0.7,0.2,0.9
		c-0.3-0.9,0.2-1.6,0.6-2.3c0.1-0.1,0.2-0.4,0.2-0.6c0.1,0.4-0.1,0.8-0.1,1.3c-0.1,0.5-0.3,1-0.4,1.5c-0.1,0.3-0.1,0.7,0,1h-0.1
		c-0.4-0.6-1-1.1-1.2-1.8C35,13.2,34.8,12.6,35,12L35,12z M34.9,13.8c0.1,1,1.1,1.5,1.6,2.3c0.2,0.1,0.2,0.4,0.4,0.5
		c0-0.1-0.2-0.2-0.2-0.3c-0.2-0.4-0.2-0.7-0.2-1.2c0.1-0.5,0.2-1,0.2-1.5c0.4,1,0.3,2.1,0.5,3.1c0.1,0.2,0.2,0.4,0.3,0.6
		c-0.9-0.6-2.1-1.2-2.4-2.3C34.9,14.7,34.9,14.3,34.9,13.8L34.9,13.8z M35.4,16c0.5,1.1,1.7,1.2,2.5,1.9c0.2,0.1,0.3,0.2,0.5,0.3
		c-0.2-0.1-0.4-0.4-0.5-0.6c-0.5-0.7-0.3-1.6-0.7-2.4c0.3,0.4,0.6,0.8,0.8,1.3c0.3,0.7,0.4,1.5,1.1,2.1c-0.7-0.2-1.6-0.1-2.3-0.7
		C36.2,17.7,35.6,16.9,35.4,16z M36.7,18.2c0.8,0.9,2.1,0.6,3.1,0.8c0.2,0,0.3,0.1,0.4,0.1c-0.2-0.1-0.3-0.1-0.4-0.1
		c-0.8-0.3-1-1.2-1.4-1.8c0.6,0.4,1,0.9,1.5,1.4c0.4,0.3,0.8,0.5,1.3,0.6c-0.2,0.1-0.3,0-0.4,0.1c-0.9,0.2-1.8,0.6-2.7,0.2
		C37.6,19.2,37,18.7,36.7,18.2L36.7,18.2z M47.4,20.3c-0.9,0.3-1.8,0-2.5-0.5c-0.3-0.1-0.5-0.4-0.9-0.4h-0.4
		c0.7,0.3,1.3,0.7,1.8,1.3c-0.1,0.1-0.2,0.2-0.4,0.3c-0.5-0.6-1.2-1.2-1.8-1.5c-0.2,0-0.3,0.1-0.4,0.1c-0.6,0.4-1.1,0.8-1.5,1.3
		L41,20.6c0.6-0.6,1.2-1,1.8-1.3c-0.7-0.2-1.1,0.4-1.6,0.7c-0.6,0.4-1.5,0.6-2.2,0.3c-0.4-0.1-0.7-0.4-1-0.7
		c0.6,0.4,1.4,0.4,2.1,0.1c0.9-0.4,1.8-0.9,2.8-0.6c0.2,0,0.3,0.1,0.4,0c0.7-0.2,1.6-0.1,2.3,0.3l0.7,0.3c0.7,0.2,1.5,0.1,2-0.2
		C48.2,19.8,47.7,20.1,47.4,20.3L47.4,20.3z M48.4,19.3c-1,0.4-2-0.1-3-0.2h-0.2c0.4-0.1,0.9-0.2,1.3-0.6c0.5-0.5,1-1,1.6-1.5
		c-0.4,0.6-0.5,1.4-1.2,1.7c-0.2,0.1-0.4,0.1-0.6,0.2c0.3,0,0.5-0.1,0.7-0.1c1-0.1,2.1,0,2.8-0.8C49.5,18.6,49,19.2,48.4,19.3
		L48.4,19.3z M48.9,18.3c-0.5,0.1-1,0.1-1.5,0.4c0.8-0.7,0.8-1.9,1.3-2.7c0.2-0.2,0.3-0.5,0.5-0.7c-0.4,0.7-0.2,1.5-0.6,2.2
		c-0.2,0.3-0.4,0.5-0.6,0.7c0.1,0,0.2-0.1,0.2-0.1c0.7-0.7,1.5-0.8,2.2-1.3c0.3-0.2,0.5-0.5,0.7-0.8C51,17,49.9,18,48.9,18.3
		L48.9,18.3z M50.1,16.5c-0.4,0.2-0.8,0.5-1.2,0.8c0.6-1,0.3-2.3,0.7-3.3l0.2-0.4c-0.1,0.7,0.2,1.2,0.2,1.9c0,0.4-0.2,0.7-0.4,1.1
		c0.3-0.4,0.5-0.7,0.8-1.1c0.5-0.5,1-1,1.1-1.7C51.8,14.9,51.1,15.9,50.1,16.5z"/>
	<path class="st0" d="M43.5,11.3c0-0.1,0.2-0.1,0.2-0.2c0.1-0.1,0.2,0,0.2,0c0.1,0.1,0,0.1,0,0.2c-0.1,0.1-0.3,0.1-0.4,0.3
		c0.1,0,0.1-0.1,0.2-0.1s0.2,0.1,0.2,0.1c0.1,0.1,0.1,0,0.2,0c0.1-0.2,0.4-0.2,0.4-0.4h-0.1c0,0-0.1,0-0.1-0.1s0.1-0.1,0.2-0.1
		c-0.2-0.1-0.5-0.3-0.8-0.4c-0.2,0-0.2,0-0.4-0.1c0.1,0.1,0.1,0.4,0.1,0.6L43.5,11.3L43.5,11.3z"/>
	<path class="st0" d="M43.6,7.7L44,7.6c0.2,0,0.4,0,0.4,0.2c-0.1,0.1-0.2,0.2-0.4,0.1c-0.2,0-0.4,0.2-0.6-0.1v0.2h0.1
		c0.7,0.1,1.3,0.3,1.8,0.6c0.1,0,0.2-0.1,0.4,0c0.2-0.1,0.2,0.1,0.3,0.1c0.2,0.1,0.3,0.2,0.3,0.4c0.1,0.1,0.2,0.1,0.2,0.1
		c0.1-0.2,0.3-0.4,0.4-0.5L47,8.6c-0.9-0.8-1.9-1.3-3.1-1.5c-0.2,0-0.4,0-0.5-0.2v0.7l0.1,0.1C43.5,7.7,43.6,7.7,43.6,7.7L43.6,7.7z
		 M45.8,8.3c0.1-0.1,0.2,0.1,0.2,0.1s0.2,0,0.2,0.1s0.1,0.1,0,0.1C46.1,8.6,46,8.4,45.8,8.3C45.8,8.3,45.8,8.3,45.8,8.3z"/>
	<path class="st0" d="M43.2,11.8c-0.1-0.1-0.2-0.1-0.4-0.1c0.1,0.1,0.1,0.1,0.1,0.2c-0.1,0.1-0.2,0.1-0.4,0.2
		c-0.1,0.1-0.1,0.1-0.2,0.1c0,0.1-0.2,0.1-0.1,0.2c-0.1,0.1-0.1,0.3-0.1,0.4c-0.2,0.1-0.2-0.1-0.2-0.2v0.1c0,0.1-0.1,0-0.1,0h-0.1
		c0,0.1-0.1,0.1-0.1,0.2c0,0-0.1,0-0.1,0.1c0.1,0,0.2-0.1,0.3-0.1c0.1,0.1,0.2,0,0.2,0s0.1,0.1,0.1,0.1c0,0,0.1-0.1,0.1-0.1
		c0-0.1,0-0.1,0.2-0.1v0.1c0.1,0.1-0.1,0.1-0.1,0.2c-0.1,0.1,0,0.1-0.1,0.1c0,0,0,0.1,0.1,0.1c0.1-0.1,0.1-0.2,0.2-0.2
		c0.1-0.1,0-0.1,0.1-0.2c0.2,0,0.3,0,0.4,0.1c0,0.1-0.1,0.1,0,0.1c0,0.1,0,0.1-0.1,0.2c0.1,0.1,0,0.1,0,0.1
		c-0.1,0.1-0.2,0.1-0.4,0.1c0.2,0.1,0.4,0.1,0.7,0.1c0.2,0,0.1-0.1,0.2-0.2c0.1-0.2,0.2-0.1,0.4-0.1c0-0.1,0.1-0.2,0.1-0.3
		c-0.1-0.1-0.1-0.1-0.1-0.2c-0.1-0.1-0.1-0.2-0.2-0.2v-0.1c0-0.1,0.1-0.1,0.1-0.1c-0.1-0.1-0.1-0.1-0.1-0.2c-0.2,0-0.2-0.1-0.2-0.1
		c0-0.1-0.1-0.1-0.2-0.1c-0.2,0.1-0.2-0.1-0.3-0.1v-0.1L43.2,11.8L43.2,11.8z"/>
	<path class="st0" d="M43.6,9.2c0.6,0.1,1.2,0.3,1.6,0.7c-0.1-0.1-0.2-0.1-0.2-0.2C45.2,9.6,45,9.5,45,9.5h0.1
		c0.2,0.1,0.2,0.2,0.3,0.3c0.1,0,0.1,0.1,0.2,0.1c0.1,0.1,0,0.1,0.1,0.2c0,0.1,0.2,0.3,0.2,0.4h0.1l0.2,0.2c-0.1,0.1,0,0.1,0,0.1
		c0.1,0,0.2-0.1,0.2-0.1c0.2,0.1,0,0.1,0,0.2c0.1,0,0.2-0.1,0.2,0s-0.1,0.1-0.1,0.1s0,0.1,0.1,0.1s0.1,0,0.1,0.1
		c0.2,0.2-0.1,0.4,0,0.5s0,0.2-0.1,0.3c0,0.1-0.1,0.2-0.2,0.3h-0.2c-0.1,0.1,0.1,0.1,0,0.2h0.3c0-0.1,0-0.3,0.1-0.4
		c0.1-0.1,0.1-0.2,0.2-0.3c0,0,0.1-0.1,0.1,0s0,0.2-0.1,0.3c0.1,0.1,0.1,0.4,0.1,0.5h0.9v-0.1c0-0.6-0.2-1.1-0.4-1.6h-0.2V11
		c-0.1-0.1-0.2-0.3-0.3-0.4c-0.2,0.1-0.2-0.1-0.4-0.1c-0.2-0.1-0.1-0.3-0.2-0.2C46,10.2,46,10.2,46,10.1c0-0.1,0-0.4-0.2-0.4
		c-0.1-0.1-0.2,0.1-0.2,0.1s-0.1-0.1-0.1-0.1s-0.1-0.1-0.1-0.1c0.2-0.2-0.2-0.2-0.2-0.3c0-0.1-0.2-0.2-0.2-0.3
		c-0.4-0.2-0.9-0.4-1.4-0.4c-0.1-0.1-0.2,0-0.4,0v0.9C43.4,9.2,43.5,9.3,43.6,9.2L43.6,9.2z"/>
</g>
</svg>
