<?xml version="1.0" encoding="utf-8"?>
<!-- Generator: Adobe Illustrator 27.0.0, SVG Export Plug-In . SVG Version: 6.00 Build 0)  -->
<svg version="1.1" id="Capa_1" xmlns="http://www.w3.org/2000/svg" xmlns:xlink="http://www.w3.org/1999/xlink" x="0px" y="0px"
	 viewBox="0 0 24 24" style="enable-background:new 0 0 24 24;" xml:space="preserve">
<g id="Capa_2_00000002348798261900552090000014606389394437126290_">
	<g id="Capa_1-2">
		<path d="M20.6,14V8.6c0-1.1-0.9-2-2-2h-5.1c-0.1,0-0.3,0-0.4,0.1l-1.5-1.5L13,3.7L12.3,3l-1.8,1.8l-0.4,0.4l0,0L8.8,6.6l0.7,0.7
			l1.4-1.4l1.6,1.6c0,0.1,0,0.1,0,0.2v2.3c0,0.6-0.5,1-1,1H6.9l0,0c-2.8,0.1-5,2.4-4.9,5.2c0.1,2.8,2.4,5,5.2,4.9
			c2.3-0.1,4.3-1.7,4.8-4h2c0,2.2,1.8,4,4,4s4-1.8,4-4C22,15.8,21.5,14.8,20.6,14z M12.2,13c1.3,0,2.3-1,2.3-2.3V8.6h4.1V13
			C18.4,13,18.2,13,18,13c-1.4,0-2.7,0.8-3.5,2H12c-0.2-0.7-0.5-1.4-0.9-2L12.2,13z M7.1,19c-1.7,0-3-1.4-3-3c0-1.7,1.4-3,3-3
			s3,1.4,3,3C10.1,17.7,8.7,19,7.1,19z M18,19c-1.1,0-2-0.9-2-2c0-1.1,0.9-2,2-2s2,0.9,2,2C20,18.1,19.1,19,18,19z"/>
		<path d="M5,9.4h5.2V9.1c0-1-0.8-1.8-1.8-1.8H5c-0.6,0-1,0.5-1,1S4.4,9.4,5,9.4z"/>
	</g>
</g>
</svg>
