<?xml version="1.0" encoding="utf-8"?>
<!-- Generator: Adobe Illustrator 27.0.0, SVG Export Plug-In . SVG Version: 6.00 Build 0)  -->
<svg version="1.1" id="Capa_1" xmlns="http://www.w3.org/2000/svg" xmlns:xlink="http://www.w3.org/1999/xlink" x="0px" y="0px"
	 viewBox="0 0 24 24" style="enable-background:new 0 0 24 24;" xml:space="preserve">
<style type="text/css">
	.st0{fill:#FFFFFF;}
</style>
<g id="Capa_2_00000176031930850706464200000006575873110007280572_">
	<g id="Capa_1-2">
		<path class="st0" d="M20.6,15V8.3c0-1.1-0.9-2-2-2h-5c-0.1,0-0.3,0-0.4,0.1L11,4.1l1.4-1.4L11.7,2L9.9,3.8L9.5,4.1l0,0L8.1,5.5
			l0.7,0.7l1.4-1.4l2.3,2.3c0,0.1,0,0.1,0,0.2V11c0,0.6-0.4,1-1,1H6.8l0,0c-2.8,0.1-4.9,2.4-4.8,5.2c0.1,2.8,2.4,4.9,5.2,4.8
			c2.3-0.1,4.3-1.7,4.7-4H14c0,2.2,1.8,4,4,4s4-1.8,4-4C22,16.9,21.5,15.8,20.6,15z M12.3,14c1.2,0,2.2-1,2.2-2.2V8.3h4.1v5.8
			c-0.2,0-0.4-0.1-0.6-0.1c-1.4,0-2.7,0.8-3.4,2h-2.6c-0.2-0.7-0.5-1.4-0.9-2L12.3,14z M7,20c-1.7,0-3-1.3-3-3s1.3-3,3-3s3,1.3,3,3
			S8.7,20,7,20z M18,20c-1.1,0-2-0.9-2-2s0.9-2,2-2s2,0.9,2,2S19.1,20,18,20z"/>
		<path class="st0" d="M5,10.4h5.2v-0.2c0-1-0.8-1.8-1.8-1.8H5c-0.6,0-1,0.4-1,1C4,10,4.4,10.4,5,10.4z"/>
	</g>
</g>
</svg>
