<?xml version="1.0" encoding="utf-8"?>
<!-- Generator: Adobe Illustrator 27.0.0, SVG Export Plug-In . SVG Version: 6.00 Build 0)  -->
<svg version="1.1" id="Capa_1" xmlns="http://www.w3.org/2000/svg" xmlns:xlink="http://www.w3.org/1999/xlink" x="0px" y="0px"
	 viewBox="0 0 24 24" style="enable-background:new 0 0 24 24;" xml:space="preserve">
<style type="text/css">
	.st0{fill:#FFFFFF;}
</style>
<path class="st0" d="M13,2c1.1,0,1.7,0,2.2,0l0.2,0c0.2,0,0.4,0,0.7,0c1.1,0,1.8,0.2,2.4,0.5c0.7,0.3,1.2,0.6,1.8,1.2
	c0.6,0.6,0.9,1.1,1.2,1.8c0.2,0.6,0.4,1.4,0.5,2.4c0,0.3,0,0.5,0,0.7l0,0.2c0,0.5,0,1.1,0,2.2l0,0.7c0,0.1,0,0.2,0,0.3l0,0.3l0,0.7
	c0,1.1,0,1.7,0,2.2l0,0.2c0,0.2,0,0.4,0,0.7c0,1.1-0.2,1.8-0.5,2.4c-0.3,0.7-0.6,1.2-1.2,1.8c-0.6,0.6-1.1,0.9-1.8,1.2
	c-0.6,0.2-1.4,0.4-2.4,0.5c-0.3,0-0.5,0-0.7,0l-0.2,0c-0.5,0-1.1,0-2.2,0l-0.7,0c-0.1,0-0.2,0-0.3,0h-0.3L11,22c-1.1,0-1.7,0-2.2,0
	l-0.2,0c-0.2,0-0.4,0-0.7,0c-1.1,0-1.8-0.2-2.4-0.5c-0.7-0.3-1.2-0.6-1.8-1.2c-0.6-0.6-0.9-1.1-1.2-1.8c-0.2-0.6-0.4-1.4-0.5-2.4
	c0-0.3,0-0.5,0-0.7l0-0.2c0-0.5,0-1.1,0-2.2L2,11c0-1.1,0-1.7,0-2.2l0-0.2c0-0.2,0-0.4,0-0.7c0-1.1,0.2-1.8,0.5-2.4
	c0.3-0.7,0.6-1.2,1.2-1.8c0.6-0.6,1.1-0.9,1.8-1.2c0.6-0.2,1.4-0.4,2.4-0.5c0.3,0,0.5,0,0.7,0l0.2,0C9.3,2,9.8,2,11,2L13,2z M12,7
	c-2.8,0-5,2.2-5,5c0,2.8,2.2,5,5,5c2.8,0,5-2.2,5-5C17,9.2,14.8,7,12,7z M12,9c1.7,0,3,1.3,3,3c0,1.7-1.3,3-3,3c-1.7,0-3-1.3-3-3
	C9,10.3,10.3,9,12,9z M17.3,5.5c-0.7,0-1.2,0.6-1.2,1.2C16,7.4,16.6,8,17.3,8c0.7,0,1.2-0.6,1.2-1.3C18.5,6.1,17.9,5.5,17.3,5.5z"/>
</svg>
