<?xml version="1.0" encoding="UTF-8"?>
<svg id="Capa_1" data-name="Capa 1" xmlns="http://www.w3.org/2000/svg" viewBox="0 0 100 50">
  <defs>
    <style>
      .cls-1 {
        fill: #888e99;
      }
    </style>
  </defs>
  <path class="cls-1" d="M72.6,3c7.78,0,11.52,4.8,11.52,10.87s-3.61,11.19-11.52,11.19h-9.45V3h9.45Zm-3.28,16.8h3.28c3.98,0,5.36-2.96,5.36-5.97s-1.55-5.61-5.36-5.61h-3.28v11.58Z"/>
  <path class="cls-1" d="M69.4,22.2c-2.49,2.46-5.52,3.43-8.84,3.43-8.67,0-12.04-5.45-12.07-11.44-.04-5.67,3.78-11.69,12.07-11.69,3.21-.03,6.29,1.24,8.54,3.53l-3.86,3.77c-1.24-1.24-2.93-1.93-4.68-1.91-4.25,0-5.93,3.47-5.89,6.33s1.53,6.11,5.89,6.11c1.95-.06,3.81-.86,5.19-2.24l3.66,4.1Z"/>
  <path class="cls-1" d="M54.65,3.09V15.53c.03,6.52-3.94,10.19-10.4,10.19s-10.4-3.51-10.4-10.26V3.09h6.21V15.47c0,3.47,1.66,4.92,4.19,4.92s4.19-1.51,4.19-4.85V3.09h6.21Z"/>
  <polygon class="cls-1" points="33.85 11.92 28.2 18.6 27.1 18.6 21.59 11.95 21.59 25.21 15.41 25.21 15.41 3 21.94 3 27.73 10.47 33.53 3 40.02 3 40.02 25.21 33.85 25.21 33.85 11.92"/>
  <path class="cls-1" d="M87.22,28.71c0,.29-.24,.53-.53,.53H13.31c-.29,0-.53-.24-.53-.53s.24-.53,.53-.53H86.69c.29,0,.53,.24,.53,.53"/>
  <polygon class="cls-1" points="17.8 31.63 19.61 31.63 21.81 35.59 23.96 31.63 25.79 31.63 26.18 40.06 24.27 40.06 24.03 34.55 22.28 37.84 21.29 37.84 19.44 34.59 19.23 40.06 17.41 40.06 17.8 31.63"/>
  <path class="cls-1" d="M32.39,39.42l-.31,.21c-.16,.11-.34,.21-.52,.29-.25,.1-.5,.19-.76,.25-.33,.08-.66,.11-1,.11-.47,0-.93-.07-1.37-.24-.39-.15-.74-.37-1.03-.66-.28-.28-.5-.62-.64-1-.15-.42-.23-.86-.22-1.3,0-.41,.07-.81,.21-1.19,.13-.37,.34-.71,.6-1,.27-.29,.6-.53,.96-.69,.41-.18,.85-.27,1.29-.26,.43-.01,.87,.08,1.26,.25,.36,.16,.67,.4,.92,.7,.26,.32,.45,.68,.56,1.08,.13,.44,.19,.91,.19,1.37v.31h-4.24c.01,.32,.17,.63,.42,.83,.32,.26,.72,.38,1.13,.36,.39,.01,.79-.06,1.15-.21,.23-.1,.44-.22,.64-.36l.75,1.15Zm-1.59-2.95c0-.13-.03-.26-.08-.38-.05-.13-.13-.26-.23-.36-.11-.11-.24-.21-.38-.27-.17-.07-.36-.11-.54-.1-.19,0-.38,.03-.56,.11-.15,.07-.28,.16-.4,.27-.1,.11-.18,.23-.24,.36-.05,.12-.08,.25-.08,.38h2.51Zm-1.33-5.04h1.8l-1.06,1.8h-1.33l.59-1.8Z"/>
  <polygon class="cls-1" points="34.31 37.09 32.15 34.13 34.32 34.13 35.39 35.71 36.46 34.13 38.44 34.13 36.36 36.96 38.63 40.06 36.46 40.06 35.28 38.36 34.09 40.06 32.11 40.06 34.31 37.09"/>
  <path class="cls-1" d="M38.54,31.63h1.95v1.63h-1.95v-1.63Zm.07,2.51h1.82v5.93h-1.82v-5.93Z"/>
  <path class="cls-1" d="M46.29,39.28c-.28,.29-.6,.53-.97,.7-.45,.2-.93,.3-1.42,.29-.45,0-.89-.07-1.31-.24-.37-.15-.71-.38-1-.66-.28-.28-.51-.62-.66-1-.16-.41-.24-.84-.23-1.28,0-.84,.32-1.65,.91-2.24,.29-.28,.62-.51,1-.66,.41-.17,.84-.25,1.28-.25,.48-.01,.96,.08,1.41,.27,.38,.17,.71,.41,1,.71l-1.1,1.19c-.14-.17-.3-.31-.47-.42-.23-.13-.5-.19-.77-.18-.2,0-.4,.04-.59,.13-.34,.18-.6,.49-.72,.86-.06,.19-.09,.4-.09,.6,0,.2,.03,.39,.09,.58,.06,.18,.16,.36,.28,.51,.12,.15,.27,.27,.44,.36,.18,.1,.38,.14,.59,.14,.27,.01,.54-.05,.78-.18,.19-.1,.36-.24,.51-.4l1.05,1.18Z"/>
  <path class="cls-1" d="M45.85,37.09c0-.42,.08-.84,.24-1.23,.16-.37,.38-.71,.66-1,.28-.28,.62-.51,1-.66,.41-.17,.85-.25,1.3-.25,.44,0,.88,.08,1.29,.25,.37,.15,.71,.38,1,.66,.28,.29,.51,.62,.66,1,.31,.79,.31,1.68,0,2.47-.16,.37-.38,.71-.66,1-.29,.28-.62,.51-1,.66-.41,.17-.85,.26-1.29,.26-.45,0-.89-.08-1.3-.26-.37-.15-.71-.38-1-.66-.28-.29-.51-.62-.66-1-.16-.39-.24-.81-.24-1.23m3.19,1.59c.41,.01,.8-.17,1.06-.49,.12-.15,.22-.32,.27-.51,.06-.19,.09-.39,.09-.59,0-.2-.03-.4-.09-.59-.06-.18-.15-.36-.27-.5-.12-.15-.28-.27-.45-.36-.19-.09-.4-.14-.61-.13-.21,0-.42,.04-.61,.13-.17,.08-.33,.21-.45,.36-.12,.15-.21,.32-.27,.5-.06,.19-.1,.39-.1,.59,0,.2,.03,.4,.1,.59,.06,.18,.15,.36,.27,.51,.12,.15,.27,.28,.45,.36,.19,.09,.4,.14,.61,.13"/>
  <path class="cls-1" d="M54.42,31.63h1.92v5c0,.25,.03,.51,.08,.75,.05,.21,.14,.4,.27,.57,.13,.17,.3,.29,.5,.37,.24,.1,.5,.14,.76,.13,.26,0,.51-.04,.75-.13,.2-.08,.37-.21,.5-.37,.13-.17,.22-.37,.27-.57,.06-.25,.08-.5,.08-.75v-5h1.94v5.24c0,.48-.08,.95-.25,1.39-.15,.41-.39,.77-.69,1.08-.32,.31-.7,.55-1.12,.7-.47,.17-.97,.26-1.47,.25-.5,0-1-.08-1.47-.25-.42-.15-.8-.39-1.12-.7-.31-.31-.55-.68-.71-1.09-.17-.44-.25-.92-.25-1.39v-5.23Z"/>
  <path class="cls-1" d="M62.2,34.13h1.75l.05,.64c.21-.25,.47-.44,.77-.57,.31-.14,.65-.22,1-.22,.6-.03,1.19,.19,1.63,.61,.43,.49,.65,1.14,.6,1.8v3.67h-1.82v-3.41c.02-.28-.07-.56-.25-.79-.17-.2-.43-.31-.69-.29-.18,0-.36,.03-.53,.11-.15,.07-.27,.16-.38,.29-.1,.12-.18,.26-.23,.41-.05,.16-.08,.33-.08,.5v3.19h-1.81v-5.93Z"/>
  <path class="cls-1" d="M68.47,31.63h1.95v1.63h-1.95v-1.63Zm.06,2.51h1.82v5.93h-1.83v-5.93Z"/>
  <path class="cls-1" d="M74.95,39.47c-.2,.23-.44,.42-.71,.55-.31,.15-.65,.23-1,.22-.35,0-.7-.07-1.02-.22-.32-.14-.6-.35-.82-.61-.24-.28-.43-.61-.55-.96-.14-.41-.21-.84-.2-1.27-.01-.48,.09-.96,.28-1.4,.34-.74,.96-1.31,1.73-1.58,.35-.13,.71-.19,1.08-.2,.22,0,.45,.01,.66,.06,.17,.04,.33,.09,.49,.15v-2.58h1.81v8.44h-1.7l-.07-.6Zm-.04-3.7c-.13-.08-.27-.13-.41-.17-.18-.04-.37-.05-.55-.05-.41-.02-.81,.15-1.08,.47-.27,.34-.4,.77-.38,1.2-.01,.38,.11,.75,.33,1.06,.23,.28,.58,.44,.95,.41,.18,0,.36-.03,.52-.11,.14-.07,.27-.16,.37-.29,.1-.12,.17-.27,.21-.42,.04-.16,.06-.33,.06-.49l-.02-1.62Z"/>
  <path class="cls-1" d="M77,37.09c0-.42,.08-.84,.23-1.23,.15-.37,.38-.71,.66-1,.28-.28,.62-.51,1-.66,.41-.17,.85-.25,1.29-.25,.44,0,.88,.08,1.29,.25,.76,.31,1.36,.92,1.66,1.68,.31,.79,.31,1.68,0,2.47-.15,.37-.38,.71-.66,1-.28,.29-.62,.51-1,.66-.41,.17-.85,.26-1.29,.26-.44,0-.88-.08-1.29-.26-.37-.15-.71-.38-1-.66-.28-.29-.51-.62-.66-1-.16-.39-.24-.81-.23-1.23m3.19,1.59c.41,.01,.8-.17,1.06-.49,.12-.15,.21-.33,.27-.51,.06-.19,.09-.39,.09-.59,0-.2-.03-.4-.09-.59-.06-.18-.15-.36-.27-.5-.12-.15-.27-.28-.44-.38-.19-.09-.4-.14-.61-.13-.21,0-.42,.04-.61,.13-.17,.09-.33,.21-.45,.36-.12,.15-.21,.32-.27,.5-.06,.19-.09,.39-.09,.59,0,.2,.03,.4,.09,.59,.06,.18,.15,.36,.27,.51,.12,.15,.27,.28,.45,.36,.19,.09,.4,.14,.61,.13"/>
  <path class="cls-1" d="M20.74,46.41c-.08,.12-.17,.23-.28,.33-.14,.14-.29,.26-.46,.36-.2,.12-.41,.22-.63,.29-.25,.08-.52,.12-.78,.12-.38,0-.75-.06-1.1-.2-.33-.14-.62-.34-.87-.6-.25-.26-.44-.57-.56-.91-.27-.73-.27-1.54,0-2.27,.13-.34,.32-.66,.56-.93,.24-.26,.54-.48,.87-.62,.36-.16,.74-.23,1.13-.23,.49,0,.97,.12,1.39,.37,.16,.1,.31,.22,.44,.35,.11,.11,.21,.23,.3,.37l-.56,.48c-.07-.1-.15-.2-.24-.29-.1-.11-.21-.2-.33-.28-.14-.09-.28-.16-.44-.21-.46-.14-.95-.1-1.38,.09-.23,.11-.44,.27-.61,.47-.17,.2-.3,.44-.38,.69-.09,.27-.14,.55-.13,.84,0,.28,.04,.57,.14,.84,.08,.25,.21,.48,.38,.68,.17,.19,.37,.35,.6,.45,.25,.11,.52,.17,.79,.17,.39,0,.77-.11,1.1-.33,.11-.08,.21-.17,.31-.27l.2-.23,.54,.46Z"/>
  <path class="cls-1" d="M22.84,47.49c-.28,0-.56-.05-.82-.16-.24-.1-.46-.25-.64-.44-.56-.59-.73-1.46-.42-2.22,.1-.25,.24-.47,.42-.66,.18-.19,.4-.34,.64-.44,.26-.11,.54-.16,.82-.16,.55,0,1.07,.21,1.45,.6,.18,.19,.33,.42,.42,.66,.2,.51,.2,1.07,0,1.58-.1,.24-.24,.46-.42,.65-.18,.19-.4,.34-.64,.44-.25,.11-.53,.16-.81,.16m0-.64c.18,0,.37-.04,.53-.12,.15-.08,.29-.18,.4-.31,.11-.13,.19-.28,.25-.45,.12-.33,.12-.69,0-1.02-.05-.16-.14-.32-.26-.45-.11-.14-.25-.25-.4-.33-.16-.08-.35-.12-.53-.12-.19,0-.37,.04-.54,.12-.15,.08-.29,.18-.4,.31-.11,.13-.2,.28-.25,.44-.06,.17-.09,.34-.09,.52,0,.17,.03,.35,.09,.51,.06,.16,.14,.31,.26,.44,.11,.14,.25,.25,.4,.33,.17,.08,.35,.12,.53,.12"/>
  <path class="cls-1" d="M25.18,44.37v-.83h.7l.02,.58c.05-.07,.11-.14,.18-.22,.08-.08,.17-.16,.27-.22,.25-.15,.54-.23,.84-.23,.42-.03,.83,.13,1.11,.44,.26,.34,.39,.76,.36,1.18v2.3h-.74v-2.24c.03-.28-.05-.56-.22-.79-.17-.18-.42-.27-.66-.25-.36-.02-.7,.16-.88,.47-.09,.15-.15,.31-.19,.48-.04,.18-.06,.36-.06,.55v1.78h-.74v-3Z"/>
  <path class="cls-1" d="M29.42,44.16h-.69v-.62h.69v-1.25h.74v1.25h1.12v.62h-1.12v1.89c-.02,.22,.03,.44,.15,.63,.1,.12,.25,.18,.41,.17,.12,0,.24-.02,.36-.07,.1-.05,.2-.12,.28-.2l.33,.45c-.28,.3-.68,.46-1.09,.44-.33,.03-.66-.09-.9-.33-.21-.3-.31-.67-.28-1.03v-1.96Z"/>
  <path class="cls-1" d="M31.76,44.31v-.78h.71l.03,.62c.05-.08,.11-.15,.17-.22,.08-.08,.16-.16,.26-.22,.11-.07,.23-.13,.36-.17,.15-.05,.31-.07,.46-.07,.08,0,.15,0,.23,0,.07,0,.13,.03,.19,.05l-.16,.72c-.12-.04-.25-.06-.38-.06-.15,0-.3,.03-.44,.09-.13,.06-.24,.15-.33,.25-.1,.11-.18,.24-.24,.37-.06,.14-.09,.3-.09,.45v2.02h-.77v-3.06Z"/>
  <path class="cls-1" d="M36.67,46.91c-.14,.19-.34,.34-.56,.43-.23,.09-.48,.14-.72,.14-.16,0-.32-.02-.47-.06-.15-.04-.3-.11-.43-.21-.14-.1-.25-.22-.33-.37-.08-.17-.13-.36-.12-.55-.02-.38,.14-.75,.43-1,.36-.27,.8-.4,1.25-.37h.79s.09,0,.14,.02v-.14c.02-.24-.07-.47-.26-.61-.21-.13-.46-.2-.71-.19-.24,0-.47,.03-.69,.12-.15,.07-.3,.15-.43,.24l-.33-.5c.08-.06,.16-.11,.24-.16,.11-.06,.22-.11,.33-.15,.14-.05,.28-.09,.43-.12,.18-.03,.37-.05,.55-.05,.42-.02,.84,.1,1.17,.36,.29,.26,.45,.63,.42,1.02v2.57h-.7v-.41Zm0-1.35s-.09-.02-.13-.02c-.07-.01-.14-.02-.22-.02h-.54c-.17,0-.34,.02-.51,.08-.11,.04-.22,.1-.31,.19-.07,.07-.12,.15-.15,.25-.03,.08-.04,.17-.04,.26-.01,.18,.07,.36,.22,.47,.18,.12,.38,.17,.59,.16,.14,0,.28-.02,.41-.07,.12-.05,.23-.11,.33-.2,.1-.08,.18-.18,.24-.29,.06-.1,.09-.22,.09-.33v-.47Z"/>
  <rect class="cls-1" x="39.05" y="41.87" width=".74" height="5.5"/>
  <path class="cls-1" d="M42.74,46.91c-.14,.19-.34,.34-.56,.43-.23,.09-.48,.14-.72,.14-.16,0-.32-.02-.47-.06-.15-.04-.3-.11-.43-.21-.14-.1-.25-.22-.33-.37-.08-.17-.11-.35-.1-.54-.02-.38,.14-.75,.43-1,.36-.27,.8-.4,1.25-.37h.79s.09,0,.14,.02v-.14c.02-.24-.07-.47-.26-.61-.21-.13-.46-.2-.7-.19-.24-.01-.47,.03-.69,.12-.15,.07-.3,.15-.43,.24l-.33-.5c.08-.06,.16-.11,.24-.16,.11-.06,.22-.11,.33-.15,.14-.05,.28-.09,.43-.12,.18-.03,.37-.05,.55-.05,.42-.02,.84,.1,1.17,.36,.29,.26,.45,.63,.42,1.02v2.57h-.7l-.02-.42Zm0-1.35s-.08-.02-.13-.02c-.07-.01-.15-.02-.22-.02h-.54c-.17,0-.34,.02-.51,.08-.11,.04-.22,.1-.3,.19-.07,.07-.12,.15-.15,.25-.03,.08-.04,.17-.04,.26-.01,.18,.07,.36,.22,.47,.18,.12,.38,.17,.59,.16,.14,0,.28-.02,.41-.07,.12-.05,.23-.11,.33-.2,.1-.08,.18-.18,.24-.29,.06-.1,.09-.22,.09-.33v-.47Z"/>
  <path class="cls-1" d="M45.24,41.87h1.84c.41,0,.81,.05,1.2,.16,.35,.1,.67,.27,.95,.5,.27,.24,.48,.53,.62,.86,.16,.39,.23,.81,.22,1.24,0,.41-.07,.82-.22,1.21-.14,.33-.35,.62-.62,.86-.28,.23-.6,.41-.95,.51-.39,.11-.8,.17-1.2,.17h-1.83v-5.5Zm1.81,4.79c.58,.04,1.15-.14,1.61-.51,.4-.39,.61-.94,.57-1.5,.04-.57-.16-1.13-.55-1.54-.46-.39-1.06-.58-1.66-.53h-1v4.08h1.03Z"/>
  <path class="cls-1" d="M53.98,46.81c-.06,.07-.13,.13-.2,.19-.1,.09-.21,.16-.33,.22-.16,.08-.32,.14-.49,.19-.22,.06-.44,.08-.66,.08-.28,0-.56-.05-.82-.15-.24-.09-.46-.24-.63-.42-.18-.19-.32-.42-.41-.66-.1-.27-.15-.56-.15-.84,0-.27,.05-.54,.14-.79,.28-.74,.98-1.22,1.77-1.22,.29,0,.59,.06,.85,.19,.23,.12,.43,.29,.58,.5,.15,.22,.26,.46,.33,.72,.07,.28,.11,.56,.11,.84h-3.03c0,.16,.04,.32,.11,.47,.07,.14,.16,.27,.28,.37,.12,.11,.25,.19,.39,.25,.15,.06,.31,.09,.47,.09,.28,.01,.55-.05,.8-.17,.17-.08,.32-.2,.45-.33l.43,.47Zm-.66-1.69c-.02-.28-.14-.55-.33-.76-.2-.22-.49-.35-.79-.33-.16,0-.32,.03-.47,.09-.13,.06-.26,.14-.36,.24-.1,.1-.18,.21-.23,.33-.05,.13-.08,.26-.09,.4l2.28,.03Z"/>
  <rect class="cls-1" x="54.4" y="41.87" width=".74" height="5.5"/>
  <path class="cls-1" d="M55.65,42.02h.83v.83h-.83v-.83Zm.05,1.52h.74v3.84h-.74v-3.84Z"/>
  <path class="cls-1" d="M56.99,44.37v-.83h.71l.03,.58c.05-.07,.11-.14,.18-.22,.08-.08,.17-.16,.26-.22,.12-.07,.24-.12,.37-.16,.15-.05,.31-.07,.47-.07,.42-.03,.83,.13,1.11,.44,.26,.34,.39,.76,.36,1.18v2.3h-.74v-2.24c.02-.28-.06-.56-.23-.79-.17-.18-.42-.27-.66-.25-.19,0-.37,.04-.54,.13-.13,.08-.25,.2-.33,.33-.09,.15-.15,.31-.19,.48-.04,.18-.06,.36-.06,.55v1.78h-.74v-2.99Z"/>
  <path class="cls-1" d="M64.3,46.85c-.18,.2-.39,.36-.63,.46-.27,.12-.57,.19-.87,.18-.29,0-.57-.05-.84-.15-.24-.09-.45-.24-.63-.42-.18-.18-.31-.4-.4-.64-.1-.26-.15-.54-.14-.82,0-.27,.05-.54,.15-.79,.09-.25,.24-.47,.41-.66,.18-.18,.4-.33,.64-.44,.26-.11,.53-.16,.81-.16,.29,0,.59,.05,.86,.17,.24,.11,.46,.27,.63,.47l-.48,.47c-.11-.14-.26-.25-.42-.33-.18-.09-.38-.13-.58-.13-.18,0-.37,.04-.53,.11-.15,.07-.29,.18-.39,.31-.11,.13-.19,.28-.25,.44-.06,.17-.09,.35-.09,.52,0,.18,.03,.35,.09,.51,.05,.16,.14,.31,.25,.45,.11,.13,.24,.23,.39,.31,.17,.08,.35,.12,.53,.12,.21,0,.41-.04,.6-.13,.17-.08,.32-.19,.44-.33l.45,.48Z"/>
  <path class="cls-1" d="M64.45,43.54h.76v2.25c-.02,.28,.05,.56,.22,.79,.17,.17,.41,.26,.65,.24,.19,0,.37-.04,.53-.13,.13-.08,.25-.2,.33-.33,.09-.15,.15-.31,.19-.48,.04-.18,.05-.36,.05-.55v-1.78h.74v3.84h-.72l-.03-.57c-.06,.08-.12,.15-.18,.22-.08,.08-.16,.15-.26,.21-.11,.07-.24,.12-.36,.16-.15,.05-.31,.07-.47,.07-.42,.03-.82-.13-1.1-.43-.25-.34-.38-.76-.36-1.18v-2.31Z"/>
  <path class="cls-1" d="M68.39,44.64c.28-.74,.98-1.22,1.77-1.22,.29,0,.59,.06,.85,.19,.23,.12,.43,.29,.58,.5,.15,.22,.27,.46,.33,.72,.07,.28,.11,.56,.11,.84h-3.03c0,.16,.04,.32,.11,.47,.06,.14,.16,.27,.28,.37,.12,.11,.25,.19,.39,.25,.15,.06,.31,.09,.47,.09,.47,.02,.92-.16,1.25-.49l.42,.44c-.06,.07-.13,.13-.2,.19-.1,.09-.21,.16-.33,.22-.16,.08-.32,.14-.49,.19-.22,.06-.44,.08-.66,.08-.28,0-.56-.05-.82-.15-.24-.09-.45-.24-.63-.42-.18-.19-.32-.42-.41-.66-.1-.27-.15-.56-.15-.84,0-.27,.05-.54,.14-.79m2.88,.48c-.01-.28-.12-.55-.31-.76-.2-.22-.49-.34-.79-.33-.16,0-.32,.03-.47,.09-.13,.06-.26,.14-.36,.24-.1,.1-.18,.21-.23,.33-.05,.13-.08,.26-.09,.4l2.26,.03Z"/>
  <path class="cls-1" d="M72.35,44.37v-.83h.71l.03,.58c.05-.07,.11-.14,.18-.22,.08-.08,.17-.16,.27-.22,.12-.07,.24-.12,.37-.16,.15-.05,.31-.07,.47-.07,.42-.03,.83,.13,1.11,.44,.26,.34,.39,.76,.36,1.18v2.3h-.74v-2.24c.02-.28-.06-.56-.23-.79-.17-.18-.42-.27-.66-.25-.19,0-.37,.04-.54,.13-.13,.08-.25,.2-.33,.33-.09,.15-.15,.31-.19,.48-.04,.18-.06,.36-.06,.55v1.78h-.74v-2.99Z"/>
  <path class="cls-1" d="M79.66,46.85c-.18,.2-.39,.36-.63,.46-.27,.12-.57,.19-.87,.18-.29,0-.57-.05-.84-.15-.24-.09-.45-.24-.63-.42-.18-.18-.31-.4-.4-.64-.1-.26-.15-.54-.14-.82,0-.27,.05-.54,.15-.79,.09-.25,.24-.47,.42-.66,.18-.18,.4-.33,.63-.44,.26-.11,.53-.16,.81-.16,.29,0,.59,.05,.86,.17,.24,.11,.46,.27,.64,.47l-.49,.47c-.11-.14-.26-.25-.42-.33-.18-.09-.38-.13-.58-.13-.18,0-.37,.04-.53,.11-.15,.07-.29,.18-.39,.31-.11,.13-.19,.28-.25,.44-.06,.17-.09,.35-.09,.52,0,.18,.03,.35,.09,.51,.05,.16,.14,.31,.25,.45,.11,.13,.24,.23,.39,.31,.17,.08,.35,.12,.53,.12,.21,0,.42-.04,.61-.13,.17-.08,.32-.19,.44-.33l.45,.48Z"/>
  <path class="cls-1" d="M79.81,42.02h.83v.83h-.83v-.83Zm.05,1.52h.74v3.84h-.74v-3.84Z"/>
  <path class="cls-1" d="M83.51,46.91c-.14,.19-.34,.34-.57,.43-.38,.15-.8,.18-1.19,.08-.15-.04-.3-.11-.43-.21-.13-.1-.24-.23-.32-.37-.08-.17-.12-.36-.12-.55-.02-.38,.14-.75,.43-1,.36-.27,.8-.4,1.25-.37h.79s.09,0,.14,.02v-.14c.02-.24-.07-.47-.26-.61-.21-.13-.46-.2-.7-.19-.24-.01-.47,.03-.69,.12-.15,.07-.3,.15-.43,.24l-.33-.5c.08-.06,.16-.11,.24-.16,.11-.06,.22-.11,.33-.15,.14-.05,.28-.09,.43-.12,.18-.03,.37-.05,.55-.05,.42-.02,.84,.1,1.17,.36,.29,.26,.45,.63,.42,1.02v2.57h-.69l-.02-.41Zm0-1.35s-.08-.02-.13-.02c-.07-.01-.15-.02-.22-.02h-.54c-.17,0-.34,.02-.51,.08-.11,.04-.22,.1-.3,.19-.07,.07-.13,.15-.16,.25-.03,.08-.04,.17-.04,.26-.01,.18,.07,.36,.22,.47,.18,.12,.38,.17,.59,.16,.14,0,.28-.02,.41-.07,.12-.05,.23-.11,.33-.2,.1-.08,.18-.18,.24-.29,.06-.1,.09-.22,.09-.33v-.47Z"/>
</svg>