<?xml version="1.0" encoding="UTF-8"?>
<svg id="Capa_1" data-name="Capa 1" xmlns="http://www.w3.org/2000/svg" viewBox="0 0 100 50">
  <defs>
    <style>
      .cls-1 {
        fill: #888e99;
      }
    </style>
  </defs>
  <path class="cls-1" d="M6.41,25.47h.39c2.05,0,4.09,0,6.14,0,.29,0,.38,.08,.35,.36-.03,.31,.08,.73-.09,.91-.14,.16-.58,.06-.89,.06-1.84,0-3.69,0-5.53,0h-.38v6.88h-1.4v-14.63c.13,0,.25,0,.38,0,1.18,0,2.37,0,3.55,0,.23,0,.33-.07,.41-.29,.23-.67,.5-1.33,.73-2,.08-.22,.21-.3,.42-.3,.29,0,.58,.01,.86,0,.21-.02,.29,.08,.35,.26,.22,.67,.46,1.34,.67,2.01,.07,.23,.18,.32,.42,.31,.33-.02,.65,0,.99,0v1.29h-.87c.2,.61,.39,1.16,.58,1.72,.01,.04,.07,.09,.12,.09,.31,.03,.62,.04,.95,.06v-4.87s-.04-.04-.06-.04q-.65-.08-.55-.98c.77-.09,1.55-.18,2.36-.27v6.11c.15,.02,.33,.04,.52,.07v.87h-5.72c0-.13,0-.25,0-.36q0-.53,.53-.62c-.06-.18-.11-.36-.17-.55-.57,0-1.13,0-1.7,0-.07,0-.16,.12-.21,.21-.05,.1-.06,.22-.09,.33,.03,.02,.05,.03,.07,.04,.15,.04,.41,.05,.42,.12,.05,.24,.03,.5,.02,.76,0,.04-.09,.1-.14,.1-.68,0-1.36,0-2.05,0v-.92s.04,.02,.07,.04c.1-.13,.23-.24,.29-.38,.2-.48,.36-.97,.55-1.48h-2.31v5.1Zm4.75-4.88c.03-.24-.13-.27-.28-.24-.32,.07-.71-.18-1.02,.24h1.3Z"/>
  <path class="cls-1" d="M55.62,33.68h-1.27v-1.59c-1.8,2.54-5.79,2.27-7.52,.43-1.98-2.1-1.84-5.64,.34-7.51,1.98-1.7,5.61-1.53,7.15,.72v-2.56c-.19,.02-.38,.05-.57,.06-.19,.01-.35-.04-.35-.26,0-.22,.21-.39,.43-.36,.49,.07,.52,.04,.52-.46,0-.73,0-1.47,0-2.2,0-.61,0-1.22,0-1.85h1.23c.04,.45,.09,.89,.13,1.29,.44-.13,.84-.29,1.25-.37,.77-.14,1.55,.42,1.3,1.31-.19,.67-.32,1.35-.48,2.02-.07,.29-.02,.33,.27,.3,.12-.01,.32,.03,.36,.12,.08,.15,.03,.35-.18,.41-.14,.04-.29,.06-.43,.06-.42,0-.84,.01-1.26,0-.14,0-.31-.03-.39-.12-.06-.05-.04-.28,.02-.34,.1-.09,.3-.18,.41-.14,.28,.1,.38-.05,.44-.26,.19-.7,.38-1.39,.55-2.1,.07-.29-.18-.61-.48-.67-.74-.16-1.47,.42-1.47,1.17,0,.47,0,.94,0,1.4,0,.19-.05,.4,.15,.56,.05,.04,0,.21-.03,.32-.03,.16-.12,.31-.12,.47,0,3.25,0,6.51,0,9.76v.41Zm-5.14-.92c2.17,.02,3.96-1.71,3.97-3.84,.01-2.1-1.74-3.81-3.89-3.86-1.93-.04-3.78,1.3-3.81,3.84-.02,2.23,1.54,3.85,3.73,3.87Z"/>
  <path class="cls-1" d="M64.95,33.68h-1.21c-.05-.44-.1-.9-.15-1.38-.03,.02-.06,.03-.08,.06-.61,.98-1.51,1.47-2.63,1.57-.97,.09-1.94,0-2.79-.55-.88-.57-1.3-1.39-1.2-2.43,.14-1.46,.85-2.25,2.26-2.68,1.12-.35,2.27-.39,3.43-.38,.33,0,.66,0,.98,0,.15-1.47-.28-2.43-1.79-2.74-1.29-.26-2.49,.02-3.54,.84-.06,.04-.12,.08-.21,.14-.25-.29-.5-.58-.76-.88,.6-.6,1.32-.94,2.11-1.15,1.2-.33,2.39-.32,3.56,.14,1.22,.48,1.77,1.36,1.82,2.66,.06,1.7,.04,3.4,.08,5.1,.01,.55,.08,1.1,.12,1.68Zm-1.25-4.82c-1.1,.07-2.08,.07-3.04,.21-.57,.08-1.16,.28-1.66,.58-1.16,.7-1.08,2.17,.11,2.83,.58,.32,1.2,.3,1.83,.26,1.12-.07,2.14-.8,2.44-1.84,.18-.62,.21-1.28,.32-2.04Z"/>
  <path class="cls-1" d="M80.35,33.95c-3.01,.03-5.06-2.2-5.04-5.05,.02-2.94,2.1-5.03,5.05-5.03,2.95,0,5.06,2.11,5.05,5.06,0,2.94-2.16,5.05-5.06,5.01Zm0-1.18c2.18,0,3.73-1.58,3.73-3.84,0-2.26-1.52-3.83-3.71-3.86-1.96-.03-3.76,1.39-3.76,3.85,0,2.26,1.55,3.84,3.73,3.85Z"/>
  <path class="cls-1" d="M14.26,28.9c0-2.94,2.09-5.03,5.04-5.03,2.95,0,5.06,2.11,5.06,5.06,0,2.94-2.16,5.04-5.08,5.03-2.98-.01-5.05-2.2-5.01-5.05Zm1.3-.03c.01,.26,.02,.47,.04,.68,0,.08,.04,.16,.05,.25,.28,1.4,1.1,2.37,2.46,2.78,1.37,.42,2.68,.2,3.77-.8,.89-.83,1.19-1.89,1.15-3.08-.08-2.51-2.22-4.1-4.69-3.52-1.73,.41-2.79,1.88-2.78,3.7Z"/>
  <path class="cls-1" d="M67.39,25.3h-2.04v-1.17h2.03v-2.68s.06-.05,.08-.05c.52,.02,1-.07,1.48-.34,.35-.19,.81-.18,1.22-.25,.37-.06,.74-.1,.89-.53,.13-.37-.06-.67-.45-.68-.2,0-.4,.02-.59,.06-.27,.05-.4,.18-.36,.5,.02,.13-.14,.36-.27,.43-.14,.06-.4,.03-.51-.06-.1-.09-.13-.35-.08-.5,.21-.63,.75-.85,1.33-.98,.25-.05,.52-.03,.78,0,.69,.06,1.02,.53,.85,1.21-.17,.71-.35,1.43-.51,2.14-.02,.1,.05,.22,.08,.33,.09-.05,.23-.09,.27-.17,.1-.21,.18-.45,.24-.68,.06-.24,.2-.32,.42-.28,.26,.04,.19,.28,.15,.41-.12,.35-.23,.73-.45,1.02-.25,.33-.66,.36-1.04,.23-.16-.05-.28-.22-.46-.37-.46,.38-1.06,.52-1.73,.41v.84h2.66v1.17h-2.65c-.02,.11-.04,.18-.04,.25,0,2.01,0,4.02,0,6.03,0,.7,.45,1.18,1.14,1.18,.4,0,.79-.11,1.19-.18,.11-.02,.22-.07,.38-.12,.04,.37,.07,.73,.1,1.08,0,.04-.06,.11-.11,.13-.95,.31-1.9,.48-2.85,.02-.68-.33-1.02-.91-1.12-1.63-.05-.37-.06-.74-.06-1.11,0-1.74,0-3.49,0-5.23v-.4Zm3.38-4.03c-.16,.04-.3,.09-.44,.11-.14,.03-.29,.03-.44,.06-.23,.05-.47,.1-.69,.18-.39,.15-.57,.47-.47,.78,.07,.23,.5,.37,.83,.28,.75-.19,1.08-.58,1.21-1.42Z"/>
  <path class="cls-1" d="M25.63,24.13h1.28c0,.12,0,.23,0,.34,0,1.73-.01,3.47,0,5.2,0,.47,.07,.96,.18,1.41,.29,1.18,1.04,1.7,2.25,1.68,1.97-.04,3-1.44,3.11-2.96,.12-1.67,.07-3.36,.09-5.04,0-.2,0-.4,0-.63h1.34v9.52h-1.22c-.03-.52-.05-1.03-.08-1.61-.11,.16-.18,.29-.26,.4-.74,.96-1.71,1.5-2.92,1.48-.57,0-1.16-.06-1.69-.23-1.28-.43-1.94-1.43-1.99-2.73-.09-2.13-.07-4.27-.09-6.41,0-.14,0-.27,0-.44Z"/>
  <path class="cls-1" d="M88.09,33.68h-1.34v-9.54h1.2c.03,.52,.06,1.04,.09,1.5,.35-.35,.7-.76,1.12-1.09,.83-.64,1.79-.76,2.81-.66,.71,.08,1.34,.29,1.88,.76,.68,.59,.98,1.37,1.07,2.24,.06,.55,.07,1.1,.07,1.65,0,1.58,0,3.17,0,4.75,0,.11,0,.23,0,.36h-1.27c0-.11,0-.22,0-.34,0-1.7,.01-3.4,0-5.11,0-.7-.07-1.4-.38-2.05-.32-.67-.86-1.02-1.56-1.1-1.91-.22-3.41,1-3.62,2.92-.04,.39-.06,.78-.06,1.17,0,1.49,0,2.98,0,4.5Z"/>
  <path class="cls-1" d="M37.2,33.68h-1.34v-9.53h1.2c.03,.51,.06,1.04,.09,1.58,.22-.27,.41-.55,.64-.78,.93-.91,2.07-1.18,3.34-1.03,1.22,.15,2.14,.71,2.6,1.86,.2,.5,.34,1.06,.35,1.6,.04,2.06,.02,4.13,.02,6.19,0,.03-.01,.06-.02,.11h-1.25c0-.11,0-.22,0-.33,0-1.7,.01-3.4,0-5.11,0-.7-.06-1.4-.37-2.05-.32-.67-.85-1.04-1.56-1.11-2.09-.2-3.33,1.01-3.62,2.88-.06,.41-.07,.82-.07,1.24,0,1.48,0,2.96,0,4.47Z"/>
  <path class="cls-1" d="M30.17,22.13c.11,0,.18,.01,.25,.02,.04,0,.1-.01,.13,.01,.27,.2,.1,.48,.11,.73,0,.07-.14,.22-.21,.22-.71,.02-1.43,.02-2.14,0-.08,0-.18-.13-.22-.22-.04-.09,0-.21,0-.32-.01-.27,.05-.47,.38-.43,0-.67,0-1.32,0-1.98,0-.26-.18-.36-.44-.34-.45,.03-.6,.17-.6,.61,0,.56,0,1.12,0,1.71,.34-.04,.43,.13,.39,.42-.02,.11,.02,.24-.01,.35-.03,.09-.12,.21-.19,.21-.7,.01-1.41,0-2.11,0-.03,0-.06-.02-.1-.04v-.87c.12-.03,.23-.05,.37-.09,0-.66,0-1.33,0-1.99,0-.24-.16-.35-.41-.32-.47,.06-.63,.21-.64,.68-.01,.54,0,1.08,0,1.62,.13,.05,.36,.09,.38,.17,.05,.24,.02,.51,0,.76,0,.03-.09,.09-.15,.09-.81,0-1.61,0-2.44,0v-.93c.17-.02,.31-.04,.48-.06v-2.33q-.63-.1-.52-.97c.45-.07,.9-.14,1.36-.21,.06,0,.13,0,.19-.02q.5-.07,.62,.38s.03,.05,.06,.1c.22-.12,.43-.23,.64-.35,.68-.36,1.2-.29,1.72,.26,.15,.16,.25,.13,.4,.04,.4-.22,.78-.46,1.26-.49,.83-.05,1.44,.81,1.44,1.42,0,.71,0,1.42,0,2.17Z"/>
  <path class="cls-1" d="M32.87,18.97c.22-.09,.41-.18,.6-.26,1.1-.45,2.08,0,2.36,1.14,.26,1.03,.06,2-.69,2.78-.69,.72-1.57,.73-2.46,.46-.19-.06-.29-.05-.47,.07-.17,.12-.46,.13-.68,.1-.45-.06-.44,.05-.43-.51,.02-1.82,0-3.64,0-5.49-.19-.02-.39-.04-.61-.06,0-.26,0-.52,0-.77,0-.05,.08-.14,.12-.14,.74-.08,1.47-.16,2.24-.24v2.92Zm-.01,2.04c0,.13,0,.25,0,.38,0,.14,.01,.28,0,.41-.02,.23,.09,.35,.3,.42,.36,.13,.66,.02,.8-.34,.22-.58,.23-1.18,.06-1.77-.09-.32-.29-.4-.62-.34-.43,.08-.54,.18-.54,.54,0,.23,0,.47,0,.7Z"/>
  <path class="cls-1" d="M20.07,19.66c-.11,0-.19-.01-.26-.01-.04,0-.12,0-.12,0-.05-.22-.11-.44-.11-.67,0-.1,.11-.29,.17-.3,.67-.02,1.34-.01,2.03-.01v3.43c.06,.01,.09,.02,.12,.03,.15,.02,.43,.02,.43,.05,.03,.27,.02,.55,0,.82,0,.04-.14,.09-.21,.1-.21,.04-.42,.06-.63,.1-.51,.08-1.01,.15-1.29-.43-.27,.13-.51,.24-.75,.35-.97,.42-2.11-.33-2.12-1.39,0-.68,0-1.36,0-2.01-.16-.07-.39-.1-.41-.17-.04-.24-.02-.5,0-.76,0-.03,.1-.08,.15-.08,.65,0,1.29,0,1.98,0,0,.28,0,.59,0,.89,0,.62-.01,1.23,0,1.85,.01,.53,.32,.73,.8,.51,.1-.05,.21-.19,.21-.3,.02-.65,0-1.29,0-1.97Z"/>
  <path class="cls-1" d="M44.68,22.1h.49v.99c-.51,.05-1.04,.11-1.57,.13-.12,0-.24-.18-.38-.25-.09-.05-.22-.09-.31-.06-.32,.08-.62,.22-.94,.3-.47,.12-.89-.03-1.25-.32-.73-.6-.54-1.59,.38-2.08,.48-.26,1-.35,1.54-.35,.11,0,.23,0,.34,0-.02-.56-.28-.78-.75-.62-.36,.12-.69,.31-1.1,.49-.14-.19-.31-.41-.46-.64-.03-.04,0-.15,.03-.19,.51-.65,2.03-1.11,2.84-.88,.66,.19,1.12,.8,1.14,1.49,0,.33,0,.66,0,.99,0,.33,0,.66,0,1.02Zm-1.69-.86c-.31,.1-.59,.16-.84,.28-.1,.05-.2,.27-.16,.36,.05,.12,.22,.24,.35,.26,.52,.08,.73-.18,.66-.9Z"/>
  <path class="cls-1" d="M73.75,33.68h-1.26v-9.54h1.26v9.54Z"/>
  <path class="cls-1" d="M36.15,19.69c-.02-.05-.03-.07-.03-.09q-.04-.79,.73-.9c.37-.05,.74-.08,1.11-.14,.24-.04,.33,.03,.33,.28,0,.29,.04,.57,.07,.94,.15-.25,.26-.43,.38-.61,.41-.64,.86-.8,1.57-.55,.08,.03,.19,.16,.18,.22-.1,.4-.22,.79-.36,1.18-.03,.08-.19,.16-.28,.15-.73-.09-1.16,.17-1.34,.9-.08,.34-.08,.71-.12,1.09,.31,.02,.56,.04,.86,.07,0,.25,.01,.5,0,.74,0,.05-.13,.14-.2,.14-.87,.01-1.75,.02-2.62,0-.08,0-.19-.13-.22-.22-.04-.13,0-.27,0-.41,0-.19,.06-.3,.28-.29,.08,0,.23-.1,.24-.16,.02-.75,.01-1.51,.01-2.28-.2-.02-.38-.05-.57-.07Z"/>
  <path class="cls-1" d="M49.95,22.67c.17-.03,.26-.06,.34-.05,.13,.02,.26,.08,.39,.12-.06,.14-.1,.32-.2,.41-.08,.07-.26,.06-.39,.07-.43,0-.86,.01-1.29,0-.17,0-.34-.06-.49-.14-.03-.02-.01-.23,.04-.31,.11-.17,.27-.2,.47-.13,.25,.09,.39-.07,.45-.28,.17-.59,.33-1.19,.48-1.79,.07-.26,.11-.53,.17-.85-.18,0-.32,.03-.45,0-.11-.03-.26-.11-.28-.19-.05-.18,.04-.35,.25-.36,.38-.02,.76,0,1.16,0,.02,.1,.04,.19,.06,.29,.03-.02,.07-.03,.1-.05,.47-.32,.98-.47,1.55-.37,.66,.12,1,.61,.84,1.27-.16,.68-.32,1.37-.48,2.05-.07,.29-.02,.33,.26,.3,.12-.01,.33,.03,.36,.11,.08,.17,.02,.36-.2,.42-.13,.03-.27,.05-.4,.05-.42,0-.84,.01-1.26,0-.14,0-.31-.03-.4-.11-.06-.05-.05-.28,.02-.34,.1-.09,.3-.18,.41-.15,.26,.09,.38-.02,.44-.22,.2-.71,.39-1.43,.56-2.16,.07-.29-.21-.62-.51-.65-.51-.06-.96,.07-1.24,.52-.47,.77-.56,1.65-.76,2.56Z"/>
  <path class="cls-1" d="M83.82,22.68c.19-.04,.29-.08,.37-.07,.12,.02,.24,.08,.36,.12-.05,.14-.07,.31-.16,.4-.08,.08-.25,.08-.39,.08-.45,0-.9,.01-1.35,0-.16,0-.33-.05-.46-.14-.04-.02-.02-.28,.05-.33,.12-.08,.3-.13,.44-.1,.31,.05,.42-.12,.48-.35,.18-.67,.35-1.34,.52-2.01,.04-.18,.06-.37,.09-.58-.16,0-.28,0-.39,0-.16,0-.34,.03-.33-.22,0-.22,.09-.35,.32-.35,.37,0,.74,0,1.12,0,.02,.12,.03,.2,.04,.22,.42-.13,.83-.29,1.26-.38,.77-.17,1.44,.53,1.26,1.29-.17,.69-.33,1.39-.5,2.08-.06,.26,0,.31,.27,.28,.12-.01,.33,.02,.37,.1,.08,.17,.03,.37-.19,.43-.14,.04-.29,.05-.43,.05-.41,0-.82,.01-1.23,0-.14,0-.32-.02-.4-.11-.06-.07-.04-.3,.03-.37,.1-.09,.3-.16,.42-.12,.25,.08,.36-.04,.41-.22,.2-.71,.39-1.43,.56-2.16,.07-.29-.2-.62-.51-.66-.51-.06-.96,.06-1.24,.52-.47,.77-.56,1.65-.77,2.58Z"/>
  <path class="cls-1" d="M73.14,21.37c-.15-.04-.28-.06-.41-.11-.35-.15-.54-.42-.56-.81-.02-.43,.14-.74,.52-.94,.12-.07,.23-.18,.35-.24,.11-.06,.25-.12,.37-.12,.21,0,.33-.06,.37-.29,.04-.24,.12-.46,.19-.7,.06-.21,.2-.31,.42-.3,.23,0,.3,.13,.26,.34-.07,.29-.15,.58-.24,.94,.32,0,.61,0,.9,0,.17,0,.34,0,.33,.23,0,.23-.1,.39-.35,.41-.23,.01-.47,.02-.7,0-.25-.02-.38,.08-.43,.31-.15,.66-.3,1.33-.47,1.98-.06,.24-.04,.45,.17,.55,.23,.11,.51,.05,.64-.18,.16-.29,.25-.62,.37-.93,.08-.2,.18-.38,.43-.32,.09,.02,.21,.12,.22,.2,.09,.77-.63,1.74-1.39,1.88-.19,.04-.41,.03-.6,0-.53-.12-.72-.52-.57-1.18,.05-.23,.11-.46,.18-.71Z"/>
  <path class="cls-1" d="M90.95,19.19c.03-.05,.06-.14,.11-.15,.12-.04,.26-.09,.38-.07,.05,0,.12,.19,.1,.28-.07,.4-.16,.8-.27,1.19-.06,.22-.28,.27-.47,.2-.07-.03-.11-.24-.09-.36,.07-.4-.13-.7-.6-.69-.3,0-.63,.16-.89,.33-.12,.08-.17,.37-.14,.54,.02,.11,.24,.22,.39,.26,.31,.09,.64,.13,.95,.19,.58,.12,.88,.55,.63,1.25-.24,.67-.78,.99-1.43,1.1-.5,.08-1.01,.09-1.48-.26-.03,.08-.04,.18-.09,.2-.15,.06-.31,.1-.47,.14-.04-.13-.12-.26-.1-.38,.08-.41,.19-.81,.3-1.22,.06-.22,.2-.36,.44-.3,.07,.02,.18,.14,.18,.2-.04,.3-.17,.62,.15,.84,.35,.24,.75,.3,1.14,.15,.21-.08,.43-.2,.57-.37,.29-.37,.14-.68-.33-.77-.25-.05-.5-.08-.74-.13-1.1-.2-1.16-.85-.63-1.67,.43-.66,1.69-.98,2.4-.51Z"/>
  <path class="cls-1" d="M65.28,22.4c.55-.9,1.08-1.76,1.65-2.68-.21,0-.36,.02-.49,0-.1-.02-.28-.13-.27-.15,.04-.14,.1-.29,.2-.39,.06-.06,.2-.06,.3-.06,.5,0,1.01,0,1.51,.04,.12,0,.22,.13,.33,.2-.11,.12-.23,.35-.33,.34-.44-.05-.63,.22-.82,.52-.57,.89-1.14,1.78-1.71,2.67-.14,.22-.3,.39-.59,.41-.3,.02-.44-.12-.48-.38-.1-.67-.18-1.33-.27-2-.04-.33-.08-.67-.14-1-.03-.21-.2-.19-.36-.2-.13,0-.36-.07-.37-.15-.05-.22,.1-.37,.33-.42,.04,0,.09,0,.13,0,.53,0,1.06,0,1.58,0,.16,0,.3,0,.3,.22,0,.2-.06,.32-.28,.35-.57,.06-.57,.06-.49,.68,.07,.61,.13,1.21,.2,1.82,0,.04,.03,.07,.07,.18Z"/>
  <path class="cls-1" d="M82.34,20.42c.04,1.3-.83,2.48-1.76,2.74-.4,.11-.85,.17-1.24,.09-.73-.14-1-.68-.99-1.35,.01-.86,.28-1.66,.93-2.28,.6-.58,1.33-.75,2.13-.59,.56,.12,1.02,.64,.94,1.39Zm-.7,.14c0-.66-.33-1.01-.9-.97-.24,.02-.51,.1-.7,.23-.71,.5-.94,1.25-.94,2.07,0,.53,.41,.88,.89,.81,.28-.04,.58-.16,.8-.33,.62-.47,.77-1.17,.86-1.82Z"/>
  <path class="cls-1" d="M60.64,23.31c-1.3,.02-1.77-.76-1.65-1.68,.1-.78,.36-1.46,.93-2.02,.69-.68,1.92-.83,2.53-.36,.23,.18,.47,.49,.5,.76,.12,1.16-.22,2.17-1.2,2.89-.4,.3-.85,.41-1.11,.41Zm1.63-2.73c0-.7-.38-1.07-1-.99-.2,.03-.42,.1-.58,.21-.72,.51-.97,1.27-.96,2.09,0,.53,.42,.88,.89,.8,.28-.04,.58-.16,.8-.33,.61-.46,.76-1.16,.85-1.79Z"/>
  <path class="cls-1" d="M76.97,19.71c-.23,0-.36,.02-.48,0-.1-.02-.19-.11-.28-.16,.08-.13,.15-.36,.24-.37,.4-.04,.81-.03,1.21,0,.05,0,.13,.26,.1,.38-.18,.74-.39,1.48-.59,2.22-.05,.2-.11,.41-.14,.61-.02,.17,0,.33,.26,.24,.17-.06,.38-.07,.43,.17,.05,.23-.1,.36-.3,.41-.11,.03-.23,.02-.35,.02-.42,0-.84,.01-1.26,0-.16,0-.33-.05-.46-.13-.04-.02-.02-.28,.04-.33,.13-.09,.34-.18,.47-.14,.32,.1,.39-.13,.45-.31,.15-.5,.27-1.01,.4-1.52,.08-.34,.16-.69,.25-1.08Z"/>
  <path class="cls-1" d="M47.43,19.71c-.23,0-.36,.02-.48,0-.1-.02-.19-.11-.28-.16,.08-.13,.15-.36,.25-.37,.4-.04,.81-.03,1.21,0,.05,0,.13,.26,.1,.38-.18,.74-.39,1.48-.59,2.22-.05,.2-.11,.41-.14,.61-.02,.17,0,.33,.26,.24,.17-.06,.38-.07,.43,.17,.05,.23-.11,.36-.3,.41-.11,.03-.23,.02-.35,.02-.42,0-.84,.01-1.26,0-.16,0-.33-.05-.46-.13-.04-.02-.02-.28,.04-.33,.13-.09,.34-.18,.47-.14,.32,.1,.39-.13,.45-.31,.15-.5,.27-1.01,.4-1.52,.08-.34,.16-.69,.25-1.08Z"/>
  <path class="cls-1" d="M77.48,18.75c-.25,.03-.38-.09-.38-.36,0-.31,.27-.58,.58-.59,.22,0,.42,.18,.41,.39,0,.31-.28,.56-.62,.56Z"/>
  <path class="cls-1" d="M47.93,18.75c-.27,.02-.38-.12-.37-.38,0-.31,.28-.58,.6-.57,.22,0,.41,.19,.4,.4-.01,.31-.29,.55-.63,.55Z"/>
</svg>