<?xml version="1.0" encoding="UTF-8"?>
<svg id="Capa_1" data-name="Capa 1" xmlns="http://www.w3.org/2000/svg" viewBox="0 0 100 50">
  <defs>
    <style>
      .cls-1 {
        fill: #888e99;
      }
    </style>
  </defs>
  <g>
    <path class="cls-1" d="M15.76,25.26c0,2.66-.39,4.68-4.43,4.68s-4.64-1.94-4.64-4.68v-6.46c0-1.46-.62-1.59-1.69-1.59v-.39h5.11v.39c-1.05,0-1.69,.13-1.69,1.59v6.46c0,1.98,.47,3.92,2.99,3.92,2.8,0,3.24-1.61,3.24-3.92v-6.46c0-1.46-.64-1.59-1.69-1.59v-.39h4.49v.39c-1.07,0-1.69,.13-1.69,1.59v6.46h0Z"/>
    <path class="cls-1" d="M26.5,29.42c-.95,.35-2.04,.53-3.47,.53-3.89,0-5.75-2.96-5.75-7.09,0-3.59,1.16-6.24,5.32-6.24,1.56,0,2.87,.31,3.73,.54l.18,3.05h-.49c-.25-1.09-1.03-2.84-3.44-2.84-3.12,0-3.38,3.32-3.38,5.33,0,2.5,.54,6.37,4.8,6.37,1.3,0,2-.29,2.5-.49v.84h0Z"/>
    <path class="cls-1" d="M36.93,19.61c-.18-1.03-.95-2.24-3.03-2.24-1.31,0-2.44,.84-2.44,2.12,0,1.72,2.31,2.29,4,3.28,1.53,.9,2.56,1.69,2.56,3.53,0,2.47-2.14,3.63-4.8,3.63-1.32,0-2.86-.29-3.34-.37l-.13-2.74h.49c.15,1.03,1.07,2.24,3.15,2.24,1.71,0,2.81-1.11,2.81-2.44,0-2.09-3.22-2.74-5.03-4.12-.85-.66-1.26-1.36-1.26-2.6,0-2.33,1.93-3.28,4.37-3.28,1.31,0,2.14,.16,3.01,.33l.13,2.66h-.49Z"/>
    <path class="cls-1" d="M45.96,29.76c-.21,.05-.64,.16-1.26,.16-1,0-1.3-.52-1.3-1.26h-.03c-.54,.78-1.27,1.26-2.45,1.26s-2.07-.83-2.07-1.95c0-2.5,3.25-2.5,4.56-2.63v-.65c0-1.21-.02-2.49-1.47-2.49-1.07,0-1.21,.45-1.21,1,0,.71-.52,.9-.81,.9-.47,0-.83-.31-.83-.78,0-1.12,1.67-1.69,2.87-1.69,2.37,0,2.8,1.14,2.8,2.75v4.29c0,.6,.21,.81,.75,.81,.15,0,.31-.03,.47-.07v.35h-.03Zm-2.56-3.85c-.81,.02-3.02,.18-3.02,1.78,0,.9,.59,1.5,1.18,1.5,1.12,0,1.85-1.09,1.85-2.26v-1.02h0Z"/>
    <path class="cls-1" d="M46.34,29.45c.73,0,1.31-.15,1.31-1.28v-4.71c0-1.04-.81-1.09-1.31-1.12v-.29l2.66-.41v2.28h.03c.24-.64,1.01-2.28,2.73-2.28,1.83,0,2,1,2,2.61v3.94c0,1.12,.59,1.28,1.31,1.28v.29h-3.98v-.31c.73,0,1.31-.15,1.31-1.28v-3.56c0-1.48-.02-2.16-1.16-2.16-1.02,0-2.26,1.95-2.26,3.59v2.13c0,1.12,.59,1.28,1.31,1.28v.29h-3.98v-.29h0Z"/>
    <path class="cls-1" d="M57.05,29.36c1.05,0,1.69-.13,1.69-1.59v-8.98c0-1.46-.64-1.59-1.69-1.59v-.39h4.55c3.22,0,6.64,.69,6.64,6.49s-3.59,6.45-6.64,6.45h-4.55v-.39Zm3.42-2c0,1.42,.16,1.63,1.13,1.63,3.34,0,4.72-1.78,4.72-5.69,0-3.58-1.03-5.73-4.72-5.73-.97,0-1.13,.12-1.13,1.63v8.16Z"/>
    <path class="cls-1" d="M68.95,29.45c.73,0,1.31-.15,1.31-1.28v-4.71c0-1.04-.8-1.09-1.31-1.12v-.29l2.66-.41v6.55c0,1.12,.59,1.28,1.31,1.28v.29h-3.98v-.3Zm.95-10.4c0-.55,.44-.99,.98-.99s.99,.44,.99,.99-.44,.99-.99,.99-.98-.44-.98-.99Z"/>
    <path class="cls-1" d="M79.18,29.61c-.42,.16-1,.31-2.06,.31-2.68,0-4.18-1.47-4.18-4.37,0-2.52,1.02-3.92,3.51-3.92,1.56,0,2.96,.86,2.96,2.86v.38h-5.02c0,1.45,.7,4.4,3.59,4.4,.39,0,.86-.05,1.21-.23v.56h0Zm-1.31-5.31c0-.91-.31-2.11-1.64-2.11s-1.85,1.47-1.85,2.11h3.49Z"/>
    <path class="cls-1" d="M85.02,28.36c.83,0,2.75,.03,2.75,1.95s-1.93,3.07-4.24,3.07c-1.69,0-3.46-.64-3.46-2.19,0-1.07,.8-1.54,1.35-1.82-.29-.18-.75-.5-.75-1.22,0-.64,.55-1.3,.75-1.51-.4-.33-1-.85-1-2.31,0-2.23,1.62-2.71,3.27-2.71,.8,0,1.23,.13,1.78,.43,.28-.65,.69-1.85,1.74-1.85,.49,0,.83,.31,.83,.83,0,.47-.29,.78-.81,.78-.45,0-.55-.24-.78-.24-.38,0-.54,.5-.62,.78,.21,.23,.78,.86,.78,2.08,0,1.74-1.09,2.73-3.16,2.73-.69,0-1.2-.08-1.57-.26-.11,.14-.31,.39-.31,.78,0,.69,.86,.69,1.42,.69h2.04Zm-2.99,1.23c-.34,.26-.83,.55-.83,1.33,0,1.02,.91,1.9,2.42,1.9s3.02-.81,3.02-2.06c0-.88-.73-1.17-1.59-1.17h-3.02Zm1.5-3.01c1.45,0,1.64-1.14,1.64-2.06,0-1.3-.45-2.33-1.69-2.33-1.36,0-1.62,1-1.62,2,0,1.31,.44,2.39,1.67,2.39Z"/>
    <path class="cls-1" d="M87.78,25.77c0-2.6,1.4-4.14,3.61-4.14s3.61,1.56,3.61,4.14-1.4,4.14-3.61,4.14-3.61-1.56-3.61-4.14Zm3.61,3.58c1.72,0,2.08-2.14,2.08-3.58s-.34-3.58-2.08-3.58-2.07,2.14-2.07,3.58c0,1.43,.34,3.58,2.07,3.58Z"/>
  </g>
  <g id="line">
    <path class="cls-1" d="M79.19,32.72H5v.44H79.61c-.16-.13-.3-.28-.42-.44Z"/>
    <path class="cls-1" d="M94.87,32.72h-6.82c-.15,.16-.33,.3-.51,.44h7.33v-.44h0Z"/>
  </g>
</svg>