<svg xmlns="http://www.w3.org/2000/svg" viewBox="0 0 1168.99 692.97"><defs><style>.cls-1{fill:#fff;}.cls-2{fill:#80bc00;}</style></defs><title>Logo_SIMO_Blanco</title><g id="Capa_2" data-name="Capa 2"><g id="Capa_1-2" data-name="Capa 1"><path class="cls-1" d="M938.31,53.63c-88.6,0-160.43,64.78-160.43,144.69,0,34.19,13.23,65.53,35.21,90.28l-23.73,66.66a14,14,0,0,0,19.32,17.34l77.47-37.46A176.06,176.06,0,0,0,938.31,343c88.61,0,160.43-64.78,160.43-144.69S1026.92,53.63,938.31,53.63Zm0,260.18a147.05,147.05,0,0,1-43.53-6.56l-11-3.41-55.13,29.6a1.51,1.51,0,0,1-2.11-1.89l19.84-49.43-11.47-12.91c-18.22-20.51-27.85-45-27.85-70.89,0-63.68,58.88-115.48,131.24-115.48s131.22,51.8,131.22,115.48S1010.68,313.81,938.32,313.81Z"/><path class="cls-1" d="M1121,18.55h14.87a14.5,14.5,0,0,1,6.08,1.1c3,1.4,4.58,4,4.58,7.74a8.51,8.51,0,0,1-1.24,4.8,8.88,8.88,0,0,1-3.4,3,6.63,6.63,0,0,1,2.87,2,7.16,7.16,0,0,1,1.09,4.12l.15,4.39a18.51,18.51,0,0,0,.3,2.79,2.77,2.77,0,0,0,1.45,2v.72h-5.44a3.93,3.93,0,0,1-.36-1.07,19.88,19.88,0,0,1-.25-2.61l-.25-5.46c-.09-2.13-.88-3.57-2.32-4.3a8.92,8.92,0,0,0-3.87-.6h-9.81v14H1121Zm14.44,15a8.23,8.23,0,0,0,4.82-1.24c1.13-.82,1.73-2.33,1.73-4.48,0-2.33-.82-3.94-2.45-4.77a8,8,0,0,0-3.58-.68h-10.51V33.54Z"/><path class="cls-1" d="M1133.88,70.2A35.1,35.1,0,1,1,1169,35.1a35.17,35.17,0,0,1-35.11,35.1m0-65.32a30.23,30.23,0,1,0,30.21,30.22,30.31,30.31,0,0,0-30.21-30.22"/><path class="cls-1" d="M11.51,554.59A33.57,33.57,0,0,1,0,544.49l6.73-5.78q4.41,6.1,9,8.56a24.43,24.43,0,0,0,11.67,2.47c6.24,0,11-1.09,14.24-3.3a11,11,0,0,0,4.89-9.72,9,9,0,0,0-2-6q-1.95-2.31-6.78-4.05a109,109,0,0,0-14.29-3.62Q12.93,521,7.88,515.9t-5-13.35q0-9.68,7-15.24T29,481.74q18,0,25.44,11.88l-6.73,5.46A25.7,25.7,0,0,0,39.58,492a22.5,22.5,0,0,0-10.67-2.37q-7.57,0-11.83,3.42a11.28,11.28,0,0,0-4.26,9.3A9.55,9.55,0,0,0,17,510.59c2.8,2,7,3.56,12.72,4.68a82.39,82.39,0,0,1,15.45,4.42,19.41,19.41,0,0,1,8.52,6.41c1.89,2.67,2.83,6.16,2.83,10.5q0,10.41-7.3,15.72t-21.5,5.31q-10.09,0-16.24-3"/><path class="cls-1" d="M70.37,495.66a5.83,5.83,0,1,1,4.16,1.74,5.66,5.66,0,0,1-4.16-1.74m1,57.19a15.13,15.13,0,0,1-1.52-7.41V507.07h9.25v38.37a7,7,0,0,0,.84,3.62A11.82,11.82,0,0,0,83,552.17l-6.2,5.46a13.15,13.15,0,0,1-5.42-4.78"/><path class="cls-1" d="M100.12,555.58a22.17,22.17,0,0,1-7.83-6.67l5.89-5a20.23,20.23,0,0,0,5.94,5,15.78,15.78,0,0,0,7.2,1.47q11.45,0,11.46-7.25a5.58,5.58,0,0,0-1.21-3.73,9.39,9.39,0,0,0-4.21-2.43,69.76,69.76,0,0,0-9-2c-4.91-1-8.58-2.68-11-5.1a12.87,12.87,0,0,1-3.68-9.62A12.47,12.47,0,0,1,98.6,509.7q4.94-3.78,13.56-3.78,12.72,0,17.87,8.09L124.14,519a16.26,16.26,0,0,0-5.31-4.41,15,15,0,0,0-6.67-1.37q-4.64,0-7.15,1.89a6.2,6.2,0,0,0-2.52,5.26,5.28,5.28,0,0,0,2.42,4.67,21.79,21.79,0,0,0,7.67,2.68A64.54,64.54,0,0,1,123.51,531a13.57,13.57,0,0,1,6,4.62,13.17,13.17,0,0,1,2,7.61q0,14.43-20.18,14.41-6.94,0-11.2-2"/><path class="cls-1" d="M152.21,514.32v26.49c0,3,.59,5.24,1.78,6.68s3.08,2.15,5.68,2.15h6.73v7.26h-6.73q-8.94,0-12.83-3.79T143,540.81V496.87a7,7,0,0,0-.84-3.62,11.74,11.74,0,0,0-3-3.1l6.2-5.47a13.18,13.18,0,0,1,5.41,4.78,15.15,15.15,0,0,1,1.53,7.41v10.2H166.4v7.25Z"/><path class="cls-1" d="M205,549.23a19.29,19.29,0,0,0,6.05-4.11l5.67,5.15a18.8,18.8,0,0,1-7.83,5.58,32.45,32.45,0,0,1-11.51,1.78q-10.83,0-16.35-4.68T175.55,539V523.36c0-5.39,1.86-9.65,5.62-12.77s8.88-4.68,15.4-4.68q10.1,0,15.61,4.94T217.7,525q0,6.21-2.16,8.53c-1.43,1.53-4.19,2.3-8.25,2.3H184.8v3.26q0,5.67,3.15,8.52t9.67,2.84a19.83,19.83,0,0,0,7.41-1.26M187.9,516a10.5,10.5,0,0,0-3.1,8v5.27h18c2.17,0,3.67-.36,4.47-1.06s1.21-2,1.21-4c0-3.51-1-6.24-3.16-8.21s-5-2.94-8.72-2.94S190,514,187.9,516"/><path class="cls-1" d="M296.48,510.28c2.63,2.91,3.94,7.05,3.94,12.45v33.75h-9.25V523.89c0-3.44-.73-6.08-2.21-7.94a7.46,7.46,0,0,0-6.2-2.78,10.85,10.85,0,0,0-8.15,3.62,20.4,20.4,0,0,0-4.78,9.73v30h-9.25V523.89c0-3.44-.73-6.08-2.21-7.94a7.46,7.46,0,0,0-6.2-2.78,10.85,10.85,0,0,0-8.2,3.73,20,20,0,0,0-4.73,9.62v30H230V518.11a7,7,0,0,0-.84-3.62,11.82,11.82,0,0,0-3.05-3.11l6.1-5.47q6.3,3.16,6.83,9.57a18.56,18.56,0,0,1,6.52-7.1,17.1,17.1,0,0,1,9.14-2.47,14.66,14.66,0,0,1,9.41,2.89,14,14,0,0,1,4.79,8.36,16.85,16.85,0,0,1,6.25-8.2,17.35,17.35,0,0,1,10.14-3q7.26,0,11.2,4.37"/><path class="cls-1" d="M356.45,549.06a12,12,0,0,0,3.05,3.11l-6.2,5.46c-3.58-1.82-5.75-4.42-6.52-7.77a17.37,17.37,0,0,1-7,5.67,23.85,23.85,0,0,1-10.25,2.1q-7.89,0-12.19-3.73T313,543.12q0-7.25,5-10.82T332,527.78l7.15-.85c3-.34,5-.89,5.94-1.62s1.38-2,1.31-3.83a9.35,9.35,0,0,0-3.31-6.52q-2.88-2.43-8.78-2.43a17.31,17.31,0,0,0-7.36,1.43,15.91,15.91,0,0,0-5.57,4.56L315,514a16.33,16.33,0,0,1,7.31-6,29.67,29.67,0,0,1,11.93-2.06q10.62,0,16,4.42t5.36,12.82v22.29a7,7,0,0,0,.84,3.62m-14-1.73a11.14,11.14,0,0,0,4-8.83v-7a19,19,0,0,1-7.46,1.78l-6.2.64c-7.28.83-10.93,3.82-10.93,8.93a7.19,7.19,0,0,0,2.52,5.94c1.68,1.36,4.14,2,7.36,2q6.62,0,10.67-3.47"/><path class="cls-1" d="M374.69,555.58a22.17,22.17,0,0,1-7.83-6.67l5.89-5a20.11,20.11,0,0,0,5.94,5,15.78,15.78,0,0,0,7.2,1.47q11.44,0,11.45-7.25a5.57,5.57,0,0,0-1.2-3.73,9.39,9.39,0,0,0-4.21-2.43,70.17,70.17,0,0,0-9-2c-4.91-1-8.58-2.68-11-5.1a12.87,12.87,0,0,1-3.68-9.62,12.47,12.47,0,0,1,4.94-10.51q4.93-3.78,13.56-3.78,12.7,0,17.87,8.09L398.71,519a16.26,16.26,0,0,0-5.31-4.41,15,15,0,0,0-6.67-1.37q-4.64,0-7.15,1.89a6.2,6.2,0,0,0-2.52,5.26,5.29,5.29,0,0,0,2.41,4.67,21.93,21.93,0,0,0,7.68,2.68A64.83,64.83,0,0,1,398.08,531a13.57,13.57,0,0,1,6,4.62,13.17,13.17,0,0,1,2,7.61q0,14.43-20.18,14.41-6.94,0-11.2-2"/><path class="cls-1" d="M490.68,549.07a12.11,12.11,0,0,0,3.05,3.1l-6.2,5.46a12.49,12.49,0,0,1-6.41-8.4q-5.25,8.4-16.51,8.4a21.42,21.42,0,0,1-11.4-3,20,20,0,0,1-7.57-8.46A28.57,28.57,0,0,1,443,533.45v-3.36a29,29,0,0,1,2.57-12.51A20,20,0,0,1,453,509a21.2,21.2,0,0,1,11.61-3.11q10.72,0,16,7.37V491.73a7.13,7.13,0,0,0-.79-3.59,13.45,13.45,0,0,0-3.1-3.25l6.31-5.47a12.84,12.84,0,0,1,5.36,4.79,15.79,15.79,0,0,1,1.47,7.52v53.7a7.08,7.08,0,0,0,.84,3.64m-10.09-25.49a15.23,15.23,0,0,0-5.1-7.83,14.15,14.15,0,0,0-8.78-2.59,13.06,13.06,0,0,0-10.56,4.73q-3.94,4.74-3.94,12.2v3.36q0,7.49,3.89,12.19a13,13,0,0,0,10.61,4.73,14.21,14.21,0,0,0,8.78-2.56,15.32,15.32,0,0,0,5.1-7.83Z"/><path class="cls-1" d="M532.68,549.23a19.37,19.37,0,0,0,6-4.11l5.68,5.15a18.86,18.86,0,0,1-7.83,5.58,32.45,32.45,0,0,1-11.51,1.78q-10.83,0-16.35-4.68T503.19,539V523.36q0-8.08,5.63-12.77t15.4-4.68q10.08,0,15.61,4.94T545.35,525c0,4.14-.73,7-2.16,8.53s-4.19,2.3-8.25,2.3h-22.5v3.26q0,5.67,3.16,8.52t9.67,2.84a19.87,19.87,0,0,0,7.41-1.26M515.54,516a10.54,10.54,0,0,0-3.1,8v5.27h18c2.17,0,3.66-.36,4.47-1.06s1.21-2,1.21-4a10.7,10.7,0,0,0-3.16-8.21q-3.15-2.94-8.72-2.94T515.54,516"/><rect class="cls-1" x="586.45" y="482.89" width="9.99" height="73.58"/><path class="cls-1" d="M651,510.33q4.26,4.43,4.26,12.4v33.75h-9.25V523.9c0-3.38-.84-6-2.52-7.9a8.83,8.83,0,0,0-6.94-2.83,11.8,11.8,0,0,0-8.52,3.46,20.64,20.64,0,0,0-5.25,9.36v30.49h-9.25V518.11a7.08,7.08,0,0,0-.84-3.62,11.82,11.82,0,0,0-3.05-3.1l6.09-5.48a15.6,15.6,0,0,1,4.94,4,11.22,11.22,0,0,1,2,5.46,18.08,18.08,0,0,1,6.62-6.93,18.55,18.55,0,0,1,9.78-2.53q7.67,0,11.93,4.42"/><path class="cls-1" d="M678.74,514.32v26.49c0,3,.59,5.24,1.79,6.68s3.07,2.15,5.67,2.15h6.73v7.26H686.2q-8.93,0-12.82-3.79t-3.89-12.3V496.87a7.1,7.1,0,0,0-.84-3.62,12,12,0,0,0-3-3.1l6.2-5.47a13.18,13.18,0,0,1,5.41,4.78,15,15,0,0,1,1.53,7.41v10.2h14.19v7.25Z"/><path class="cls-1" d="M731.56,549.23a19.29,19.29,0,0,0,6.05-4.11l5.67,5.15a18.8,18.8,0,0,1-7.83,5.58,32.45,32.45,0,0,1-11.51,1.78q-10.83,0-16.35-4.68T702.08,539V523.36c0-5.39,1.86-9.65,5.62-12.77s8.88-4.68,15.4-4.68q10.1,0,15.61,4.94T744.23,525q0,6.21-2.16,8.53c-1.43,1.53-4.19,2.3-8.25,2.3H711.33v3.26q0,5.67,3.15,8.52t9.67,2.84a19.83,19.83,0,0,0,7.41-1.26M714.43,516a10.5,10.5,0,0,0-3.1,8v5.27h18c2.17,0,3.66-.36,4.47-1.06s1.21-2,1.21-4c0-3.51-1.05-6.24-3.16-8.21s-5-2.94-8.72-2.94-6.61,1-8.67,2.94"/><path class="cls-1" d="M758.05,552.85a15.13,15.13,0,0,1-1.52-7.41V491.62a7.17,7.17,0,0,0-.84-3.63,12.12,12.12,0,0,0-3.05-3.1l6.09-5.47a13.2,13.2,0,0,1,5.52,4.79,15,15,0,0,1,1.53,7.41v53.82a7.33,7.33,0,0,0,.79,3.62,10.85,10.85,0,0,0,3,3.11l-6.1,5.46a13.12,13.12,0,0,1-5.41-4.78"/><path class="cls-1" d="M783.07,495.66a5.82,5.82,0,1,1,4.15,1.74,5.63,5.63,0,0,1-4.15-1.74m1,57.19a15,15,0,0,1-1.53-7.41V507.07h9.25v38.37a7,7,0,0,0,.84,3.62,12,12,0,0,0,3.05,3.11l-6.2,5.46a13.05,13.05,0,0,1-5.41-4.78"/><path class="cls-1" d="M856,511.39a11.49,11.49,0,0,0-3.05,3.1,6.91,6.91,0,0,0-.84,3.62v41.31q0,9.24-4.94,13.66t-15.46,4.42h-13v-7.25h13c3.72,0,6.51-.9,8.36-2.68s2.79-4.51,2.79-8.15V548.91q-5.16,7.56-16,7.57-10,0-15.82-6.52t-5.84-17.66v-2.21a29,29,0,0,1,2.58-12.51,19.94,19.94,0,0,1,7.46-8.56,23,23,0,0,1,21.18-1,19,19,0,0,1,7.05,6.09,10.49,10.49,0,0,1,1.78-4.61,13,13,0,0,1,4.52-3.59Zm-18.19,35.2a15.79,15.79,0,0,0,5.05-8V523.68a15.37,15.37,0,0,0-5.1-7.93,14.13,14.13,0,0,0-8.78-2.58,13,13,0,0,0-10.56,4.73q-3.95,4.74-3.95,12.19v2.21q0,7.47,3.89,12.19A13,13,0,0,0,829,549.23a14,14,0,0,0,8.83-2.64"/><path class="cls-1" d="M894.91,549.23a19.29,19.29,0,0,0,6.05-4.11l5.67,5.15a18.8,18.8,0,0,1-7.83,5.58,32.41,32.41,0,0,1-11.51,1.78q-10.81,0-16.34-4.68T865.43,539V523.36q0-8.08,5.62-12.77t15.4-4.68q10.09,0,15.61,4.94T907.58,525q0,6.21-2.16,8.53t-8.25,2.3H874.68v3.26q0,5.67,3.15,8.52t9.67,2.84a19.83,19.83,0,0,0,7.41-1.26M877.78,516a10.5,10.5,0,0,0-3.1,8v5.27h18c2.17,0,3.67-.36,4.47-1.06s1.21-2,1.21-4c0-3.51-1.05-6.24-3.15-8.21s-5-2.94-8.73-2.94-6.61,1-8.67,2.94"/><path class="cls-1" d="M957.36,510.33q4.25,4.43,4.25,12.4v33.75h-9.25V523.9c0-3.38-.84-6-2.52-7.9a8.81,8.81,0,0,0-6.94-2.83,11.78,11.78,0,0,0-8.51,3.46,20.66,20.66,0,0,0-5.26,9.36v30.49h-9.25V518.11a7.08,7.08,0,0,0-.84-3.62,11.66,11.66,0,0,0-3-3.1l6.1-5.48a15.71,15.71,0,0,1,4.94,4,11.42,11.42,0,0,1,2,5.46,17.94,17.94,0,0,1,6.62-6.93,18.54,18.54,0,0,1,9.77-2.53q7.68,0,11.94,4.42"/><path class="cls-1" d="M980.38,552.8q-5.64-4.83-5.63-13.88V524.63q0-8.94,5.73-13.83c3.81-3.26,9.24-4.89,16.24-4.89q12.62,0,18.82,8.1l-6.31,5.25a19.4,19.4,0,0,0-5.68-4.73,15.36,15.36,0,0,0-6.83-1.36q-6.09,0-9.41,3c-2.2,2-3.31,4.82-3.31,8.47v14.29c0,3.65,1.08,6.47,3.26,8.46s5.29,3,9.36,3a16.49,16.49,0,0,0,7.3-1.47,16.31,16.31,0,0,0,5.52-4.63l6.31,5.26a18.66,18.66,0,0,1-7.68,6.1,28.94,28.94,0,0,1-11.45,2q-10.62,0-16.24-4.83"/><path class="cls-1" d="M1028.2,495.66a5.82,5.82,0,1,1,4.15,1.74,5.63,5.63,0,0,1-4.15-1.74m1,57.19a15.13,15.13,0,0,1-1.52-7.41V507.07H1037v38.37a6.91,6.91,0,0,0,.84,3.62,11.66,11.66,0,0,0,3,3.11l-6.21,5.46a13.12,13.12,0,0,1-5.41-4.78"/><path class="cls-1" d="M1094.27,549.06a11.9,11.9,0,0,0,3,3.11l-6.2,5.46c-3.57-1.82-5.74-4.42-6.52-7.77a17.3,17.3,0,0,1-7,5.67,23.81,23.81,0,0,1-10.24,2.1q-7.89,0-12.2-3.73t-4.31-10.78q0-7.25,5.05-10.82t13.87-4.52l7.15-.85c3-.34,5-.89,5.94-1.62s1.38-2,1.31-3.83a9.32,9.32,0,0,0-3.31-6.52c-1.92-1.62-4.85-2.43-8.77-2.43a17.25,17.25,0,0,0-7.36,1.43,15.82,15.82,0,0,0-5.57,4.56l-6.31-4.51a16.36,16.36,0,0,1,7.3-6,29.69,29.69,0,0,1,11.94-2.06q10.62,0,16,4.42t5.36,12.82v22.29a6.9,6.9,0,0,0,.85,3.62m-14-1.73a11.12,11.12,0,0,0,4-8.83v-7a19,19,0,0,1-7.46,1.78l-6.21.64c-7.28.83-10.93,3.82-10.93,8.93a7.19,7.19,0,0,0,2.52,5.94c1.69,1.36,4.14,2,7.36,2q6.63,0,10.67-3.47"/><path class="cls-1" d="M30.85,661.85a19.08,19.08,0,0,0,6-4.1l5.67,5.15a18.8,18.8,0,0,1-7.83,5.58,32.67,32.67,0,0,1-11.51,1.78q-10.83,0-16.35-4.68T1.37,651.65V636c0-5.39,1.87-9.66,5.62-12.77s8.88-4.68,15.4-4.68q10.09,0,15.61,4.94t5.52,14.19q0,6.21-2.16,8.52c-1.43,1.54-4.19,2.31-8.25,2.31H10.62v3.26q0,5.67,3.15,8.52t9.67,2.84a19.63,19.63,0,0,0,7.41-1.27M13.72,628.63a10.48,10.48,0,0,0-3.1,8v5.26h18c2.17,0,3.67-.35,4.47-1.06s1.21-2,1.21-4c0-3.51-1.05-6.24-3.16-8.21s-5-2.94-8.72-2.94-6.61,1-8.67,2.94"/><path class="cls-1" d="M93.29,623q4.26,4.44,4.26,12.41V669.1H88.3V636.52q0-5.06-2.52-7.89a8.82,8.82,0,0,0-6.94-2.84,11.83,11.83,0,0,0-8.52,3.47,20.59,20.59,0,0,0-5.25,9.36V669.1H55.82V630.73a7.13,7.13,0,0,0-.84-3.62,12,12,0,0,0-3-3.1l6.1-5.47a15.84,15.84,0,0,1,4.94,4A11.35,11.35,0,0,1,65,628a18.06,18.06,0,0,1,6.63-6.94,18.63,18.63,0,0,1,9.77-2.52q7.68,0,11.93,4.41"/><path class="cls-1" d="M141.8,595.52h5.57c3.93,0,6.95.84,9.09,2.53s4.37,4.8,6.68,9.35l12.4,23.86L188,607.4q3.47-6.82,6.67-9.35t9.1-2.53h5.57v73.59H200v-63.4a3.71,3.71,0,0,0-2.37,1.11,16.33,16.33,0,0,0-2.36,3.42l-19.77,37.1-19.76-37.1a13.59,13.59,0,0,0-2.31-3.42,4,4,0,0,0-2.42-1.11v63.4H141.8Z"/><path class="cls-1" d="M254.22,661.85a19.08,19.08,0,0,0,6-4.1l5.67,5.15a18.8,18.8,0,0,1-7.83,5.58,32.63,32.63,0,0,1-11.51,1.78q-10.82,0-16.34-4.68t-5.52-13.93V636c0-5.39,1.87-9.66,5.62-12.77s8.88-4.68,15.4-4.68q10.1,0,15.61,4.94t5.52,14.19q0,6.21-2.15,8.52t-8.26,2.31H234v3.26q0,5.67,3.15,8.52t9.67,2.84a19.63,19.63,0,0,0,7.41-1.27m-17.13-33.22a10.48,10.48,0,0,0-3.1,8v5.26h18c2.17,0,3.67-.35,4.47-1.06s1.21-2,1.21-4c0-3.51-1.05-6.24-3.15-8.21s-5-2.94-8.73-2.94-6.61,1-8.67,2.94"/><path class="cls-1" d="M311.36,620.75,309,628.84a14.68,14.68,0,0,0-7.56-2.1,10.28,10.28,0,0,0-8.1,4,25.46,25.46,0,0,0-4.94,10.73V669.1h-9.25V630.73a7,7,0,0,0-.84-3.62,11.81,11.81,0,0,0-3.05-3.1l6.2-5.47a14,14,0,0,1,5.21,4.36,13.43,13.43,0,0,1,1.73,6.57,19.87,19.87,0,0,1,6.2-8,15,15,0,0,1,9.15-2.89,12.6,12.6,0,0,1,7.57,2.21"/><path class="cls-1" d="M321.71,665.42q-5.62-4.83-5.62-13.87v-14.3q0-8.93,5.73-13.82t16.24-4.89q12.62,0,18.81,8.1l-6.31,5.25a19.37,19.37,0,0,0-5.67-4.73,15.24,15.24,0,0,0-6.83-1.37q-6.1,0-9.41,3t-3.31,8.46v14.3c0,3.65,1.08,6.46,3.26,8.46s5.29,3,9.35,3a14.89,14.89,0,0,0,12.83-6.1l6.3,5.26a18.6,18.6,0,0,1-7.67,6.09,28.8,28.8,0,0,1-11.46,2q-10.62,0-16.24-4.84"/><path class="cls-1" d="M408.38,661.69a12.13,12.13,0,0,0,3.05,3.11l-6.2,5.46q-5.37-2.73-6.52-7.78a17.39,17.39,0,0,1-7,5.68,23.85,23.85,0,0,1-10.25,2.1q-7.89,0-12.19-3.73T365,655.75c0-4.83,1.68-8.45,5-10.83s8-3.89,13.88-4.51l7.14-.85c3-.34,5-.89,5.94-1.63s1.39-2,1.32-3.83a9.31,9.31,0,0,0-3.31-6.51c-1.93-1.62-4.85-2.43-8.78-2.43a17.28,17.28,0,0,0-7.36,1.43,15.71,15.71,0,0,0-5.57,4.56L367,626.64a16.29,16.29,0,0,1,7.31-6,29.79,29.79,0,0,1,11.93-2.05q10.62,0,16,4.41t5.36,12.83v22.28a7.07,7.07,0,0,0,.84,3.63m-14-1.73a11.14,11.14,0,0,0,4-8.84v-7a19,19,0,0,1-7.46,1.78l-6.2.64c-7.29.83-10.93,3.82-10.93,8.92a7.19,7.19,0,0,0,2.52,5.94c1.68,1.37,4.14,2.06,7.36,2.06q6.61,0,10.67-3.47"/><path class="cls-1" d="M467.77,661.7a12.11,12.11,0,0,0,3.05,3.1l-6.2,5.45a12.49,12.49,0,0,1-6.41-8.4q-5.25,8.4-16.51,8.4a21.41,21.41,0,0,1-11.4-3,20,20,0,0,1-7.57-8.47,28.49,28.49,0,0,1-2.68-12.72v-3.37a29,29,0,0,1,2.57-12.51,20,20,0,0,1,7.47-8.55,21.09,21.09,0,0,1,11.61-3.11q10.73,0,16,7.36V604.35a7.11,7.11,0,0,0-.79-3.58,13.1,13.1,0,0,0-3.1-3.25l6.31-5.47a12.9,12.9,0,0,1,5.36,4.79,15.75,15.75,0,0,1,1.47,7.51v53.71a7.11,7.11,0,0,0,.84,3.64m-10.09-25.5a15.27,15.27,0,0,0-5.1-7.83,14.15,14.15,0,0,0-8.78-2.58,13.06,13.06,0,0,0-10.56,4.73q-3.94,4.74-3.94,12.19v3.37q0,7.47,3.89,12.19A13,13,0,0,0,443.8,663a14.15,14.15,0,0,0,8.78-2.57,15.27,15.27,0,0,0,5.1-7.83Z"/><path class="cls-1" d="M485.91,665.26q-5.62-5-5.63-14.13V637.67q0-9.13,5.63-14.14t15.92-5q10.31,0,15.87,5t5.58,14.14v13.46q0,9.15-5.58,14.13t-15.87,5q-10.31,0-15.92-5m24.91-5.36c2.14-2,3.2-5,3.2-8.77V637.67c0-3.78-1.06-6.7-3.2-8.78s-5.14-3.1-9-3.1-7,1-9.09,3.1-3.21,5-3.21,8.78v13.46c0,3.78,1.07,6.72,3.21,8.77s5.16,3.1,9.09,3.1,6.85-1,9-3.1"/><path class="cls-1" d="M539.83,668.21a22.38,22.38,0,0,1-7.83-6.67l5.89-5.06a20.29,20.29,0,0,0,5.94,5.06A15.78,15.78,0,0,0,551,663q11.44,0,11.46-7.26a5.61,5.61,0,0,0-1.21-3.73,9.48,9.48,0,0,0-4.21-2.42,69.84,69.84,0,0,0-9-2.05q-7.37-1.47-11-5.09a12.89,12.89,0,0,1-3.68-9.62,12.47,12.47,0,0,1,4.94-10.51q4.94-3.8,13.56-3.79,12.72,0,17.87,8.1l-5.89,4.94a16.42,16.42,0,0,0-5.31-4.42,15,15,0,0,0-6.67-1.36q-4.64,0-7.15,1.89a6.19,6.19,0,0,0-2.52,5.25,5.3,5.3,0,0,0,2.42,4.68,22,22,0,0,0,7.67,2.68,64.66,64.66,0,0,1,10.93,3.31,13.65,13.65,0,0,1,6,4.63,13.17,13.17,0,0,1,2,7.61q0,14.42-20.18,14.4c-4.63,0-8.36-.67-11.2-2"/><path class="cls-1" d="M653.52,619.7V675q0,9.25-4.94,13.61T633.12,693h-13v-7.15h13c3.79,0,6.59-.9,8.41-2.68s2.74-4.54,2.74-8.25V661.33q-5.06,8.92-16.4,8.92c-5.33,0-9.48-1.51-12.46-4.56s-4.47-7.32-4.47-12.77V630.83a7,7,0,0,0-.84-3.61,12.88,12.88,0,0,0-3.05-3.21l6.21-5.47a13.18,13.18,0,0,1,5.41,4.78,15.43,15.43,0,0,1,1.52,7.51v21.35c0,3.43.9,6.08,2.68,7.94a10,10,0,0,0,7.52,2.78,12.56,12.56,0,0,0,9.46-3.94,16.35,16.35,0,0,0,4.42-9.83V619.7Z"/><path class="cls-1" d="M701.29,663.43q-7.51-6.84-7.52-20V621.17q0-13.14,7.52-20T723,594.37q14.28,0,21.81,6.83t7.51,20v22.29q0,13.14-7.51,20T723,670.25q-14.21,0-21.71-6.82m36.05-5.94q5-4.9,5-14V621.17q0-9.13-5-14T723,602.25q-9.25,0-14.25,4.89t-5,14v22.29q0,9.13,5,14T723,662.37q9.35,0,14.34-4.88"/><path class="cls-1" d="M803.57,621.86a20.23,20.23,0,0,1,7.31,8.82,29.76,29.76,0,0,1,2.41,12v3.36a29.69,29.69,0,0,1-2.41,12,20.32,20.32,0,0,1-7.31,8.83,20.65,20.65,0,0,1-11.83,3.31q-6.3,0-10-2a16.74,16.74,0,0,1-6.05-5.52v29.43h-9.25V630.73a7,7,0,0,0-.84-3.62,11.81,11.81,0,0,0-3.05-3.1l6.1-5.47a15.34,15.34,0,0,1,4.57,3.58,9.69,9.69,0,0,1,1.95,4.73q5.46-8.31,16.6-8.31a20.58,20.58,0,0,1,11.83,3.32m.47,20.86q0-7.47-3.94-12.2a13.06,13.06,0,0,0-10.56-4.73q-10.72,0-13.88,10.42V652.6Q778.81,663,789.54,663a13,13,0,0,0,10.56-4.73q3.95-4.72,3.94-12.19Z"/><path class="cls-1" d="M827.33,608.29a5.82,5.82,0,1,1,4.15,1.74,5.64,5.64,0,0,1-4.15-1.74m1,57.19a15,15,0,0,1-1.53-7.42V619.7h9.25v38.36a7,7,0,0,0,.84,3.63,12,12,0,0,0,3,3.1l-6.2,5.47a13.19,13.19,0,0,1-5.41-4.78"/><path class="cls-1" d="M890.82,623q4.24,4.44,4.25,12.41V669.1h-9.25V636.52q0-5.06-2.52-7.89a8.81,8.81,0,0,0-6.94-2.84,11.81,11.81,0,0,0-8.51,3.47,20.6,20.6,0,0,0-5.26,9.36V669.1h-9.25V630.73a7,7,0,0,0-.84-3.62,11.81,11.81,0,0,0-3-3.1l6.1-5.47a15.84,15.84,0,0,1,4.94,4,11.46,11.46,0,0,1,2,5.47,18,18,0,0,1,6.62-6.94,18.64,18.64,0,0,1,9.78-2.52q7.67,0,11.93,4.41"/><path class="cls-1" d="M911.21,608.29a5.82,5.82,0,1,1,4.15,1.74,5.64,5.64,0,0,1-4.15-1.74m1,57.19a15.15,15.15,0,0,1-1.52-7.42V619.7H920v38.36a6.92,6.92,0,0,0,.84,3.63,11.65,11.65,0,0,0,3,3.1l-6.21,5.47a13.25,13.25,0,0,1-5.41-4.78"/><path class="cls-1" d="M940.54,665.26q-5.62-5-5.63-14.13V637.67q0-9.13,5.63-14.13t15.92-5q10.31,0,15.87,5t5.58,14.13v13.46q0,9.15-5.58,14.13c-3.71,3.34-9,5-15.87,5s-12.18-1.65-15.92-5m24.91-5.35q3.21-3.1,3.21-8.78V637.67c0-3.78-1.07-6.71-3.21-8.77s-5.14-3.1-9-3.1-7,1-9.09,3.1-3.21,5-3.21,8.77v13.46q0,5.67,3.21,8.78c2.14,2.06,5.16,3.1,9.09,3.1s6.85-1,9-3.1m-4.68-63.65h10l-10.83,15.66h-7.57Z"/><path class="cls-1" d="M1029.26,623q4.24,4.44,4.25,12.41V669.1h-9.25V636.52q0-5.06-2.52-7.89a8.81,8.81,0,0,0-6.94-2.84,11.81,11.81,0,0,0-8.51,3.47,20.6,20.6,0,0,0-5.26,9.36V669.1h-9.25V630.73a7,7,0,0,0-.84-3.62,11.81,11.81,0,0,0-3.05-3.1l6.1-5.47a15.84,15.84,0,0,1,4.94,4,11.46,11.46,0,0,1,2,5.47,18,18,0,0,1,6.62-6.94,18.64,18.64,0,0,1,9.78-2.52q7.67,0,11.93,4.41"/><path class="cls-1" d="M107.5,72.65a99.06,99.06,0,0,1,21.29,6.79,49,49,0,0,1,14.88,10q5.46,5.65,5.46,12.06A14.45,14.45,0,0,1,145,111.84a13.55,13.55,0,0,1-10.18,4.33q-5.64,0-15.45-6a77.57,77.57,0,0,0-16-8.29q-8.1-3-21.29-3-18.47,0-30.52,10.55T39.48,136.9a31.41,31.41,0,0,0,4.15,16.39,38.67,38.67,0,0,0,11.49,12.06,84.73,84.73,0,0,0,16,8.66Q79.8,177.6,93,182.12q18.09,6.4,29.39,11.49A101.44,101.44,0,0,1,144.05,207a60.71,60.71,0,0,1,16.57,20.92q6.23,12.63,6.22,30.33a86.92,86.92,0,0,1-6,32.22,80.58,80.58,0,0,1-17.71,27.13,82.67,82.67,0,0,1-28.63,18.65Q97.51,343,76,343a146.43,146.43,0,0,1-26.75-2.45,129.2,129.2,0,0,1-24.12-6.78q-10.93-4.33-17.33-10.36T1.42,310.61A19.88,19.88,0,0,1,5,298.55q3.58-4.89,10.37-4.9,4.14,0,15.07,6.41a159.25,159.25,0,0,0,21.67,10.36q10.35,4,24.3,3.95,24.87,0,39.94-15.82t15.07-38.81q0-10.55-4.33-18.09a41,41,0,0,0-12.06-13,81.89,81.89,0,0,0-16.58-9Q89.6,216,75.28,211.13q-17-6-28.07-10.74a95,95,0,0,1-21.29-12.62A56,56,0,0,1,9.9,168q-5.84-11.88-5.84-28.83A58,58,0,0,1,9.53,115,76.54,76.54,0,0,1,50.41,76.23a85.79,85.79,0,0,1,32.78-6A120.26,120.26,0,0,1,107.5,72.65Z"/><path class="cls-2" d="M300,325.3q0,8.29-4.52,13c-3,3.14-7,4.71-12.06,4.71s-9-1.57-12.06-4.71-4.52-7.47-4.52-13V87.91q0-8.28,4.52-13c3-3.13,7-4.71,12.06-4.71s9.05,1.58,12.06,4.71,4.52,7.48,4.52,13Z"/><path class="cls-1" d="M433.16,328.69q-1.12,7.92-5.65,11.12T415.45,343Q400,343,400,326.06A98.47,98.47,0,0,1,401.89,311L438.44,95.45q2.25-13.19,9.23-19.22a24.78,24.78,0,0,1,16.76-6q10.19,0,15.83,4t8.29,13.38l57.27,196.31h.76L603.85,87.54q3-9.42,8.67-13.38t15.45-4a24.83,24.83,0,0,1,16.77,6q7,6,9.23,19.22L690.52,311a99.41,99.41,0,0,1,1.88,15.08Q692.4,343,677,343a20.7,20.7,0,0,1-11.87-3.2q-4.71-3.19-5.84-11.12L628,113.16h-.76L563.16,329.45Q560.9,337,556.75,340a20,20,0,0,1-21.1,0q-4.15-3-6.4-10.55L465.19,113.16h-.76Z"/></g></g></svg>