<?xml version="1.0" encoding="UTF-8"?>
<svg xmlns="http://www.w3.org/2000/svg" xmlns:xlink="http://www.w3.org/1999/xlink" viewBox="0 0 100 50">
  <defs>
    <style>
      .cls-1, .cls-2, .cls-3 {
        fill: none;
      }

      .cls-4 {
        clip-path: url(#clippath);
      }

      .cls-2 {
        stroke-width: .21px;
      }

      .cls-2, .cls-3 {
        stroke: #888e99;
      }

      .cls-5 {
        fill: #fff;
      }

      .cls-6 {
        fill: #888e99;
      }

      .cls-3 {
        stroke-miterlimit: 4;
        stroke-width: .21px;
      }

      .cls-7 {
        mix-blend-mode: lighten;
      }

      .cls-8 {
        isolation: isolate;
      }
    </style>
    <clipPath id="clippath">
      <rect class="cls-1" x="12.03" y="21.01" width="11.97" height="5.33"/>
    </clipPath>
  </defs>
  <g class="cls-8">
    <g id="Capa_1" data-name="Capa 1">
      <circle class="cls-3" cx="17.99" cy="23.55" r="12.99"/>
      <path class="cls-2" d="M17.99,33.9c5.72,0,10.35-4.64,10.35-10.36,0-5.72-4.64-10.35-10.36-10.35-5.72,0-10.35,4.64-10.35,10.36,0,5.72,4.63,10.35,10.35,10.35,0,0,0,0,.01,0Z"/>
      <path class="cls-6" d="M12.03,27.25v1.88h11.96v-1.88H12.03Zm1.67,.73l-.38,.28,.15,.44h0s-.37-.27-.37-.27l-.37,.28h0s.15-.45,.15-.45l-.38-.28h0s.46,0,.46,0l.14-.44h0l.14,.44h.47Zm1.65,0l-.37,.28,.14,.44h0s-.37-.27-.37-.27l-.37,.28h0s.15-.45,.15-.45l-.38-.28h0s.46,0,.46,0l.14-.44,.14,.44h.46Zm1.65,0l-.37,.28,.14,.44h0s-.37-.27-.37-.27l-.37,.28h0s.14-.45,.14-.45l-.38-.28h0s.46,0,.46,0l.14-.44h0l.14,.44h.46Zm1.65,0l-.37,.28,.14,.44h0s-.37-.27-.37-.27l-.37,.28h0s.15-.45,.15-.45l-.38-.28h0s.47,0,.47,0l.14-.44,.14,.44h.47Zm1.65,0l-.38,.28,.14,.44h0s-.37-.27-.37-.27l-.37,.28h0s.15-.45,.15-.45l-.38-.28h0s.46,0,.46,0l.14-.44h0l.14,.44h.47Zm1.65,0l-.38,.28,.15,.44h0s-.37-.27-.37-.27l-.37,.28h0s.14-.45,.14-.45l-.38-.28h0s.47,0,.47,0l.14-.44h0l.14,.44h.47Zm1.65,0l-.37,.28,.15,.44h0s-.37-.27-.37-.27l-.37,.28h0s.15-.45,.15-.45l-.38-.28h0s.46,0,.46,0l.14-.44h0l.14,.44h.46Z"/>
      <rect class="cls-6" x="12.03" y="16.36" width="11.97" height="3.47"/>
      <g>
        <path class="cls-5" d="M14.81,18.16s0,.06,0,.09c-.03,.25-.25,.43-.5,.4,0,0-.02,0-.03,0-.25,0-.45-.19-.46-.43v-1.13h-.49v1.12c0,.61,.45,.87,.99,.87s.98-.22,.98-.87v-1.12h-.49v1.07Z"/>
        <path class="cls-5" d="M16.13,17.58c0-.1,.11-.16,.29-.16,.22,.01,.43,.07,.62,.18v-.38c-.21-.1-.44-.15-.67-.15-.46,0-.75,.22-.75,.57,0,.71,1,.59,1,.91,0,.12-.1,.18-.29,.18-.25-.01-.48-.1-.67-.25v.43c.21,.13,.46,.19,.71,.19,.44,0,.76-.21,.76-.6,0-.69-1-.6-1-.9Z"/>
        <path class="cls-5" d="M18.03,17.07l-.78,1.97h.52l.15-.39h.88l.16,.39h.53l-.89-1.97h-.57Zm.02,1.25l.29-.78,.32,.78h-.6Z"/>
        <rect class="cls-5" x="19.73" y="17.08" width=".49" height="1.97"/>
        <path class="cls-5" d="M22.63,17.95c-.06-.54-.55-.92-1.08-.86h-.87v1.97h.82c.78,0,1.14-.42,1.14-.98,0-.04,0-.08,0-.12Zm-.51,.23c-.03,.32-.32,.55-.64,.52h-.32v-1.24h.31s.08,0,.12,0c.32,.03,.55,.31,.53,.62,0,.04,0,.07,0,.11Z"/>
      </g>
      <g>
        <path class="cls-6" d="M12.03,29.34c.11,.6,.47,1.13,1,1.44v-1.44h-1Z"/>
        <path class="cls-6" d="M13.55,29.34h1.37v2.22c-.47-.11-.93-.27-1.37-.47v-1.74Z"/>
        <path class="cls-6" d="M15.43,29.34v2.34s.48,.09,.56,.09c.27,.03,.54,.09,.8,.18v-2.61h-1.37Z"/>
        <path class="cls-6" d="M23.99,29.34c-.11,.6-.47,1.13-1,1.44v-1.44h1Z"/>
        <path class="cls-6" d="M22.45,29.34h-1.35v2.22c.47-.11,.92-.27,1.35-.47v-1.74Z"/>
        <path class="cls-6" d="M20.6,29.34v2.34s-.48,.09-.57,.09c-.27,.03-.54,.09-.8,.18v-2.61h1.37Z"/>
        <path class="cls-6" d="M18.03,32.81c-.16-.27-.39-.49-.67-.64v-2.83h1.33v2.83c-.27,.15-.5,.37-.66,.64"/>
      </g>
      <polygon class="cls-6" points="29.67 21.44 29.66 21.93 29.36 21.53 28.89 21.69 29.19 21.29 28.9 20.9 29.37 21.05 29.67 20.66 29.67 21.15 30.13 21.3 29.67 21.44"/>
      <polygon class="cls-6" points="6.23 21.15 6.23 20.66 6.53 21.05 7 20.9 6.71 21.3 6.99 21.69 6.52 21.53 6.23 21.93 6.23 21.44 5.77 21.29 6.23 21.15"/>
      <path class="cls-6" d="M7.17,17.43l.73,.36c.31,.13,.45,.49,.32,.81-.02,.04-.04,.08-.07,.12-.1,.32-.44,.51-.76,.41-.04-.01-.08-.03-.12-.05l-.73-.36,.16-.32,.74,.36c.16,.08,.35,.02,.43-.13,0-.01,.01-.02,.02-.04,.1-.15,.06-.35-.1-.45-.02-.01-.04-.02-.06-.03l-.71-.35,.16-.32Z"/>
      <polygon class="cls-6" points="9.41 16.66 9.23 16.91 8.03 17.03 8.78 17.55 8.58 17.84 7.41 17.02 7.6 16.76 8.75 16.63 8.03 16.13 8.24 15.84 9.41 16.66"/>
      <rect class="cls-6" x="9.01" y="15.13" width=".36" height="1.43" transform="translate(-8.79 12.32) rotate(-48.81)"/>
      <polygon class="cls-6" points="10.17 14.23 9.8 14.58 10.6 15.43 10.34 15.67 9.54 14.82 9.16 15.18 8.98 14.99 10 14.03 10.17 14.23"/>
      <polygon class="cls-6" points="11.97 14.35 11.12 14.97 10.27 13.82 11.11 13.21 11.26 13.42 10.71 13.82 10.89 14.06 11.42 13.68 11.57 13.89 11.05 14.27 11.25 14.55 11.81 14.14 11.97 14.35"/>
      <path class="cls-6" d="M12.02,12.67c.32-.23,.76-.15,.99,.17,.02,.03,.03,.05,.05,.08,.2,.36,.11,.75-.39,1.02l-.52,.28-.68-1.25,.55-.3Zm.32,1.17l.2-.11c.22-.09,.32-.34,.22-.56,0-.02-.02-.04-.03-.06-.1-.21-.34-.31-.56-.21-.03,.01-.05,.02-.07,.04l-.18,.09,.42,.81Z"/>
      <path class="cls-6" d="M14.7,11.96c-.15-.03-.31-.03-.47,0-.12,.04-.19,.11-.16,.18,.07,.21,.74-.08,.89,.39,.09,.26-.08,.48-.39,.58-.17,.06-.35,.07-.53,.03l-.1-.29c.17,.06,.35,.07,.52,.02,.13-.04,.18-.11,.16-.19-.07-.22-.74,.09-.89-.39-.08-.23,.07-.46,.39-.56,.16-.05,.33-.07,.5-.05l.09,.28Z"/>
      <polygon class="cls-6" points="16.32 11.5 15.81 11.6 16.04 12.74 15.68 12.81 15.46 11.67 14.95 11.77 14.9 11.51 16.27 11.24 16.32 11.5"/>
      <path class="cls-6" d="M17.93,12.54l-.39,.03-.14-.27-.64,.05-.08,.29-.39,.03,.48-1.47,.41-.03,.75,1.37Zm-.92-1.02l-.17,.57,.44-.04-.27-.53Z"/>
      <polygon class="cls-6" points="19.15 11.44 18.63 11.42 18.59 12.58 18.23 12.57 18.28 11.4 17.76 11.39 17.77 11.12 19.16 11.18 19.15 11.44"/>
      <polygon class="cls-6" points="20.32 12.8 19.28 12.63 19.51 11.23 20.53 11.39 20.49 11.65 19.82 11.54 19.77 11.83 20.41 11.94 20.37 12.2 19.73 12.09 19.67 12.43 20.36 12.54 20.32 12.8"/>
      <path class="cls-6" d="M21.75,12.1c-.11-.11-.24-.19-.39-.25-.12-.03-.21,0-.23,.06-.06,.21,.66,.35,.52,.82-.08,.27-.34,.36-.65,.27-.17-.05-.33-.14-.46-.27l.08-.3c.1,.15,.25,.26,.42,.31,.13,.04,.21,0,.23-.07,.07-.23-.66-.34-.52-.84,.07-.24,.32-.34,.64-.25,.16,.05,.31,.13,.43,.24l-.09,.27Z"/>
      <path class="cls-6" d="M23.38,13.94l-.35-.16v-.3l-.58-.27-.21,.21-.34-.16,1.12-1.05,.39,.18-.04,1.56Zm-.3-1.34l-.43,.41,.39,.19,.04-.6Z"/>
      <path class="cls-6" d="M25.1,13.86c-.1-.16-.23-.29-.39-.39-.19-.17-.48-.15-.64,.04-.02,.02-.03,.04-.04,.05-.13,.2-.06,.47,.14,.6,.01,0,.03,.02,.05,.02,.07,.05,.14,.08,.22,.09l.09-.14-.16-.12,.14-.22,.47,.31-.32,.49c-.22,.01-.43-.05-.61-.17-.38-.2-.53-.67-.33-1.05,0,0,0-.02,.01-.02,.25-.35,.74-.43,1.09-.18,.01,0,.02,.02,.03,.03,.16,.1,.29,.23,.39,.39l-.15,.28Z"/>
      <polygon class="cls-6" points="25.57 15.58 24.77 14.9 25.7 13.82 26.49 14.5 26.32 14.69 25.8 14.25 25.61 14.47 26.1 14.9 25.93 15.1 25.44 14.67 25.21 14.93 25.74 15.38 25.57 15.58"/>
      <polygon class="cls-6" points="26.7 16.82 26.49 16.59 26.66 15.4 25.97 16 25.74 15.74 26.81 14.79 27.02 15.03 26.87 16.18 27.53 15.6 27.76 15.87 26.7 16.82"/>
      <path class="cls-6" d="M27.68,18.08c-.17-.09-.32-.22-.43-.39-.26-.32-.22-.79,.11-1.05,.02-.01,.03-.03,.05-.04,.37-.22,.85-.09,1.07,.28,0,.01,.01,.02,.02,.03,.1,.15,.17,.32,.18,.5l-.27,.17c0-.18-.05-.35-.14-.5-.1-.22-.36-.32-.58-.22-.22,.1-.32,.36-.22,.58,.02,.04,.04,.08,.07,.11,.11,.15,.25,.27,.41,.35l-.26,.17Z"/>
      <polygon class="cls-6" points="28.46 18.43 28.9 17.6 29.09 17.99 28.81 18.46 29.35 18.55 29.54 18.94 28.61 18.76 28.01 19.04 27.85 18.72 28.46 18.43"/>
      <rect class="cls-6" x="5.62" y="23.84" width="1.43" height=".36" transform="translate(-.93 .27) rotate(-2.24)"/>
      <polygon class="cls-6" points="5.84 26.08 5.8 25.79 6.59 24.87 5.69 25.01 5.63 24.66 7.05 24.45 7.09 24.77 6.34 25.65 7.21 25.52 7.26 25.88 5.84 26.08"/>
      <polygon class="cls-6" points="7.44 27.43 7.29 26.93 6.17 27.27 6.07 26.93 7.19 26.59 7.04 26.1 7.29 26.02 7.69 27.35 7.44 27.43"/>
      <polygon class="cls-6" points="6.87 29.04 6.45 28.07 7.76 27.5 8.17 28.45 7.93 28.55 7.66 27.93 7.38 28.05 7.65 28.65 7.41 28.75 7.15 28.16 6.83 28.3 7.11 28.93 6.87 29.04"/>
      <path class="cls-6" d="M8.6,29.21c.14,.19,.1,.46-.09,.59,0,0-.01,0-.02,.01-.14,.07-.3,.06-.43-.03,0,.16-.12,.29-.39,.68l-.2-.34c.19-.29,.39-.48,.3-.64l-.05-.09-.48,.3-.18-.31,1.23-.73,.32,.55Zm-.65,.05l.1,.16c.03,.09,.12,.13,.21,.1,0,0,.02,0,.03-.01,.09-.05,.11-.14,.04-.26l-.09-.16-.28,.17Z"/>
      <polygon class="cls-6" points="8.76 31.84 8.57 31.6 8.79 30.42 8.08 30.98 7.86 30.71 8.97 29.82 9.18 30.07 8.97 31.21 9.65 30.67 9.87 30.95 8.76 31.84"/>
      <path class="cls-6" d="M10.15,33.17l-.28-.26,.11-.28-.46-.44-.27,.14-.27-.26,1.39-.65,.3,.28-.51,1.47Zm.13-1.36l-.53,.26,.32,.3,.21-.56Z"/>
      <polygon class="cls-6" points="11.91 33 11.49 32.7 10.8 33.63 10.51 33.42 11.21 32.49 10.79 32.18 10.94 31.97 12.06 32.79 11.91 33"/>
      <rect class="cls-6" x="11.3" y="33.4" width="1.43" height=".36" transform="translate(-22.97 26.67) rotate(-59.15)"/>
      <path class="cls-6" d="M12.86,34.84c-.35-.21-.47-.66-.26-1.01,.21-.35,.66-.47,1.01-.26,.33,.19,.45,.6,.3,.94-.2,.38-.67,.52-1.05,.33m.48-1.07c-.2-.11-.46-.04-.57,.17,0,.01-.01,.03-.02,.04-.11,.22-.02,.49,.21,.6,.22,.11,.49,.02,.6-.21,.11-.22,.02-.49-.21-.6,0,0,0,0,0,0"/>
      <polygon class="cls-6" points="15.39 35.68 15.1 35.6 14.58 34.51 14.34 35.39 13.99 35.3 14.37 33.92 14.69 34.01 15.19 35.05 15.42 34.21 15.77 34.31 15.39 35.68"/>
      <path class="cls-6" d="M17.3,35.94l-.39-.05-.08-.29-.62-.07-.14,.27-.39-.04,.74-1.35,.41,.05,.46,1.49Zm-.7-1.17l-.27,.53,.44,.05-.16-.58Z"/>
      <polygon class="cls-6" points="18.68 35.93 17.59 35.94 17.58 34.51 17.94 34.51 17.94 35.67 18.68 35.67 18.68 35.93"/>
      <path class="cls-6" d="M19.98,34.33c.37-.12,.77,.09,.89,.46,.01,.03,.02,.07,.02,.1,.07,.39-.12,.75-.69,.85l-.58,.11-.26-1.4,.62-.11Zm-.06,1.19l.23-.04c.25-.02,.43-.25,.41-.49-.02-.25-.25-.43-.49-.41-.03,0-.05,0-.08,.02l-.23,.04,.16,.89Z"/>
      <polygon class="cls-6" points="22.39 35.16 21.39 35.48 20.95 34.13 21.94 33.81 22.02 34.06 21.37 34.27 21.46 34.55 22.08 34.35 22.17 34.6 21.55 34.8 21.65 35.12 22.31 34.91 22.39 35.16"/>
      <polygon class="cls-6" points="23.39 34.75 23.25 34.81 22.01 33.79 22.36 33.63 23.05 34.21 23.03 33.32 23.37 33.16 23.39 34.75"/>
      <polygon class="cls-6" points="25.11 33.74 24.22 34.3 23.46 33.09 24.34 32.54 24.48 32.76 23.9 33.12 24.05 33.38 24.61 33.03 24.75 33.25 24.2 33.6 24.38 33.89 24.97 33.52 25.11 33.74"/>
      <polygon class="cls-6" points="26.26 32.83 25.42 33.51 24.52 32.4 24.8 32.18 25.53 33.08 26.1 32.63 26.26 32.83"/>
      <path class="cls-6" d="M27.05,32.07c-.31,.26-.78,.23-1.04-.08-.26-.31-.23-.78,.08-1.04,.29-.25,.71-.23,.99,.02,.29,.31,.28,.8-.03,1.1m-.85-.78c-.16,.18-.14,.46,.04,.62,.18,.16,.46,.14,.62-.04,.16-.18,.14-.45-.03-.61-.16-.16-.43-.17-.59,0-.01,.01-.02,.02-.03,.04"/>
      <path class="cls-6" d="M27.03,29.79c.12-.21,.38-.28,.58-.16,.21,.12,.28,.38,.16,.58-.01,.02-.03,.05-.05,.07l-.16,.23,.47,.33-.21,.29-1.17-.82,.37-.52Zm.32,.56l.09-.13c.09-.13,.08-.21,0-.28s-.18-.04-.28,.12l-.07,.11,.26,.19Z"/>
      <polygon class="cls-6" points="27.96 28.16 28.1 27.89 29.38 28.53 29.22 28.85 28.42 28.45 28.65 28.99 28.62 29.04 28.05 29.18 28.84 29.59 28.68 29.9 27.41 29.26 27.55 28.98 28.23 28.82 27.96 28.16"/>
      <polygon class="cls-6" points="29.88 27.11 29.54 28.11 28.19 27.65 28.52 26.67 28.77 26.75 28.55 27.4 28.83 27.49 29.04 26.88 29.29 26.96 29.08 27.58 29.4 27.69 29.63 27.03 29.88 27.11"/>
      <polygon class="cls-6" points="30.27 25.31 30.22 25.6 29.17 26.2 30.06 26.38 29.99 26.72 28.59 26.45 28.66 26.13 29.66 25.55 28.8 25.38 28.87 25.03 30.27 25.31"/>
      <polygon class="cls-6" points="29.23 23.5 29.2 24.02 30.36 24.09 30.34 24.44 29.18 24.37 29.15 24.89 28.89 24.88 28.97 23.49 29.23 23.5"/>
      <path class="cls-6" d="M47.12,15.05v7.41c0,4.32-2.95,5.82-6.52,5.82-3.79,0-6.52-1.76-6.52-5.8v-7.41h3.25v7.48c0,1.87,1.36,3,3.23,3,1.72,0,3.31-.9,3.31-3.23v-7.27h3.25Z"/>
      <path class="cls-6" d="M58.5,18.44c-1.89-.84-3.02-1.17-4.13-1.17-1.17,0-1.91,.42-1.91,1.07,0,1.97,6.63,1.42,6.63,5.97,0,2.51-2.1,3.96-5.01,3.96-2.28,0-3.41-.59-4.71-1.26v-2.81c1.87,1.24,3.02,1.69,4.46,1.69,1.24,0,1.91-.44,1.91-1.21,0-2.14-6.63-1.36-6.63-6.04,0-2.26,1.95-3.75,4.98-3.75,1.53,.02,3.03,.36,4.42,1.01v2.55Z"/>
      <path class="cls-6" d="M74.53,28.1h-3.51l-1.07-2.58h-5.83l-.98,2.58h-3.45l5.28-13.04h3.77l5.78,13.04Zm-7.64-9.93l-1.91,5.07h4.02l-2.11-5.07Z"/>
      <rect class="cls-6" x="75.97" y="15.05" width="3.25" height="13.05"/>
      <path class="cls-6" d="M87.77,15.05c4.76,0,7.21,2.97,7.21,6.54s-2.37,6.5-7.58,6.5h-5.39V15.05h5.76Zm-2.49,10.66h2.12c3.27,0,4.25-2.22,4.25-4.13,0-2.24-1.21-4.13-4.29-4.13h-2.08v8.26Z"/>
      <path class="cls-6" d="M33.52,30.86h1.23c.86-.07,1.61,.58,1.68,1.43,0,.05,0,.1,0,.15-.02,.88-.75,1.58-1.63,1.56-.02,0-.03,0-.05,0h-1.23v-3.14Zm.45,2.75h.72c.64,.05,1.21-.43,1.26-1.07,0-.03,0-.06,0-.1,0-.64-.39-1.17-1.29-1.17h-.7v2.34Z"/>
      <polygon class="cls-6" points="38.73 31.27 37.39 31.27 37.39 32.22 38.68 32.22 38.68 32.63 37.39 32.63 37.39 33.61 38.77 33.61 38.77 34.02 36.94 34.02 36.94 30.86 38.73 30.86 38.73 31.27"/>
      <polygon class="cls-6" points="39.65 33.61 41.08 33.61 41.08 34.02 39.2 34.02 39.2 30.86 39.65 30.86 39.65 33.61"/>
      <path class="cls-6" d="M43.63,30.86c.48-.06,.93,.28,1,.76,0,.05,0,.1,0,.15,0,.5-.33,.88-1.07,.88h-.47v1.37h-.45v-3.16h.99Zm-.53,1.39h.52c.27,.04,.51-.15,.55-.42,0-.03,0-.05,0-.08,.01-.26-.19-.47-.44-.48-.03,0-.06,0-.09,0h-.53v.98Z"/>
      <path class="cls-6" d="M47.64,32.78c0,.78-.46,1.28-1.4,1.28-.66,.06-1.25-.43-1.31-1.09,0-.05,0-.1,0-.15v-1.95h.45v1.87c0,.36,.05,.51,.19,.65,.18,.18,.43,.27,.68,.27,.27,.02,.54-.07,.74-.25,.16-.19,.23-.44,.2-.69v-1.85h.45v1.92Z"/>
      <polygon class="cls-6" points="50.01 31.27 48.67 31.27 48.67 32.22 49.96 32.22 49.96 32.63 48.67 32.63 48.67 33.61 50.05 33.61 50.05 34.02 48.22 34.02 48.22 30.86 50.01 30.86 50.01 31.27"/>
      <path class="cls-6" d="M50.49,30.86h.92c.68,0,.97,.41,.97,.8,.01,.31-.19,.59-.48,.68h0c.44,.03,.78,.39,.78,.82,0,.39-.29,.84-1.08,.84h-1.08l-.02-3.15Zm.45,1.35h.3c.45,0,.67-.17,.67-.51,0-.23-.13-.44-.55-.44h-.42v.94Zm0,1.4h.57c.53,0,.68-.27,.68-.5s-.22-.49-.7-.49h-.55v.99Z"/>
      <polygon class="cls-6" points="53.49 33.61 54.92 33.61 54.92 34.02 53.04 34.02 53.04 30.86 53.49 30.86 53.49 33.61"/>
      <path class="cls-6" d="M56.82,30.82c.9,.04,1.59,.8,1.55,1.69s-.8,1.59-1.69,1.55c-.87-.04-1.55-.75-1.55-1.62,0-.89,.71-1.62,1.6-1.63,.03,0,.06,0,.1,0m0,2.83c.67-.01,1.2-.56,1.19-1.23s-.56-1.2-1.23-1.19c-.66,.01-1.19,.55-1.19,1.21-.02,.65,.49,1.18,1.14,1.2,.03,0,.06,0,.09,0"/>
      <path class="cls-6" d="M60.28,30.86h1.23c.86-.07,1.61,.58,1.68,1.43,0,.05,0,.1,0,.15-.02,.88-.75,1.58-1.63,1.56-.02,0-.03,0-.05,0h-1.23v-3.14Zm.45,2.75h.74c.64,.05,1.21-.43,1.26-1.07,0-.03,0-.06,0-.1,0-.64-.39-1.17-1.29-1.17h-.72v2.34Z"/>
      <polygon class="cls-6" points="65.49 31.27 64.15 31.27 64.15 32.22 65.45 32.22 65.45 32.63 64.15 32.63 64.15 33.61 65.53 33.61 65.53 34.02 63.7 34.02 63.7 30.86 65.49 30.86 65.49 31.27"/>
      <polygon class="cls-6" points="67.66 33.61 69.09 33.61 69.09 34.02 67.21 34.02 67.21 30.86 67.66 30.86 67.66 33.61"/>
      <path class="cls-6" d="M70.99,30.82c.9,.05,1.58,.81,1.54,1.71s-.81,1.58-1.71,1.54c-.86-.05-1.54-.76-1.54-1.62,0-.89,.71-1.62,1.6-1.63,.03,0,.06,0,.1,0m0,2.83c.67-.01,1.2-.56,1.19-1.23s-.56-1.2-1.23-1.19c-.66,.01-1.19,.55-1.19,1.21-.02,.65,.49,1.18,1.14,1.2,.03,0,.06,0,.09,0"/>
      <path class="cls-6" d="M74.7,31.55c-.19-.2-.46-.32-.74-.33-.29,0-.5,.15-.5,.39,0,.6,1.37,.6,1.37,1.6,0,.47-.37,.85-.84,.86-.02,0-.03,0-.05,0-.32,0-.63-.1-.88-.29v-.59c.19,.28,.5,.45,.83,.46,.36,0,.52-.22,.52-.39,0-.66-1.37-.73-1.37-1.6,0-.47,.38-.85,.85-.85,.03,0,.07,0,.1,0,.25,0,.5,.08,.71,.22v.51Z"/>
      <polygon class="cls-6" points="78.3 31.27 76.96 31.27 76.96 32.22 78.26 32.22 78.26 32.63 76.96 32.63 76.96 33.61 78.35 33.61 78.35 34.02 76.51 34.02 76.51 30.86 78.3 30.86 78.3 31.27"/>
      <path class="cls-6" d="M80.28,31.55c-.19-.2-.46-.32-.74-.33-.29,0-.5,.15-.5,.39,0,.6,1.37,.6,1.37,1.6,0,.47-.37,.85-.84,.86-.02,0-.03,0-.05,0-.32,0-.63-.1-.88-.29v-.59c.19,.28,.5,.45,.83,.46,.36,0,.52-.22,.52-.39,0-.66-1.37-.73-1.37-1.6,0-.47,.38-.85,.85-.85,.04,0,.07,0,.11,0,.25,0,.5,.08,.7,.22v.51Z"/>
      <polygon class="cls-6" points="83.23 31.27 82.14 31.27 82.14 34.02 81.68 34.02 81.68 31.27 80.59 31.27 80.59 30.86 83.23 30.86 83.23 31.27"/>
      <path class="cls-6" d="M85.88,34.02h-.46l-.42-.93h-1.34l-.39,.93h-.46l1.36-3.18h.32l1.4,3.18Zm-2.05-1.32h.98l-.51-1.17-.47,1.17Z"/>
      <path class="cls-6" d="M86.19,30.86h1.23c.86-.06,1.61,.58,1.67,1.44,0,.05,0,.09,0,.14-.02,.88-.74,1.58-1.62,1.56-.02,0-.04,0-.05,0h-1.23v-3.14Zm.45,2.75h.73c.64,.05,1.21-.43,1.26-1.07,0-.03,0-.06,0-.1,0-.64-.39-1.17-1.29-1.17h-.7v2.34Z"/>
      <path class="cls-6" d="M91.17,30.82c.9,.04,1.59,.8,1.55,1.7-.04,.9-.8,1.59-1.7,1.55-.87-.04-1.55-.75-1.55-1.62-.01-.89,.7-1.62,1.59-1.63,.04,0,.07,0,.11,0m0,2.83c.67,0,1.2-.54,1.2-1.21,0-.67-.54-1.2-1.21-1.2-.67,0-1.2,.54-1.2,1.21-.02,.65,.49,1.18,1.14,1.2,.03,0,.06,0,.09,0"/>
      <path class="cls-6" d="M94.88,31.55c-.19-.2-.46-.32-.74-.33-.29,0-.5,.15-.5,.39,0,.6,1.37,.6,1.37,1.6,0,.47-.36,.85-.83,.86-.02,0-.03,0-.05,0-.32,0-.63-.1-.89-.29v-.59c.19,.28,.5,.45,.84,.46,.35,0,.51-.22,.51-.39,0-.66-1.37-.73-1.37-1.6,0-.47,.39-.85,.86-.85,.03,0,.07,0,.1,0,.25,0,.5,.08,.7,.22v.51Z"/>
      <path class="cls-6" d="M45.8,38.14c0,.78-.46,1.28-1.4,1.28-.66,.06-1.25-.42-1.31-1.08,0-.05,0-.1,0-.15v-1.97h.44v1.87c0,.36,.04,.51,.19,.65,.18,.18,.43,.27,.68,.27,.27,.02,.54-.07,.74-.25,.16-.19,.23-.44,.2-.69v-1.84h.45v1.93Z"/>
      <polygon class="cls-6" points="49.3 39.38 48.91 39.38 46.8 36.95 46.8 39.38 46.37 39.38 46.37 36.22 46.73 36.22 48.87 38.67 48.87 36.22 49.3 36.22 49.3 39.38"/>
      <rect class="cls-6" x="49.95" y="36.22" width=".45" height="3.16"/>
      <path class="cls-6" d="M51.06,36.21h1.23c.86-.06,1.61,.58,1.67,1.44,0,.04,0,.08,0,.12-.02,.88-.74,1.58-1.62,1.56-.02,0-.04,0-.05,0h-1.23v-3.12Zm.45,2.73h.73c.64,.05,1.21-.43,1.26-1.07,0-.03,0-.06,0-.1,0-.64-.39-1.17-1.29-1.17h-.7v2.34Z"/>
      <path class="cls-6" d="M56.04,36.18c.9,.04,1.59,.8,1.55,1.7-.04,.9-.8,1.59-1.7,1.55-.87-.04-1.55-.75-1.55-1.62-.01-.89,.7-1.62,1.59-1.63,.04,0,.07,0,.11,0m0,2.83c.67-.01,1.19-.56,1.18-1.23s-.56-1.2-1.23-1.18c-.66,.01-1.18,.55-1.18,1.21-.02,.65,.49,1.18,1.14,1.2,.03,0,.06,0,.09,0"/>
      <path class="cls-6" d="M59.75,36.92c-.19-.2-.46-.32-.74-.33-.29,0-.5,.15-.5,.39,0,.6,1.37,.6,1.37,1.6,0,.47-.36,.85-.83,.86-.02,0-.03,0-.05,0-.32,0-.63-.1-.89-.29v-.59c.19,.28,.5,.45,.84,.46,.35,0,.51-.22,.51-.39,0-.66-1.37-.73-1.37-1.6,0-.47,.39-.85,.86-.85,.03,0,.07,0,.1,0,.25,0,.5,.08,.7,.22v.51Z"/>
      <path class="cls-6" d="M61.57,36.21h1.23c.86-.07,1.61,.58,1.68,1.44,0,.04,0,.08,0,.13-.02,.88-.75,1.58-1.63,1.56-.02,0-.03,0-.05,0h-1.23v-3.12Zm.45,2.73h.72c.64,.05,1.21-.43,1.26-1.07,0-.03,0-.06,0-.1,0-.64-.39-1.17-1.29-1.17h-.7v2.34Z"/>
      <polygon class="cls-6" points="66.78 36.63 65.45 36.63 65.45 37.58 66.74 37.58 66.74 37.99 65.45 37.99 65.45 38.97 66.83 38.97 66.83 39.38 64.99 39.38 64.99 36.22 66.78 36.22 66.78 36.63"/>
      <path class="cls-6" d="M71.23,39.38h-.46l-.42-.93h-1.34l-.39,.93h-.46l1.37-3.17h.32l1.4,3.17Zm-2.05-1.33h.98l-.49-1.15-.49,1.15Z"/>
      <polygon class="cls-6" points="74.48 39.38 74.03 39.38 74.03 36.92 74.02 36.92 73.04 38.15 72.97 38.15 72 36.92 71.99 36.92 71.99 39.38 71.53 39.38 71.53 36.22 71.96 36.22 73.01 37.52 74.06 36.22 74.48 36.22 74.48 39.38"/>
      <path class="cls-6" d="M76.91,36.63h-1.34v.95h1.29v.39h-1.29v.98h1.38v.39h-1.82v-3.14h1.79l-.02,.42Zm-.46-1.3l-.53,.68h-.25l.31-.68h.47Z"/>
      <path class="cls-6" d="M78.19,36.21c.64,0,1.04,.34,1.04,.89,.02,.35-.2,.67-.53,.78,.3,.23,.55,.53,.73,.88,.13,.22,.21,.32,.43,.62h-.54l-.42-.65c-.41-.65-.6-.72-.84-.72h-.2v1.37h-.47v-3.17h.8Zm-.33,1.39h.29c.48,0,.62-.25,.62-.52s-.2-.49-.64-.49h-.28v1Z"/>
      <rect class="cls-6" x="80.14" y="36.22" width=".45" height="3.16"/>
      <path class="cls-6" d="M83.93,36.92c-.33-.21-.7-.32-1.09-.33-.66-.03-1.23,.48-1.26,1.15,0,.02,0,.04,0,.06-.02,.65,.49,1.18,1.14,1.2,.05,0,.09,0,.14,0,.39-.01,.78-.13,1.1-.36v.5c-.35,.19-.74,.28-1.14,.28-.89,.05-1.65-.63-1.7-1.52,0-.01,0-.03,0-.04-.01-.91,.71-1.66,1.62-1.67,.04,0,.07,0,.11,0,.37,.01,.74,.1,1.08,.26v.47Z"/>
      <path class="cls-6" d="M87.33,39.38h-.46l-.43-.93h-1.34l-.39,.93h-.46l1.35-3.17h.32l1.41,3.17Zm-2.06-1.33h.98l-.51-1.15-.47,1.15Z"/>
      <g class="cls-7">
        <g class="cls-4">
          <g>
            <path class="cls-6" d="M25.36,21.99c.04,.14-.11,.13-.19,.17-.07,.04-.06,.01-.14-.02-.05-.02-.13,.02-.21,.03,0-.02-.02-.05-.03-.08-.09,.04-.18,.08-.29,.14,.03-.05,.05-.09,.09-.16-.12,.06-.19,.1-.29,.15,.02-.03,.03-.06,.05-.11-.46,.04-.93-.11-1.34,.2,.03-.03,.05-.07,.08-.1,0-.02-.01-.03-.02-.05-.12,.03-.24,.07-.36,.1-.02-.11-.07-.11-.33,.08,.03-.06,.04-.09,.06-.12,0-.01-.01-.03-.02-.04-.13,.06-.27,.12-.42,.19,.02-.05,.04-.08,.06-.11-.01-.02-.02-.03-.03-.05-.19,.11-.38,.22-.57,.33h-.01c.1-.08,.21-.15,.31-.22-.03-.03-.06-.07-.09-.1-.2,.13-.4,.27-.59,.4,0,0-.01-.01-.02-.02,.09-.1,.19-.19,.28-.29l-.04-.04c-.08,.05-.17,.09-.27,.15,0-.05,0-.09,0-.15-.07,.04-.12,.07-.19,.11,0-.04,0-.07,0-.1-.07,0-.14,0-.22-.01,.05,.11,.1,.22,.15,.33-.17-.12-.21-.35-.43-.4-.17-.04-.33-.08-.51-.12,0,0,0-.04,.02-.1-.08,.03-.15,.05-.22,.07v-.13c-.07,.02-.14,.05-.18,.06-.03-.04-.05-.09-.08-.1-.18-.07-.37-.15-.56-.2-.16-.04-.33-.07-.49-.07-.39,.01-.76-.07-1.13-.18-.25-.08-.39-.01-.48,.22-.07,.19-.34,.28-.53,.18-.06-.03-.15-.02-.24-.04,.04,.31,.16,.4,.44,.43,.49,.06,.85,0,1.06-.48,.05,.03,.1,.07,.15,.1-.04,.04-.1,.09-.16,.14,0,.01,.01,.02,.02,.04,.06-.02,.12-.04,.18-.06-.01,.05-.02,.09-.05,.17,.14-.08,.24-.15,.36-.22-.03,.07-.06,.13-.1,.22,.12-.06,.21-.1,.32-.15-.03,.05-.04,.09-.06,.12,0,.01,.02,.02,.02,.03,.08-.03,.15-.07,.25-.11-.02,.04-.04,.08-.08,.15,.09-.03,.14-.05,.22-.08-.02,.05-.04,.08-.08,.15,.11-.03,.18-.05,.26-.08-.04,.05-.07,.09-.12,.15,.2,.11,.39,.21,.59,.32,.03,0,.09-.02,.15-.04,0,.04-.01,.07-.02,.13,.11-.04,.2-.07,.33-.12-.09,.08-.14,.13-.2,.18,0,.02,.02,.03,.03,.05,.1-.05,.2-.1,.34-.17-.08,.09-.13,.15-.18,.21l.02,.04c.1-.04,.2-.08,.33-.13-.06,.08-.11,.13-.15,.18l.03,.04c.08-.03,.15-.07,.25-.11-.05,.06-.09,.11-.12,.16l.03,.04c.13-.09,.26-.17,.36-.24-.07,.08-.15,.19-.27,.33,.09-.02,.15-.04,.22-.06-.02,.05-.05,.11-.09,.18,.35-.09,.47-.39,.26-.76,.3,.19,.35,.49,.13,.94,.01-.14,.03-.25,.04-.38-.21,.11-.35,.26-.35,.4,.07-.03,.13-.06,.19-.09,0,0,0,.01,.01,.02-.05,.06-.11,.12-.16,.17,.06,.23,.05,.48,.27,.66,0,.01-.02,.05-.05,.11,.06-.01,.09-.02,.13-.03-.02,.05-.04,.09-.06,.15h.11c-.05,.06-.1,.11-.16,.19,.24-.06,.34-.27,.27-.48-.04-.1-.08-.2-.12-.3-.08-.19-.07-.2,.14-.25-.03,.06-.06,.11-.09,.17,0,.01,.02,.02,.02,.03,.05-.02,.11-.04,.18-.07-.04,.07-.07,.13-.09,.19,0,.01,.02,.02,.03,.03l.3-.19s0,.01,.01,.02l-.31,.28,.05,.06c.12-.08,.25-.16,.37-.24,0,0,0,.01,.01,.02-.13,.12-.25,.24-.38,.35,0,.01,.01,.02,.02,.03,.16-.1,.32-.21,.44-.29-.11,.13-.24,.28-.38,.44,0,0,.01,.02,.02,.03,.27-.2,.55-.39,.82-.59,0,0,0,0,0,0-.21,.2-.42,.4-.64,.6,.01,.02,.03,.04,.04,.05,.19-.13,.38-.26,.57-.4,0,0,.02,.02,.02,.03-.14,.13-.28,.26-.43,.4,.13,.02,.24,.05,.35,.06,.33,.02,.66,.02,.99,.04,.6,.03,1.2,.07,1.8,.11,.19,.01,.37,.05,.57,.07-.02,.09-.03,.14-.15,.11-.17-.04-.35-.03-.53-.04-.41-.02-.82-.05-1.23-.07-.52-.03-1.05-.07-1.57-.1-.14,0-.28-.01-.41-.04-.3-.05-.55,.06-.79,.21-.11,.07-.18,.19-.29,.26-.12,.08-.22,.14-.29,.28-.04,.08-.17,.15-.27,.15-.15,0-.24,.06-.35,.16-.17,.16-.24,.16-.48,.08,.04,.16-.03,.27-.16,.35-.14,.09-.31,.13-.45,.04-.15-.09-.28-.11-.45-.04-.22,.09-.51,.06-.68-.19-.03-.04-.1-.07-.14-.07-.26,.04-.45-.03-.6-.25-.02-.04-.1-.07-.15-.07-.25,.01-.41-.11-.54-.31-.03-.05-.12-.08-.19-.08-.17,0-.3-.05-.38-.21-.04-.08-.07-.17-.13-.24-.03-.04-.09-.07-.14-.07-.44,.02-.88,.04-1.32,.07-.28,.01-.55,.02-.83,.04-.17,0-.33,.02-.5,.03-.11,0-.16-.04-.13-.17,.1,0,.2,0,.31,0,.39-.02,.77-.04,1.16-.07,.06,0,.13-.06,.18-.1,.18-.15,.36-.31,.56-.44-.14,.15-.28,.31-.43,.46,.02,.02,.03,.03,.05,.05,.3-.26,.61-.52,.91-.78,.01,.01,.03,.03,.04,.04-.25,.22-.5,.44-.74,.66,.02,.03,.05,.05,.07,.08,.3-.26,.6-.53,.91-.79,0,0,.02,.02,.03,.03-.21,.23-.42,.46-.62,.68,.01,.01,.03,.03,.04,.04,.23-.2,.46-.41,.7-.61,0,0,.01,0,.02,.01-.11,.14-.22,.28-.32,.42,0,0,.02,.01,.02,.02,.21-.16,.43-.33,.64-.49,.01,.02,.03,.03,.04,.05-.12,.11-.25,.23-.37,.34,0,.01,.02,.02,.03,.03,.18-.14,.36-.28,.54-.42,.01,.01,.02,.02,.03,.03l-.34,.37s.02,.02,.02,.03c.27-.21,.54-.43,.81-.64,0,0,.01,.02,.02,.02-.22,.21-.45,.42-.67,.63,.01,.02,.02,.03,.04,.05,.25-.19,.5-.37,.74-.56v.02c-.2,.21-.41,.42-.62,.63,.02,.02,.03,.03,.05,.05,.31-.24,.62-.49,.92-.73,0,.01,.02,.02,.03,.03-.18,.16-.35,.33-.53,.49,.01,.02,.02,.03,.04,.05,.2-.13,.4-.26,.6-.39,0,0,.01,.02,.02,.02l-.38,.33s.02,.03,.03,.04c.13-.09,.28-.17,.4-.28,.13-.12,.24-.13,.38-.03,.06,.05,.14,.07,.22,.1-.09,.07-.18,.13-.27,.19,0,.02,.02,.03,.02,.05,.08-.04,.16-.07,.27-.12-.07,.08-.11,.14-.15,.19,0,.01,.02,.02,.02,.04,.09-.04,.18-.07,.27-.11,0,0,0,.01,.01,.02-.06,.06-.13,.11-.19,.17,0,0,0,.02,0,.02,.08-.02,.16-.04,.26-.07-.05,.06-.09,.1-.15,.19,.13-.03,.22-.05,.32-.07-.07,.06-.12,.11-.18,.16l.02,.04,.23-.07s.01,.02,.02,.03c-.05,.04-.11,.07-.16,.11,0,.02,.02,.03,.03,.05,.09-.02,.18-.04,.31-.07-.1,.07-.16,.12-.23,.17,0,.01,0,.02,0,.03,.08,0,.17-.01,.29-.03-.1,.06-.18,.11-.25,.15,0,.01,.01,.03,.02,.04,.15-.06,.3-.12,.43-.17-.03,.03-.07,.07-.12,.11,.01,.02,.03,.04,.04,.05,.11-.07,.23-.13,.34-.2-.02,.03-.04,.08-.06,.12,.02,.01,.03,.03,.05,.04,.05-.06,.1-.11,.13-.18,.01-.02,.01-.09,0-.1-.16-.1-.24-.27-.41-.36-.17-.09-.33-.2-.5-.31,.03-.01,.05-.03,.09-.05-.08-.06-.15-.12-.24-.19,.14-.09,.27-.18,.4-.27,0,0,.01,.02,.02,.03-.09,.08-.18,.15-.26,.23l.02,.04c.09-.04,.17-.07,.24-.1-.04,.05-.09,.12-.14,.18,.26,.2,.54,.39,.78,.62,.18,.17,.31,.38,.46,.58,.15,.2,.21,.21,.39,.03-.06,0-.09,.01-.14,.02,.08-.07,.14-.13,.21-.19,0,0-.01-.01-.02-.02-.08,.03-.15,.06-.23,.09,0,0,0-.01-.01-.02l.29-.26s-.02-.03-.03-.05c-.12,.07-.25,.15-.37,.22,0,0,0-.02-.01-.02,.11-.11,.21-.21,.32-.32-.01-.01-.02-.03-.03-.04-.1,.07-.2,.14-.3,.21,0,0-.01-.02-.02-.03,.03-.02,.06-.04,.08-.06,.21-.16,.26-.37,.08-.58-.16-.19-.37-.33-.56-.49-.18-.15-.37-.29-.54-.46-.09-.09-.15-.22-.24-.36,.08-.03,.15-.06,.22-.09,0,0,0,.01,.01,.02-.03,.03-.06,.05-.09,.08,0,.01,0,.02,.01,.04,.08-.02,.17-.04,.27-.06-.06,.05-.12,.09-.21,.17h.25s-.05,.07-.09,.14c.11-.03,.2-.04,.3-.07-.06,.05-.1,.09-.19,.16,.11-.01,.16-.02,.23-.03-.04,.05-.08,.08-.14,.15,.13-.03,.21-.05,.31-.08-.07,.06-.12,.1-.17,.14,0,.01,.01,.02,.02,.03,.1-.03,.2-.07,.34-.11-.1,.08-.16,.14-.23,.2,.15,.11,.29,.23,.44,.32,.05,.03,.14,0,.21-.05-.05,0-.1,0-.14,0,.13-.11,.27-.23,.41-.35-.05,.1-.09,.18-.14,.28h.12s.02,.02,.03,.03c-.1,.08-.21,.16-.31,.23,0,0,0,.02,0,.02,.09-.02,.18-.04,.3-.07-.1,.07-.17,.12-.28,.2,.09,0,.14,0,.18,0,.05,0,.1-.03,.16-.02-.08,.05-.16,.1-.24,.16,0,.01,0,.03,0,.04,.09-.02,.19-.05,.28-.07,0,0,.01,.02,.02,.03l-.24,.18s.02,.03,.03,.05c.12-.05,.25-.11,.37-.16,0,0,.01,.01,.02,.02-.05,.05-.09,.1-.15,.14-.06,.04-.12,.08-.21,.13,.47-.09,.5-.26,.4-.59-.07-.22-.13-.46-.25-.65-.12-.19-.3-.35-.48-.47-.32-.21-.7-.33-1-.56-.35-.26-.72-.35-1.14-.34-.07,0-.15,.02-.22,.03-.19,.04-.39,.09-.57,.13,0,0,0-.02,.05-.09-.19,.09-.35,.16-.55,.26,.09-.08,.14-.14,.2-.19,0-.01-.02-.02-.02-.03-.09,.03-.18,.07-.3,.11,.05-.06,.08-.11,.12-.17-.09,.02-.14,.04-.19,.05-.05-.19-.15,0-.23-.05,.03-.01,.08-.03,.12-.04-.02-.03-.04-.05-.05-.08-.1,.04-.2,.09-.27,.12-.05-.03-.09-.07-.11-.07-.07,.03-.13,.02-.21,0-.12-.02-.25,.02-.38,.02-.07,0-.15-.04-.22-.03-.36,.02-.74-.09-1.08,.12,.04-.05,.08-.09,.12-.14,0,0,0-.02-.01-.02-.14,.06-.27,.12-.41,.18v-.02s.08-.08,.12-.12c0-.01-.01-.03-.02-.04-.11,.04-.22,.09-.36,.15,.04-.05,.06-.09,.12-.17-.16,.06-.29,.11-.41,.16,0,0-.02-.02-.02-.03,.06-.04,.11-.08,.17-.12,0-.01-.02-.03-.02-.04-.13,.06-.27,.13-.44,.21,.07-.09,.12-.14,.16-.2,0-.01-.02-.02-.03-.04-.11,.06-.22,.12-.37,.19,.05-.07,.08-.12,.11-.16,0-.01-.02-.03-.03-.04-.1,.05-.2,.1-.31,.15,0-.09-.01-.18-.02-.25,.34,0,.68,0,1.02,0,.29,0,.59,.02,.88,.04,.42,.02,.83,.06,1.24,.06,.25,0,.5-.05,.75-.08-.04-.25,0-.28,.21-.33,.18-.05,.38-.09,.54-.2,.27-.19,.55-.16,.84-.1,.21,.04,.43,.09,.65,.08,.39,0,.75,.09,1.12,.23,.51,.2,1.03,.37,1.59,.37,.54,0,1.07,.03,1.61,.03,.49,0,.97-.04,1.45-.07,.27-.01,.54-.03,.81-.03,.22,0,.45,0,.7,0Zm-8.93,3.59c0,.24,.38,.34,.53,.2,.26-.24,.48-.51,.61-.84,.08-.21-.11-.46-.33-.44-.23,.01-.5,.3-.51,.56,.09-.11,.17-.23,.24-.35,.05-.08,.12-.13,.21-.07,.11,.07,.22,.14,.33,.21-.06,.1-.1,.17-.15,.24-.07,.09-.15,.17-.28,.13-.21-.06-.38,.04-.54,.16l.4-.07s0,.01,0,.02l-.4,.16v.03c.15-.03,.29-.05,.42-.08,0,0,0,.01,0,.02-.1,.05-.21,.1-.31,.15v.04c.1-.01,.18-.02,.27-.03-.16,.13-.26,.13-.51-.04Zm.79,.47c.22,.16,.41,.16,.55,.02-.08,0-.17,.01-.27,.02,.1-.07,.19-.11,.24-.19,.09-.13,.15-.27,.21-.41,.1-.26-.02-.5-.31-.57,.02,.06,.05,.1,.08,.15,.04,.06,.13,.16,.11,.19-.1,.16-.16,.36-.41,.38-.07,0-.14,.06-.21,.09,0,.02,.01,.03,.02,.05l.3-.03s0,.01,0,.02l-.31,.15s0,.03,.01,.04c.09,0,.18-.02,.28-.03,0,.01,0,.02,0,.03-.1,.03-.2,.06-.31,.09Zm.81-.27s-.01-.02-.02-.03c.07-.05,.15-.1,.22-.16,.02-.02,.02-.06,.03-.09-.03,0-.06-.02-.09-.02-.22,.01-.25,.2-.31,.36-.06,.15,.1,.14,.16,.19,.04,.04,.09,.07,.14,.1,.22,.13,.45,.03,.52-.24-.08,.04-.15,.07-.25,.12,.08-.09,.14-.15,.19-.22-.08,0-.13,.05-.18,.08-.05,.03-.11,.05-.2,.1,.12-.13,.2-.22,.31-.34-.14,.08-.26,.14-.41,.22,.12-.11,.19-.19,.27-.26l-.03-.04-.37,.21Zm1.1-.21c.05-.07,.09-.13,.15-.24-.15,.09-.24,.15-.34,.2,0,0-.01-.02-.02-.03,.08-.07,.17-.15,.25-.22-.01-.01-.02-.03-.04-.04-.1,.06-.2,.12-.31,.19,.1-.11,.18-.2,.26-.29-.01-.01-.02-.02-.03-.03-.23,.16-.45,.37-.78,.23,.21,.16,.41,.31,.63,.42,.15,.08,.35-.06,.39-.26-.05,.02-.1,.04-.16,.06Zm-3.9-.69c.2,.19,.32,.17,.5-.05,.08-.1,.05-.21-.09-.3-.15-.1-.42-.03-.5,.12h.12c-.06,.05-.1,.09-.14,.12,0,.01,.01,.02,.02,.03,.07,0,.13-.02,.23-.03-.06,.05-.1,.08-.14,.11Zm.71,.45c.06-.08,.1-.13,.15-.19l-.04-.03c-.07,.02-.14,.03-.22,.05,.03-.05,.05-.09,.07-.15-.2,.06-.25,.21-.12,.35,.07,.08,.19,.15,.28,.15,.21,0,.36-.13,.48-.33-.1,.05-.17,.08-.23,.11,0,0-.01-.02-.02-.02,.03-.04,.05-.07,.1-.14-.17,.07-.3,.13-.46,.2Zm.31-.18c.08-.07,.17-.14,.25-.22-.09-.08-.16-.21-.26-.23-.08-.02-.24,.03-.23,.19,.01,.12,.06,.22,.24,.26Zm.98-.16c.07-.06,.23-.04,.16-.19-.06-.11-.26-.14-.35-.07-.11,.09-.12,.23-.02,.33,.13,.13,.18,.13,.32-.03-.03,0-.07-.02-.1-.03Zm-.64-.03c.14-.1,.14-.18,.06-.32-.11-.19-.41-.18-.6,.03,.32-.06,.45,.01,.54,.29Zm1.01,.24s-.08,.04-.1,.07c-.03,.04-.05,.09-.05,.13,0,.02,.07,.05,.1,.05,.05-.01,.1-.04,.14-.08,.04-.04,.06-.1,.1-.18-.06-.03-.13-.06-.21-.1l-.05,.07s.05,.03,.08,.04Zm-.84-.77s.03,.04,.04,.05c.16-.12,.31-.24,.47-.35-.01-.02-.03-.04-.04-.06-.16,.12-.31,.24-.47,.36Zm-.53-2.67c.2,.05,.36-.03,.43-.21-.14,.07-.28,.14-.43,.21Zm.85,2.61s.02,.03,.03,.04c.11-.07,.27-.06,.31-.22-.01-.02-.02-.03-.03-.05l-.31,.23Zm-1.59,.74c-.14-.07-.23-.13-.33-.18,.06,.13,.12,.25,.33,.18Z"/>
            <path class="cls-6" d="M17.51,23.99c.1-.11,.21-.22,.31-.33,0-.01-.02-.03-.03-.04-.1,.06-.21,.13-.31,.19,0,0-.01-.01-.02-.02,.09-.09,.17-.19,.26-.28l-.03-.03s-.09,.04-.15,.07c.01-.06,.02-.11,.03-.16h-.21s0-.03,0-.04c.08-.04,.17-.07,.25-.11,0,.01,0,.02,0,.04,.06,0,.11,.02,.18,.03-.04,.19,.11,.08,.21,.08-.03,.05-.05,.09-.08,.14,.05,0,.09,0,.12-.01-.08,.27-.32,.34-.52,.46Z"/>
            <path class="cls-6" d="M13.96,23.9c-.21,.19-.43,.37-.64,.56,.01,.02,.03,.03,.04,.05,.32-.12,.5-.44,.81-.58-.33,.44-.79,.7-1.17,.66,.32-.24,.62-.48,.93-.72,0,.01,.02,.02,.03,.03Z"/>
            <path class="cls-6" d="M23.06,23.99c-.17,.16-.35,.33-.54,.52,.3-.02,.43-.27,.64-.38-.08,.28-.47,.49-.87,.47,.26-.22,.51-.42,.75-.63,0,0,.01,.02,.02,.03Z"/>
            <path class="cls-6" d="M21.95,24.46c.29,0,.41-.2,.58-.31,.01,.01,.02,.03,.03,.04-.11,.1-.21,.23-.34,.3-.13,.07-.3,.08-.44,.11l-.02-.06c.22-.19,.44-.37,.66-.56,0,0,0,0-.01-.01-.14,.16-.29,.31-.46,.49Z"/>
            <path class="cls-6" d="M19.57,24.54c-.04,.08-.07,.13-.11,.2,.04-.01,.08-.02,.11-.03,0,0,0,.02,.01,.02-.08,.06-.15,.12-.23,.19,0-.02,0-.04,0-.05-.05-.02-.1-.04-.15-.06,0,0,.02-.03,.06-.1-.1,.01-.17,.02-.28,.03,.15-.11,.28-.2,.44-.31-.05,.09-.08,.15-.12,.22,0,.01,.02,.02,.03,.03,.07-.04,.14-.08,.23-.14Z"/>
            <path class="cls-6" d="M18,22.51c-.06,.01-.1,.02-.1,.02-.07-.07-.12-.13-.16-.18,.25,0,.44,.1,.64,.35-.11,0-.21,.01-.32,.02,.02-.03,.04-.07,.1-.16-.1,.04-.16,.06-.23,.08,.02-.04,.04-.08,.06-.13Z"/>
            <path class="cls-6" d="M13.29,23.97c-.22,.19-.39,.46-.72,.53,.23-.19,.46-.38,.69-.57,.01,.01,.02,.03,.03,.04Z"/>
            <path class="cls-6" d="M13.51,24.05c-.21,.17-.41,.33-.62,.5-.02-.02-.03-.04-.05-.06,.21-.16,.41-.33,.62-.49,.02,.02,.03,.03,.05,.05Z"/>
            <path class="cls-6" d="M23.45,24.61c.21-.16,.42-.33,.62-.49-.18,.2-.31,.45-.62,.49Z"/>
            <path class="cls-6" d="M23.14,24.61c.23-.17,.43-.32,.62-.47-.09,.2-.39,.44-.62,.47Z"/>
            <path class="cls-6" d="M21.58,23.47c-.17,.12-.4,.12-.58,0h.58Z"/>
            <path class="cls-6" d="M23.99,24.68c.21-.16,.41-.31,.62-.47-.14,.24-.4,.44-.62,.47Z"/>
            <path class="cls-6" d="M23.75,24.63c.18-.14,.35-.27,.53-.41l.03,.03c-.17,.15-.34,.29-.51,.44-.02-.02-.03-.04-.05-.06Z"/>
            <path class="cls-6" d="M12.32,24.49c.15-.14,.3-.28,.46-.41-.12,.17-.21,.38-.42,.45-.01-.01-.02-.02-.03-.04Z"/>
            <path class="cls-6" d="M24.88,24.36c-.16,.12-.32,.24-.48,.36-.02-.02-.03-.04-.05-.06,.16-.11,.33-.23,.49-.34,.01,.01,.03,.03,.04,.04Z"/>
            <path class="cls-6" d="M24.7,24.67c.14-.09,.28-.18,.42-.27,0,.01,.02,.02,.03,.04l-.4,.29s-.03-.04-.04-.06Z"/>
            <path class="cls-6" d="M12.01,24.5c.12-.11,.24-.22,.36-.34,0,0,.02,.02,.03,.03-.11,.12-.22,.24-.33,.36-.02-.02-.04-.04-.06-.05Z"/>
            <path class="cls-6" d="M15.3,23.22c-.12,.08-.25,.17-.37,.25,0-.01-.02-.02-.03-.04,.12-.09,.24-.18,.35-.27,.01,.02,.03,.04,.04,.05Z"/>
          </g>
        </g>
      </g>
    </g>
  </g>
</svg>