<?xml version="1.0" encoding="UTF-8"?>
<svg id="Capa_1" data-name="Capa 1" xmlns="http://www.w3.org/2000/svg" viewBox="0 0 100 50">
  <defs>
    <style>
      .cls-1 {
        fill: #888e99;
      }
    </style>
  </defs>
  <g>
    <path class="cls-1" d="M7.96,15.58v14.52c0,.68,.14,1.16,.42,1.43,.28,.27,.65,.4,1.12,.4s.84-.13,1.12-.4c.28-.27,.42-.74,.42-1.43V15.58h2.8v14.33c0,1.52-.37,2.69-1.12,3.51-.74,.82-1.84,1.22-3.29,1.22s-2.55-.41-3.29-1.22c-.74-.82-1.12-1.99-1.12-3.51V15.58h2.96Z"/>
    <path class="cls-1" d="M24.41,27.38v2.5c0,1.52-.37,2.69-1.12,3.51-.74,.82-1.84,1.22-3.29,1.22s-2.55-.41-3.29-1.22c-.74-.82-1.12-1.99-1.12-3.51v-9.79c0-1.52,.37-2.69,1.12-3.51,.74-.82,1.84-1.22,3.29-1.22s2.55,.41,3.29,1.22c.74,.82,1.12,1.99,1.12,3.51v1.83h-2.8v-2.02c0-.68-.14-1.16-.42-1.44-.28-.28-.65-.42-1.12-.42s-.84,.14-1.12,.42c-.28,.28-.42,.76-.42,1.44v10.16c0,.68,.14,1.16,.42,1.43,.28,.27,.65,.4,1.12,.4s.84-.13,1.12-.4c.28-.27,.42-.74,.42-1.43v-2.69h2.8Z"/>
  </g>
  <g>
    <path class="cls-1" d="M36.65,28.94l2.02-13.36h4.11v18.82h-2.8v-13.5l-2.04,13.5h-2.8l-2.21-13.31v13.31h-2.58V15.58h4.11l2.18,13.36Z"/>
    <path class="cls-1" d="M47.89,23.51h4.06v2.69h-4.06v5.51h5.11v2.69h-8.07V15.58h8.07v2.69h-5.11v5.24Z"/>
    <path class="cls-1" d="M61.01,34.4c-.04-.13-.07-.24-.11-.35-.04-.11-.07-.24-.09-.4-.03-.16-.04-.37-.05-.62,0-.25-.01-.56-.01-.94v-2.96c0-.88-.15-1.5-.46-1.86-.31-.36-.8-.54-1.48-.54h-1.02v7.66h-2.96V15.58h4.46c1.54,0,2.66,.36,3.35,1.08,.69,.72,1.03,1.8,1.03,3.25v1.48c0,1.94-.65,3.21-1.94,3.82,.75,.31,1.27,.8,1.55,1.49,.28,.69,.42,1.53,.42,2.51v2.9c0,.47,.02,.87,.05,1.22,.04,.35,.13,.7,.27,1.06h-3.01Zm-3.23-16.13v5.78h1.16c.56,0,.99-.14,1.3-.43,.31-.29,.47-.81,.47-1.56v-1.86c0-.68-.12-1.17-.36-1.48-.24-.3-.62-.46-1.14-.46h-1.43Z"/>
    <path class="cls-1" d="M74.21,27.38v2.5c0,1.52-.37,2.69-1.12,3.51-.74,.82-1.84,1.22-3.29,1.22s-2.55-.41-3.29-1.22c-.74-.82-1.12-1.99-1.12-3.51v-9.79c0-1.52,.37-2.69,1.12-3.51,.74-.82,1.84-1.22,3.29-1.22s2.55,.41,3.29,1.22c.74,.82,1.12,1.99,1.12,3.51v1.83h-2.8v-2.02c0-.68-.14-1.16-.42-1.44-.28-.28-.65-.42-1.12-.42s-.84,.14-1.12,.42c-.28,.28-.42,.76-.42,1.44v10.16c0,.68,.14,1.16,.42,1.43,.28,.27,.65,.4,1.12,.4s.84-.13,1.12-.4c.28-.27,.42-.74,.42-1.43v-2.69h2.8Z"/>
    <path class="cls-1" d="M78.97,23.51h4.06v2.69h-4.06v5.51h5.11v2.69h-8.07V15.58h8.07v2.69h-5.11v5.24Z"/>
    <path class="cls-1" d="M85.91,15.58h4.68c1.49,0,2.59,.39,3.32,1.18,.73,.79,1.09,1.95,1.09,3.47v9.52c0,1.52-.36,2.68-1.09,3.47s-1.83,1.18-3.32,1.18h-4.68V15.58Zm2.96,2.69v13.45h1.67c.47,0,.83-.13,1.1-.4s.4-.74,.4-1.43v-9.79c0-.68-.13-1.16-.4-1.43s-.64-.4-1.1-.4h-1.67Z"/>
  </g>
</svg>