<?xml version="1.0" encoding="UTF-8"?>
<svg id="Capa_1" data-name="Capa 1" xmlns="http://www.w3.org/2000/svg" viewBox="0 0 100 50">
  <defs>
    <style>
      .cls-1 {
        fill: #888e99;
      }
    </style>
  </defs>
  <g id="IPAS_Logo_RGB_Black">
    <path class="cls-1" d="M19.01,11.31h-3.87l.03-3.69h12.38v3.69h-3.26c-.57,0-.75,.18-.75,.71V28.76h3.87l-.03,3.69H15v-3.69h3.26c.57,0,.75-.18,.75-.71,0,0,0-16.75,0-16.75Z"/>
    <path class="cls-1" d="M36.07,31.63v7.06h4.58l-.04,3.69h-11.92v-3.69h2.2c.57,0,.75-.18,.75-.71V18.22h-2.87v-3.65h6.14l1.14,1.88,.71-.6c1.17-.96,2.38-1.63,4.4-1.63,4.05,0,7.06,2.66,7.06,8.91,0,5.61-2.52,9.83-7.84,9.83-1.84,0-3.23-.57-4.29-1.31Zm0-13.41v8.52c.85,1.06,2.02,2.09,3.94,2.09,2.48,0,3.62-1.56,3.62-5.61,0-3.51-.85-5-3.65-5h-3.9Z"/>
    <path class="cls-1" d="M66.98,28.94h2.55v3.51h-4.26l-2.24-2.06-1.06,.89c-1.21,.96-2.31,1.67-4.44,1.67-3.9,0-7.06-2.66-7.06-8.91,0-5.61,2.63-9.83,7.84-9.83,2.77,0,4.58,1.03,5.78,2.13l1.67-2.13h1.21v14.72h0Zm-4.47,0v-8.69c-.82-1.03-2.24-1.92-3.76-1.92-2.41,0-3.72,1.56-3.72,5.61,0,3.55,.99,5,3.8,5h3.69Z"/>
    <path class="cls-1" d="M75.7,32.77c-1.63,0-3.37-.14-4.61-.32v-3.51h9.3c.18-.32,.28-.64,.28-1.1,0-2.7-9.33-1.28-9.33-7.02,0-3.69,3.44-6.6,9.08-6.6,1.35,0,2.59,.11,3.87,.32v3.51h-8.34c-.36,.32-.57,.78-.57,1.24,0,2.98,9.61,1.24,9.61,7.52,0,3.65-2.73,5.96-9.3,5.96Z"/>
  </g>
</svg>