<?xml version="1.0" encoding="UTF-8"?>
<svg id="Capa_1" data-name="Capa 1" xmlns="http://www.w3.org/2000/svg" viewBox="0 0 100 50">
  <defs>
    <style>
      .cls-1 {
        fill: #888e99;
      }
    </style>
  </defs>
  <g id="Capa_2" data-name="Capa 2">
    <g id="Capa_8" data-name="Capa 8">
      <path class="cls-1" d="M25.82,26.58c-.5,1.82-1.13,3.6-1.88,5.33-.87,.2-3.96,.87-6.24,.87-8.92,0-12.64-5.8-12.64-11.14,0-6.87,5.3-11.67,13.32-11.67,2.72,0,5.2,.7,6.1,.91,.3,1.84,.54,3.39,.77,5.5l-1.24,.23c-1.11-3.98-3.69-5.16-6.27-5.16-4.87,0-7.55,4.59-7.55,9.53,0,6.17,3.32,10.23,7.88,10.23,2.78,0,4.86-1.78,6.57-5.16l1.17,.54Z"/>
      <path class="cls-1" d="M47.66,26.71c-.2,1.51-.9,4.56-1.17,5.57H29.39v-1.17c2.85-.23,3.19-.44,3.19-3.29V14.95c0-2.92-.34-3.08-2.72-3.29v-1.19h15.8c.04,.61,.2,2.95,.34,5.03l-1.21,.17c-.33-1.17-.77-2.28-1.38-2.89s-1.48-.83-3.36-.83h-1.6c-1.24,0-1.38,.07-1.38,1.17v7.1h2.25c2.82,0,3.25-.17,3.72-2.52h1.22v6.78h-1.22c-.47-2.42-.87-2.55-3.72-2.55h-2.25v5.81c0,1.58,.14,2.41,.8,2.76,.61,.28,1.74,.33,3.02,.33,1.71,0,2.92-.23,3.72-1.07,.64-.74,1.24-1.81,1.88-3.29l1.17,.22Z"/>
      <path class="cls-1" d="M64.33,15.95c-.7-2.1-1.95-4.59-4.7-4.59-1.88,0-3.25,1.41-3.25,3.32s1.21,2.92,4.15,4.39c3.52,1.71,5.94,3.59,5.94,6.91,0,3.82-3.25,6.81-8.15,6.81-1.15,0-2.29-.15-3.39-.47-.7-.2-1.38-.45-2.05-.74-.3-.83-.74-3.66-.97-5.7l1.19-.37c.67,2.15,2.65,5.9,5.87,5.9,2.05,0,3.35-1.41,3.35-3.52,0-1.98-1.47-3.22-3.99-4.56-3.46-1.74-5.84-3.55-5.84-6.78,0-3.69,2.91-6.57,7.68-6.57,1.6,.03,3.17,.33,4.66,.91,.13,1.24,.37,2.72,.64,4.8l-1.14,.27Z"/>
      <path class="cls-1" d="M70.59,32.28v-1.17c2.49-.23,2.78-.47,2.78-3.29V14.98c0-2.85-.3-3.08-2.78-3.32v-1.18h10.06v1.17c-2.49,.23-2.78,.47-2.78,3.32v12.85c0,2.82,.3,3.04,2.78,3.29v1.17h-10.06Z"/>
      <path class="cls-1" d="M95,11.66c-2.35,.23-2.65,.47-2.65,3.32v11.06c0,3.89-.33,7.08-3.42,9.63-1.18,1.01-2.58,1.72-4.09,2.08l-.5-1.22c1.81-.77,2.82-1.94,3.15-4.06,.3-1.88,.37-4.02,.37-6.54V14.98c0-2.85-.33-3.08-2.88-3.32v-1.18h10.03v1.17Z"/>
      <path class="cls-1" d="M6.96,38.84c-.2,.09-.42,.14-.64,.13-.8,0-1.32-.53-1.32-1.38,0-.91,.5-1.48,1.3-1.48,.22,0,.44,.04,.64,.13l-.14,.35c-.13-.05-.27-.07-.41-.07-.49,0-.79,.44-.79,1.04,0,.65,.33,1.03,.83,1.03,.14,0,.28-.02,.41-.08l.12,.33Z"/>
      <path class="cls-1" d="M8.33,37.7s0-.08,0-.11c0-.26-.08-.46-.31-.46s-.36,.23-.37,.57h.67Zm.33,.83l.07,.32c-.18,.08-.38,.11-.58,.11-.65,0-1.05-.41-1.05-1.11s.39-1.09,.94-1.09c.42-.01,.78,.32,.79,.74,0,.04,0,.07,0,.11,0,.11-.01,.22-.04,.33h-1.13c-.04,.3,.17,.58,.48,.62,.05,0,.11,0,.16,0,.12,0,.25-.02,.37-.06"/>
      <path class="cls-1" d="M9.22,38.93v-2.14h.55v.22c.17-.15,.38-.23,.6-.24,.29-.01,.54,.22,.56,.51,0,.03,0,.06,0,.08v1.57h-.55v-1.47c0-.19-.09-.28-.24-.28-.14,0-.26,.06-.36,.16v1.61h-.54Z"/>
      <path class="cls-1" d="M11.5,38.27v-1.13h-.24v-.35h.28l.1-.38h.43v.38h.49l-.04,.35h-.46v1.11c0,.22,.07,.3,.25,.3,.08,0,.16-.01,.24-.04l.05,.37c-.12,.04-.25,.06-.38,.06-.44,0-.73-.2-.73-.68"/>
      <path class="cls-1" d="M13.44,36.79v.28c.13-.19,.35-.3,.58-.3l-.05,.5c-.18-.02-.37,.01-.53,.11v1.55h-.55v-2.13h.55Z"/>
      <path class="cls-1" d="M15.46,37.9c0-.51-.13-.75-.36-.75s-.4,.25-.4,.74,.15,.72,.38,.72,.38-.28,.38-.71m.55-.04c0,.69-.35,1.11-.95,1.11-.55,0-.93-.42-.93-1.07s.4-1.11,.95-1.11,.92,.44,.92,1.07"/>
      <path class="cls-1" d="M18.36,38.37v-1.17c-.08-.06-.18-.09-.28-.08-.28,0-.42,.28-.42,.74,0,.42,.12,.72,.36,.72,.14,0,.26-.09,.32-.22m.55-2.64v2.47c0,.3,.08,.4,.25,.46l-.05,.29c-.26,.01-.5-.13-.62-.36h-.02c-.11,.22-.33,.36-.58,.36-.46,0-.76-.42-.76-1.07s.32-1.11,.87-1.11c.13,0,.26,.04,.37,.12v-1.17h.53Z"/>
      <path class="cls-1" d="M20.56,37.7v-.11c0-.26-.08-.46-.3-.46s-.36,.23-.37,.57h.67Zm.33,.83l.07,.32c-.19,.08-.39,.11-.59,.11-.65,0-1.05-.41-1.05-1.11s.38-1.08,.93-1.08c.42-.02,.78,.31,.8,.73,0,.04,0,.08,0,.12,0,.11-.01,.22-.04,.33h-1.13c-.04,.3,.17,.58,.48,.62,.05,0,.11,0,.16,0,.12,0,.25-.02,.37-.06"/>
      <polygon class="cls-1" points="23.88 38.55 23.88 38.93 22.32 38.93 22.32 36.15 23.84 36.15 23.84 36.54 22.92 36.54 22.92 37.36 23.68 37.36 23.68 37.72 22.92 37.72 22.92 38.55 23.88 38.55"/>
      <path class="cls-1" d="M25.38,36.89l-.08,.32c-.12-.05-.26-.08-.39-.08-.17,0-.29,.07-.29,.22,0,.35,.83,.39,.83,1,0,.4-.31,.61-.77,.61-.21,0-.41-.04-.61-.11l.07-.33c.16,.06,.32,.09,.48,.09,.15,0,.28-.07,.28-.22,0-.35-.85-.39-.85-1,0-.38,.32-.61,.81-.61,.19,0,.37,.04,.54,.12"/>
      <path class="cls-1" d="M25.8,38.27v-1.13h-.24v-.35h.28l.09-.38h.43v.38h.48l-.04,.35h-.45v1.11c0,.22,.07,.3,.25,.3,.08,0,.17-.01,.25-.04l.05,.37c-.12,.04-.25,.06-.38,.06-.44,0-.73-.2-.73-.68"/>
      <path class="cls-1" d="M28.29,36.79h.55v1.41c0,.3,.07,.39,.25,.46l-.08,.29c-.26,.02-.5-.12-.62-.35h-.02c-.12,.22-.35,.35-.59,.35-.33,.02-.61-.23-.63-.56,0-.04,0-.07,0-.11v-1.49h.55v1.49c0,.19,.08,.3,.24,.3,.14,0,.26-.09,.33-.22v-1.57Z"/>
      <path class="cls-1" d="M30.53,38.37v-1.17c-.08-.06-.18-.08-.28-.08-.28,0-.41,.28-.41,.74,0,.42,.12,.72,.36,.72,.14,0,.26-.09,.32-.22m.55-2.64v2.47c0,.3,.08,.4,.24,.46l-.06,.29c-.26,.02-.5-.13-.62-.36h-.02c-.11,.22-.33,.36-.58,.36-.46,0-.75-.42-.75-1.07s.32-1.11,.87-1.11c.13,0,.26,.04,.37,.12v-1.17h.54Z"/>
      <path class="cls-1" d="M31.66,36.79h.55v2.14h-.55v-2.14Zm-.02-.68c.02-.16,.16-.28,.33-.27,.14,.01,.25,.13,.27,.27-.02,.16-.16,.28-.33,.27-.14-.01-.25-.13-.27-.27"/>
      <path class="cls-1" d="M33.93,37.9c0-.51-.13-.75-.36-.75s-.4,.25-.4,.74,.15,.72,.38,.72,.38-.28,.38-.71m.55-.04c0,.69-.35,1.11-.95,1.11-.55,0-.93-.42-.93-1.07s.4-1.11,.96-1.11,.92,.44,.92,1.07"/>
      <path class="cls-1" d="M36.03,36.89l-.07,.32c-.13-.05-.26-.08-.4-.08-.17,0-.29,.07-.29,.22,0,.35,.83,.39,.83,1,0,.4-.31,.61-.77,.61-.21,0-.41-.04-.6-.11l.07-.33c.16,.06,.32,.09,.48,.09,.15,0,.28-.07,.28-.22,0-.35-.86-.39-.86-1,0-.38,.33-.61,.81-.61,.19,0,.38,.03,.55,.12"/>
      <path class="cls-1" d="M38.45,36.89l-.08,.32c-.13-.05-.26-.08-.4-.08-.17,0-.29,.07-.29,.22,0,.35,.83,.39,.83,1,0,.4-.31,.61-.77,.61-.21,0-.41-.04-.6-.11l.07-.33c.16,.06,.32,.09,.49,.09,.15,0,.28-.07,.28-.22,0-.35-.85-.39-.85-1,0-.38,.32-.61,.81-.61,.19,0,.38,.03,.55,.12"/>
      <path class="cls-1" d="M40.02,37.9c0-.51-.13-.75-.36-.75s-.4,.25-.4,.74,.15,.72,.38,.72,.38-.28,.38-.71m.55-.04c0,.69-.35,1.11-.95,1.11-.55,0-.92-.42-.92-1.07s.4-1.11,.95-1.11,.92,.44,.92,1.07"/>
      <path class="cls-1" d="M42.21,37.83c0-.41-.09-.66-.34-.66-.13,.01-.25,.06-.35,.15v1.13c.09,.08,.2,.13,.32,.14,.26,0,.37-.35,.37-.77m-.69-2.11v1.3c.14-.14,.33-.23,.53-.24,.49,0,.71,.47,.71,1.06,0,.67-.33,1.11-.83,1.11-.19,0-.37-.09-.49-.23l-.09,.21h-.39v-3.2h.56Z"/>
      <path class="cls-1" d="M43.72,36.79v.28c.14-.18,.35-.3,.58-.3l-.04,.51c-.18-.02-.37,.01-.53,.11v1.55h-.55v-2.14h.55Z"/>
      <path class="cls-1" d="M45.65,37.7v-.11c0-.26-.08-.46-.3-.46s-.36,.23-.37,.57h.67Zm.33,.83l.07,.32c-.19,.08-.39,.11-.59,.11-.65,0-1.05-.41-1.05-1.11s.39-1.09,.94-1.09c.42-.02,.78,.31,.8,.73,0,.04,0,.08,0,.12,0,.11-.01,.22-.03,.33h-1.14c-.04,.3,.17,.58,.48,.62,.05,0,.11,0,.16,0,.12,0,.25-.02,.37-.06"/>
      <rect class="cls-1" x="47.41" y="36.15" width=".6" height="2.78"/>
      <path class="cls-1" d="M48.58,38.93v-2.14h.55v.22c.16-.14,.36-.23,.58-.24,.2-.02,.39,.09,.48,.28,.18-.16,.4-.26,.64-.28,.28-.03,.53,.18,.56,.46,0,.04,0,.08,0,.12v1.58h-.55v-1.47c0-.19-.08-.28-.23-.28-.13,.01-.24,.06-.33,.15v1.61h-.55v-1.49c0-.19-.08-.28-.23-.28-.13,.01-.24,.07-.33,.16v1.61h-.57Z"/>
      <path class="cls-1" d="M52.77,38.59c.28,0,.4-.33,.4-.76s-.1-.66-.34-.66c-.13,.01-.25,.06-.35,.15v1.19c.09,.06,.19,.09,.29,.09m-.29,1.41h-.55v-3.21h.55v.22c.15-.14,.35-.23,.55-.24,.48,0,.69,.47,.69,1.06,0,.67-.36,1.11-.85,1.11-.14,0-.27-.03-.39-.1v1.16Z"/>
      <path class="cls-1" d="M55.22,36.79h.55v1.41c0,.3,.07,.39,.25,.46l-.08,.29c-.26,.02-.5-.12-.62-.35h-.01c-.12,.22-.35,.35-.59,.35-.33,.02-.61-.23-.63-.56,0-.04,0-.07,0-.11v-1.49h.55v1.49c0,.19,.08,.3,.23,.3,.14,0,.26-.09,.33-.22v-1.57Z"/>
      <path class="cls-1" d="M56.39,38.93v-2.14h.55v.22c.16-.15,.37-.23,.59-.24,.3-.01,.54,.22,.56,.52,0,.03,0,.05,0,.08v1.57h-.55v-1.47c0-.19-.09-.28-.24-.28-.14,0-.27,.06-.36,.16v1.61h-.54Z"/>
      <path class="cls-1" d="M58.65,36.79h.55v2.14h-.55v-2.14Zm-.02-.68c.02-.16,.16-.28,.33-.27,.14,.01,.25,.13,.27,.27-.02,.16-.16,.28-.33,.27-.14-.01-.25-.13-.27-.27"/>
      <path class="cls-1" d="M60.84,38.37v-1.17c-.08-.06-.18-.09-.28-.08-.28,0-.41,.28-.41,.74,0,.42,.12,.72,.36,.72,.14,0,.26-.09,.32-.22m.55-2.64v2.47c0,.3,.08,.4,.24,.46l-.07,.29c-.26,.02-.5-.13-.62-.36h-.02c-.11,.22-.33,.36-.58,.36-.46,0-.76-.42-.76-1.07s.32-1.11,.87-1.11c.13,0,.26,.04,.37,.12v-1.17h.56Z"/>
      <path class="cls-1" d="M62.84,38.06v-.09c-.3,.02-.53,.16-.53,.39-.01,.1,.06,.2,.17,.21,0,0,.02,0,.03,0,.19,0,.33-.24,.33-.51m-.89-.8l-.12-.33c.25-.1,.51-.15,.78-.16,.53,0,.77,.28,.77,.69,0,.23-.02,.46-.02,.73s.07,.41,.25,.48l-.07,.29c-.27,.02-.52-.13-.63-.38h-.02c-.11,.24-.35,.39-.61,.38-.27,.02-.51-.18-.53-.45,0-.02,0-.03,0-.05,0-.41,.42-.61,.83-.67l.26-.03v-.23c0-.25-.11-.37-.36-.37-.18,0-.36,.05-.53,.12"/>
      <path class="cls-1" d="M65.02,38.37v-1.17c-.08-.06-.18-.09-.28-.08-.28,0-.41,.28-.41,.74,0,.42,.12,.72,.36,.72,.14,0,.26-.09,.32-.22m.55-2.64v2.47c0,.3,.08,.4,.24,.46l-.07,.29c-.26,.02-.5-.13-.62-.36h-.02c-.11,.22-.33,.36-.58,.36-.46,0-.76-.42-.76-1.07s.32-1.11,.87-1.11c.13,0,.26,.04,.37,.12v-1.17h.56Z"/>
      <path class="cls-1" d="M68.14,38.55c-.06,.27-.17,.52-.32,.74-.19,.27-.41,.52-.66,.74l-.28-.22c.18-.25,.31-.53,.41-.83l-.57-2.18h.55l.4,1.8h.02l.38-1.8h.51l-.44,1.76Z"/>
      <path class="cls-1" d="M69.75,36.15h.61v2.14c.03,.54-.2,1.05-.62,1.38l-.31-.26c.25-.35,.37-.77,.33-1.2v-2.06Z"/>
      <path class="cls-1" d="M72.02,36.79h.55v1.41c0,.3,.07,.39,.25,.46l-.08,.29c-.26,.02-.5-.12-.61-.35h-.02c-.12,.22-.35,.35-.6,.35-.33,.02-.61-.23-.62-.56,0-.04,0-.07,0-.11v-1.49h.55v1.49c0,.19,.08,.3,.23,.3,.14,0,.27-.09,.33-.22v-1.57Z"/>
      <path class="cls-1" d="M74.34,36.89l-.08,.32c-.13-.05-.26-.08-.4-.08-.17,0-.3,.07-.3,.22,0,.35,.84,.39,.84,1,0,.4-.31,.61-.77,.61-.21,0-.41-.04-.6-.11l.07-.33c.16,.06,.32,.09,.48,.09,.15,0,.28-.07,.28-.22,0-.35-.86-.39-.86-1,0-.38,.33-.61,.81-.61,.19,0,.38,.04,.55,.12"/>
      <path class="cls-1" d="M74.76,38.27v-1.13h-.24v-.35h.28l.09-.38h.43v.38h.49l-.04,.35h-.46v1.11c0,.22,.07,.3,.25,.3,.08,0,.16-.01,.24-.04l.05,.37c-.12,.04-.25,.06-.38,.06-.43,0-.73-.2-.73-.68"/>
      <path class="cls-1" d="M76.15,36.79h.55v2.14h-.55v-2.14Zm-.02-.68c.02-.16,.16-.28,.33-.27,.14,.01,.25,.13,.27,.27-.02,.16-.16,.28-.33,.27-.14-.01-.25-.13-.27-.27"/>
      <path class="cls-1" d="M78.2,37.16c-.31,0-.54,.23-.54,.7s.23,.7,.59,.7c.1,0,.2-.02,.3-.05l.1,.33c-.17,.08-.35,.11-.53,.11-.6,0-1.01-.39-1.01-1.09s.39-1.11,1.01-1.11c.18,0,.36,.04,.52,.12l-.12,.33c-.1-.04-.21-.06-.32-.06"/>
      <path class="cls-1" d="M78.97,36.79h.55v2.14h-.55v-2.14Zm-.02-.68c.02-.16,.16-.28,.33-.27,.14,.01,.25,.13,.27,.27-.02,.16-.16,.28-.33,.27-.14-.01-.25-.13-.27-.27"/>
      <path class="cls-1" d="M80.95,38.06v-.09c-.3,.02-.53,.16-.53,.39-.01,.1,.06,.2,.17,.21,0,0,.02,0,.03,0,.19,0,.33-.24,.33-.51m-.88-.8l-.11-.33c.25-.1,.51-.15,.78-.16,.53,0,.77,.28,.77,.69,0,.23-.02,.46-.02,.73s.08,.41,.25,.48l-.07,.29c-.27,.02-.52-.13-.63-.38h-.01c-.11,.24-.35,.39-.61,.38-.27,.02-.51-.18-.53-.45,0-.02,0-.03,0-.05,0-.41,.42-.61,.83-.67l.28-.03v-.23c0-.25-.11-.37-.36-.37-.18,0-.36,.05-.53,.12"/>
    </g>
  </g>
</svg>