<?xml version="1.0" encoding="UTF-8"?>
<svg id="Capa_1" data-name="Capa 1" xmlns="http://www.w3.org/2000/svg" viewBox="0 0 100 50">
  <defs>
    <style>
      .cls-1 {
        fill: #888e99;
      }
    </style>
  </defs>
  <g id="Capa_2" data-name="Capa 2">
    <g id="Layer_1" data-name="Layer 1">
      <path class="cls-1" d="M41.92,35.03h1.64c.42,0,.75,.12,.96,.32,.16,.16,.25,.38,.25,.61h0c0,.36-.2,.68-.52,.83,.43,.15,.73,.39,.73,.89h0c0,.67-.54,1.02-1.35,1.02h-1.7v-3.66Zm1.51,1.54c.41,0,.69-.16,.69-.5h0c0-.3-.23-.48-.64-.48h-.93v.97h.88Zm.19,1.55c.44,0,.71-.17,.71-.5h0c0-.32-.25-.5-.75-.5h-1.02v1h1.07Z"/>
      <path class="cls-1" d="M47.1,38.7v-.34c-.22,.26-.55,.41-.89,.4-.52,0-.98-.29-.98-.85h0c0-.62,.48-.92,1.12-.92,.26,0,.52,.03,.76,.12v-.05c0-.38-.24-.58-.68-.58-.27,0-.54,.06-.79,.17l-.17-.51c.33-.16,.69-.23,1.05-.23,.82,0,1.21,.43,1.21,1.17v1.64h-.63Zm.02-1.16c-.2-.07-.42-.11-.63-.11-.4,0-.63,.16-.63,.43h0c0,.27,.24,.42,.53,.42,.42,0,.73-.24,.73-.58v-.15Z"/>
      <path class="cls-1" d="M48.28,35.93h.63v.43c.18-.3,.51-.49,.86-.49,.62,0,.98,.42,.98,1.06v1.76h-.63v-1.57c0-.43-.21-.68-.59-.68s-.62,.26-.62,.69v1.56h-.63v-2.76Z"/>
      <path class="cls-1" d="M51.16,37.33h0c-.01-.8,.62-1.44,1.41-1.45,0,0,.02,0,.03,0,.42-.02,.83,.16,1.1,.48l-.39,.43c-.18-.22-.44-.34-.72-.34-.46,0-.8,.4-.8,.88h0c0,.5,.34,.9,.83,.9,.28,0,.54-.13,.72-.34l.38,.38c-.27,.34-.69,.53-1.13,.52-.78,.01-1.42-.61-1.43-1.39,0-.02,0-.03,0-.05Z"/>
      <path class="cls-1" d="M53.86,37.33h0c0-.82,.65-1.49,1.47-1.49s1.48,.65,1.48,1.47h0c0,.81-.65,1.45-1.45,1.45-.01,0-.02,0-.03,0-.79,.02-1.44-.6-1.46-1.39,0-.01,0-.03,0-.04Zm2.31,0h0c.02-.48-.35-.88-.82-.9,0,0-.02,0-.03,0-.51,0-.83,.4-.83,.88h0c-.02,.48,.35,.88,.82,.9,0,0,.01,0,.02,0,.46,0,.83-.37,.84-.83,0-.02,0-.03,0-.05Z"/>
      <path class="cls-1" d="M58.71,35.03h.64v3.66h-.64v-3.66Z"/>
      <path class="cls-1" d="M60.05,35.93h.63v.43c.18-.3,.51-.49,.86-.49,.62,0,.98,.42,.98,1.06v1.76h-.63v-1.57c0-.43-.21-.68-.59-.68s-.62,.26-.62,.69v1.56h-.63v-2.76Z"/>
      <path class="cls-1" d="M63.22,37.93v-1.46h-.35v-.54h.35v-.75h.63v.76h.74v.54h-.74v1.35c-.03,.16,.09,.32,.25,.35,.03,0,.06,0,.09,0,.14,0,.27-.03,.39-.09v.52c-.17,.1-.37,.15-.57,.15-.47,0-.8-.21-.8-.82Z"/>
      <path class="cls-1" d="M64.79,37.33h0c0-.8,.56-1.45,1.35-1.45,.88,0,1.32,.69,1.32,1.49,0,.06,0,.12-.01,.18h-2.03c.04,.41,.39,.72,.8,.7,.28,0,.56-.12,.75-.33l.37,.33c-.27,.34-.69,.53-1.13,.52-.76,.02-1.4-.57-1.42-1.33,0-.03,0-.07,0-.1Zm2.04-.2c-.04-.41-.28-.73-.7-.73-.39,0-.66,.29-.72,.73h1.42Z"/>
      <path class="cls-1" d="M67.89,35.93h.63v.62c.17-.41,.49-.7,.98-.68v.67h-.04c-.55,0-.94,.36-.94,1.09v1.05h-.63v-2.76Z"/>
      <path class="cls-1" d="M71.41,38.7v-.34c-.22,.26-.55,.41-.89,.4-.52,0-.98-.29-.98-.85h0c0-.62,.48-.92,1.12-.92,.26,0,.52,.03,.76,.12v-.05c0-.38-.24-.58-.68-.58-.27,0-.54,.06-.79,.17l-.17-.51c.33-.16,.69-.23,1.05-.23,.82,0,1.21,.43,1.21,1.17v1.64h-.63Zm.01-1.16c-.2-.07-.42-.11-.63-.11-.4,0-.63,.16-.63,.43h0c0,.27,.24,.42,.53,.42,.42,0,.73-.24,.73-.58v-.15Z"/>
      <path class="cls-1" d="M72.58,35.93h.63v.42c.18-.29,.5-.47,.84-.48,.35-.01,.67,.18,.82,.49,.21-.31,.56-.49,.94-.49,.6,0,.97,.38,.97,1.06v1.76h-.63v-1.57c0-.44-.2-.68-.56-.68s-.58,.24-.58,.69v1.56h-.64v-1.58c0-.43-.21-.67-.56-.67s-.59,.26-.59,.69v1.55h-.63v-2.76Z"/>
      <path class="cls-1" d="M77.19,37.33h0c0-.8,.56-1.45,1.35-1.45,.88,0,1.32,.69,1.32,1.49,0,.06,0,.12-.01,.18h-2.03c.04,.41,.39,.72,.79,.7,.29,0,.56-.12,.75-.33l.37,.33c-.27,.34-.69,.53-1.13,.52-.76,.02-1.4-.58-1.42-1.34,0-.03,0-.06,0-.1Zm2.04-.2c-.04-.41-.28-.73-.7-.73-.39,0-.66,.29-.72,.73h1.42Z"/>
      <path class="cls-1" d="M80.29,35.93h.63v.62c.17-.41,.49-.7,.98-.68v.67h-.04c-.55,0-.94,.36-.94,1.09v1.05h-.63v-2.76Z"/>
      <path class="cls-1" d="M82.25,34.91h.68v.6h-.68v-.6Zm.03,1.02h.63v2.76h-.63v-2.76Z"/>
      <path class="cls-1" d="M83.38,37.33h0c-.01-.8,.62-1.44,1.41-1.45,0,0,.02,0,.03,0,.42-.02,.83,.16,1.11,.48l-.39,.42c-.18-.22-.44-.34-.72-.34-.46,0-.8,.4-.8,.88h0c0,.5,.34,.9,.83,.9,.28,0,.54-.13,.72-.34l.38,.38c-.27,.34-.69,.53-1.13,.52-.78,0-1.42-.61-1.43-1.39,0-.01,0-.02,0-.03Z"/>
      <path class="cls-1" d="M88,38.7v-.34c-.22,.26-.55,.41-.89,.4-.52,0-.98-.29-.98-.85h0c0-.62,.48-.92,1.12-.92,.26,0,.52,.03,.76,.12v-.05c0-.38-.24-.58-.68-.58-.27,0-.54,.06-.79,.17l-.17-.51c.33-.16,.69-.23,1.05-.23,.82,0,1.21,.43,1.21,1.17v1.64h-.63Zm.01-1.16c-.2-.07-.42-.11-.63-.11-.4,0-.63,.16-.63,.43h0c0,.27,.24,.42,.53,.42,.42,0,.73-.24,.73-.58v-.15Z"/>
      <path class="cls-1" d="M89.17,35.93h.64v.43c.18-.3,.51-.49,.86-.49,.62,0,.98,.42,.98,1.06v1.76h-.64v-1.57c0-.43-.21-.68-.58-.68s-.62,.26-.62,.69v1.56h-.63v-2.76Z"/>
      <path class="cls-1" d="M92.05,37.33h0c0-.82,.65-1.49,1.47-1.49s1.48,.65,1.48,1.47h0c0,.81-.65,1.45-1.45,1.45-.01,0-.02,0-.03,0-.79,.02-1.44-.6-1.46-1.39,0-.01,0-.03,0-.04Zm2.31,0h0c.02-.48-.35-.88-.82-.9,0,0-.02,0-.03,0-.51,0-.83,.4-.83,.88h0c-.02,.48,.35,.88,.82,.9,0,0,.01,0,.02,0,.46,0,.83-.37,.84-.83,0-.02,0-.03,0-.05h0Z"/>
      <path class="cls-1" d="M41.7,42.73h0c0-.93,.62-1.45,1.28-1.45,.37,0,.73,.18,.94,.49v-1.48h.63v3.82h-.63v-.46c-.2,.32-.56,.52-.94,.52-.65,0-1.28-.52-1.28-1.44Zm2.23,0h0c0-.54-.38-.89-.8-.89s-.8,.33-.8,.88h0c0,.54,.37,.89,.8,.89s.8-.35,.8-.88Z"/>
      <path class="cls-1" d="M44.99,42.73h0c0-.8,.56-1.45,1.35-1.45,.88,0,1.32,.69,1.32,1.49,0,.06,0,.12-.01,.18h-2.03c.04,.41,.38,.72,.79,.7,.29,0,.56-.12,.75-.33l.37,.33c-.27,.34-.69,.53-1.13,.52-.76,.02-1.4-.58-1.42-1.34,0-.03,0-.06,0-.1Zm2.04-.2c-.04-.41-.28-.73-.7-.73-.39,0-.66,.3-.72,.73h1.42Z"/>
      <path class="cls-1" d="M49.53,40.43h1.36c1.15,0,1.95,.79,1.95,1.82h0c0,1.04-.8,1.84-1.95,1.84h-1.36v-3.66Zm1.36,3.08c.77,0,1.27-.52,1.27-1.23h0c0-.73-.5-1.26-1.27-1.26h-.72v2.49h.72Z"/>
      <path class="cls-1" d="M53.18,42.73h0c0-.8,.56-1.45,1.35-1.45,.88,0,1.32,.69,1.32,1.49,0,.06,0,.12-.01,.18h-2.03c.04,.41,.39,.72,.8,.7,.28,0,.56-.12,.75-.33l.37,.33c-.28,.34-.69,.53-1.13,.52-.76,.02-1.4-.57-1.42-1.34,0-.03,0-.07,0-.1Zm2.04-.2c-.04-.41-.28-.73-.7-.73-.39,0-.66,.3-.72,.73h1.42Z"/>
      <path class="cls-1" d="M56.06,43.74l.28-.43c.26,.21,.58,.32,.91,.33,.27,0,.43-.12,.43-.29h0c0-.22-.29-.3-.62-.4-.41-.11-.86-.28-.86-.81h0c0-.53,.44-.85,.98-.85,.36,0,.72,.11,1.02,.31l-.25,.45c-.23-.15-.5-.24-.78-.26-.25,0-.39,.12-.39,.28h0c0,.21,.29,.29,.62,.4,.4,.13,.86,.31,.86,.81h0c0,.59-.45,.89-1.02,.89-.43,0-.85-.15-1.18-.42Z"/>
      <path class="cls-1" d="M58.54,42.73h0c0-.8,.56-1.45,1.35-1.45,.88,0,1.32,.69,1.32,1.49,0,.06,0,.12-.01,.18h-2.03c.04,.41,.39,.72,.8,.7,.28,0,.56-.12,.75-.33l.37,.33c-.28,.34-.69,.53-1.13,.52-.76,.02-1.4-.58-1.42-1.34,0-.03,0-.06,0-.1Zm2.04-.2c-.04-.41-.28-.73-.7-.73-.39,0-.66,.3-.72,.73h1.42Z"/>
      <path class="cls-1" d="M61.65,41.34h.63v.43c.18-.3,.51-.49,.86-.49,.62,0,.98,.42,.98,1.06v1.75h-.63v-1.56c0-.43-.21-.67-.59-.67s-.62,.26-.62,.68v1.56h-.63v-2.76Z"/>
      <path class="cls-1" d="M64.32,41.34h.67l.74,2.03,.75-2.03h.67l-1.13,2.78h-.57l-1.13-2.78Z"/>
      <path class="cls-1" d="M67.18,42.74h0c0-.82,.65-1.49,1.47-1.49,.81,0,1.48,.65,1.48,1.47h0c0,.81-.65,1.45-1.45,1.45-.01,0-.02,0-.04,0-.79,.02-1.44-.61-1.46-1.4,0,0,0-.02,0-.03Zm2.31,0h0c.02-.48-.35-.88-.82-.9,0,0-.02,0-.03,0-.51,0-.83,.4-.83,.88h0c-.02,.48,.35,.88,.82,.9,0,0,.01,0,.02,0,.46,0,.83-.37,.83-.83,0-.01,0-.03,0-.04h0Z"/>
      <path class="cls-1" d="M70.59,40.29h.63v3.82h-.63v-3.82Z"/>
      <path class="cls-1" d="M71.58,41.34h.68l.74,2.03,.75-2.03h.66l-1.13,2.78h-.57l-1.13-2.78Z"/>
      <path class="cls-1" d="M74.75,40.31h.68v.6h-.68v-.6Zm.03,1.02h.63v2.76h-.63v-2.76Z"/>
      <path class="cls-1" d="M76.03,41.34h.64v.42c.18-.3,.5-.48,.84-.48,.35-.02,.67,.18,.82,.49,.21-.31,.56-.49,.94-.49,.6,0,.97,.38,.97,1.06v1.76h-.63v-1.57c0-.44-.2-.67-.56-.67s-.59,.24-.59,.68v1.56h-.63v-1.57c0-.43-.21-.67-.56-.67s-.58,.26-.58,.69v1.55h-.63v-2.76Z"/>
      <path class="cls-1" d="M80.64,42.73h0c0-.8,.56-1.45,1.35-1.45,.88,0,1.32,.69,1.32,1.49,0,.06,0,.12-.01,.18h-2.03c.04,.41,.39,.71,.79,.7,.29,0,.56-.12,.75-.33l.37,.33c-.27,.34-.69,.53-1.13,.52-.76,.02-1.4-.58-1.42-1.34,0-.03,0-.06,0-.1Zm2.04-.2c-.04-.41-.28-.73-.7-.73-.39,0-.66,.3-.72,.73h1.42Z"/>
      <path class="cls-1" d="M83.74,41.34h.63v.43c.18-.3,.51-.49,.86-.49,.62,0,.98,.42,.98,1.06v1.75h-.63v-1.56c0-.43-.21-.67-.58-.67s-.62,.26-.62,.68v1.56h-.63v-2.76Z"/>
      <path class="cls-1" d="M86.91,43.34v-1.46h-.35v-.54h.35v-.76h.63v.76h.74v.54h-.74v1.35c-.03,.16,.09,.32,.25,.35,.03,0,.06,0,.09,0,.14,0,.27-.03,.39-.09v.52c-.17,.1-.37,.15-.57,.15-.47,0-.8-.21-.8-.82Z"/>
      <path class="cls-1" d="M88.49,42.74h0c0-.81,.65-1.46,1.44-1.46,.01,0,.02,0,.03,0,.79-.02,1.45,.6,1.47,1.39,0,.01,0,.03,0,.04h0c0,.81-.65,1.45-1.45,1.45-.01,0-.02,0-.04,0-.79,.02-1.44-.61-1.46-1.4,0,0,0-.02,0-.03Zm2.31,0h0c.02-.48-.35-.88-.82-.9,0,0-.02,0-.03,0-.51,0-.83,.4-.83,.88h0c-.02,.48,.35,.88,.82,.9,0,0,.01,0,.02,0,.46,0,.83-.37,.83-.83,0-.01,0-.03,0-.04h0Z"/>
      <path class="cls-1" d="M55.53,19.79c1.45-.98,2.16-2.32,2.16-4.07v-.06c0-1.39-.46-2.52-1.4-3.46-1.17-1.17-2.96-1.78-5.2-1.78h-9.16V30.13h9.38c4.73,0,7.44-2.02,7.44-5.54v-.05c0-2.27-1-3.75-3.22-4.75Zm-4.23,6.06h-4.69v-3.6h4.56c1.87,0,2.81,.6,2.81,1.77v.06c0,1.18-.9,1.77-2.67,1.77h0Zm-4.69-7.69v-3.44h3.85c1.12,0,2.46,.29,2.46,1.66v.05c0,1.14-.92,1.72-2.73,1.72h-3.57Z"/>
      <path class="cls-1" d="M74.53,10.43h-7.75V30.13h7.75c2.95,0,5.62-1.01,7.53-2.84,1.88-1.81,2.92-4.29,2.92-7.01v-.05c0-5.68-4.39-9.8-10.45-9.8Zm5.46,9.85v.06c0,3.23-2.19,5.4-5.46,5.4h-2.95V14.82h2.95c3.26,0,5.46,2.19,5.46,5.46Z"/>
      <path class="cls-1" d="M62.48,10.4c1.33,0,2.4,1.07,2.4,2.4V30.13h-4.8V10.4h2.4Z"/>
      <path class="cls-1" d="M21.87,23.25c-2.53,4.1,5.6,4.16,1.84,11.82-.11,.02-.22,.04-.33,.06-8.78,1.28-16.93-4.8-18.21-13.57-.58-3.99,.36-8.05,2.64-11.38-.41,9.26,16.43,9.25,14.07,13.08m3.59,11.43c.87-1.61,2.75-3.96,6.79-8.71,6.03-7.09-11.85-4.71-14.91-10.07-2.52-4.43,6.87-7.6,12.55-10.06,7.4,4.88,9.45,14.84,4.56,22.25-2.11,3.2-5.3,5.54-8.99,6.6Zm-5.3-20.25c-.6,.31,.47,1.72,3.22,1.79s-.79-3.07-3.22-1.79Zm6.08,1.5c-2.07-.67-.71,.98,.28,1.09s1.19-.62-.28-1.09Zm2.16,1.62c-.69-.03-.81,.39,.22,.61,1.46,.31,.47-.58-.22-.61Z"/>
    </g>
  </g>
</svg>