<?xml version="1.0" encoding="UTF-8"?>
<svg id="Capa_1" data-name="Capa 1" xmlns="http://www.w3.org/2000/svg" viewBox="0 0 100 50">
  <defs>
    <style>
      .cls-1 {
        fill: #888e99;
      }
    </style>
  </defs>
  <g id="Capa_2" data-name="Capa 2">
    <g id="Layer_1" data-name="Layer 1">
      <path class="cls-1" d="M47.32,16.54c0,1.59,1.29,2.88,2.88,2.88s2.88-1.29,2.88-2.88-1.29-2.88-2.88-2.88-2.88,1.29-2.88,2.88h0Z"/>
      <path class="cls-1" d="M35.56,2.5V30.67h29.29V2.5h-29.29Zm26.41,5.8h-3.96s0,0,0,0h-7.81c-4.55,0-8.24,3.69-8.24,8.24,0,1.78,.57,3.51,1.64,4.93h-3.67c-.73-1.52-1.11-3.2-1.11-4.89,0-5.39,3.75-9.9,8.77-11.08h14.37v2.8Zm-6.64,8.24c0,2.83-2.29,5.12-5.12,5.12s-5.12-2.29-5.12-5.12,2.29-5.12,5.12-5.12c2.83,0,5.12,2.29,5.12,5.12Zm-13.93-11.04c-1.05,.79-1.99,1.72-2.8,2.76v-2.76h2.8Zm-2.8,19.07v-.02h0v.02h9.76c.6,.14,1.22,.21,1.84,.21,4.55,0,8.24-3.69,8.24-8.24,0-1.95-.69-3.84-1.95-5.32l3.76,.02c.88,1.65,1.33,3.48,1.33,5.35,0,5.39-3.74,9.9-8.77,11.08h-14.21v-3.09Zm20.41,3.09c1.13-.84,2.12-1.84,2.96-2.97v2.97h-2.96Z"/>
      <path class="cls-1" d="M41.44,44.9v1.96s-.76,.6-3.56,.64-6-2.16-6.04-5.92,3.08-6.12,6.48-6.12c2.6,0,3.04,.76,3.04,.76l.08,2.2-.48-.04s-.28-1.28-2.28-1.28-3.76,1.04-3.8,4.38,1.04,4.66,3.52,4.66,3.04-1.24,3.04-1.24Z"/>
      <rect class="cls-1" x="43.6" y="35.81" width="2.68" height="11.69"/>
      <path class="cls-1" d="M54,35.81s5.76,0,5.76,5.66c0,5.1-5.36,6.02-5.36,6.02h-5.28v-11.69h4.88Zm2.76,5.66c0-4.58-4.88-4.34-4.88-4.34v9s4.88-.08,4.88-4.66Z"/>
      <polygon class="cls-1" points="61.52 35.81 68.17 35.81 68.17 37.78 67.49 37.78 67.45 37.58 64.37 37.54 64.33 40.58 68.17 40.58 68.17 42.14 67.45 42.14 67.49 41.9 64.37 41.9 64.33 45.78 67.41 45.78 67.41 45.38 68.17 45.34 68.17 47.5 61.52 47.5 61.52 35.81"/>
    </g>
  </g>
</svg>