<?xml version="1.0" encoding="utf-8"?>
<!-- Generator: Adobe Illustrator 27.0.0, SVG Export Plug-In . SVG Version: 6.00 Build 0)  -->
<svg version="1.1" id="Capa_1" xmlns="http://www.w3.org/2000/svg" xmlns:xlink="http://www.w3.org/1999/xlink" x="0px" y="0px"
	 viewBox="0 0 24 24" style="enable-background:new 0 0 24 24;" xml:space="preserve">
<style type="text/css">
	.st0{fill:#FFFFFF;}
</style>
<path class="st0" d="M9,2.5v2.1C6.1,5.8,4,8.6,4,12c0,4.4,3.6,8,8,8c3.4,0,6.2-2.1,7.4-5h2.1c-1.3,4.1-5.1,7-9.5,7
	C6.5,22,2,17.5,2,12C2,7.5,4.9,3.7,9,2.5z M12,2c5.5,0,10,4.5,10,10c0,0.3,0,0.7,0,1H11V2C11.3,2,11.7,2,12,2z M13,4.1V11h6.9
	C19.5,7.4,16.6,4.5,13,4.1z"/>
</svg>
